<?xml version="1.0" encoding="utf-8"?>
<!-- Generator: Adobe Illustrator 18.1.0, SVG Export Plug-In . SVG Version: 6.00 Build 0)  -->
<!DOCTYPE svg PUBLIC "-//W3C//DTD SVG 1.1//EN" "http://www.w3.org/Graphics/SVG/1.1/DTD/svg11.dtd">
<svg version="1.1" id="Layer_1" xmlns="http://www.w3.org/2000/svg" xmlns:xlink="http://www.w3.org/1999/xlink" x="0px" y="0px"
	 viewBox="0 0 351.1 100" enable-background="new 0 0 351.1 100" xml:space="preserve">
<path fill="none" d="M377.6-53.6"/>
<polygon fill="#464547" points="307.6,-104.6 303.4,-112.4 325.7,-112.4 322.2,-104.6 "/>
<path fill="#FFFFFF" stroke="#464547" stroke-width="5" stroke-miterlimit="10" d="M285.7-52.3c-1.6,4.1-2.5,12.7,8.1,12.7h41.1
	c0,0,15.7,0.6,9.2-15l-1.2-2.3l-18.1-27.1v-18.2h-19.5v17.8l-17.3,27.6C287.9-56.9,286.7-55.1,285.7-52.3z"/>
<path fill="none" stroke="#464547" stroke-width="6" stroke-miterlimit="10" d="M285.7-52.3c-1.6,4.1-2.5,12.7,8.1,12.7h41.1
	c0,0,15.7,0.6,9.2-15l-1.2-2.3l-18.1-27.1v-18.2h-19.5v17.8l-17.3,27.6C287.9-56.9,286.7-55.1,285.7-52.3z"/>
<path fill="#464547" d="M326.6-101.5h-22.9c-1,0-1.9-0.9-1.9-1.9v0c0-1,0.9-1.9,1.9-1.9h22.9c1,0,1.9,0.9,1.9,1.9v0
	C328.5-102.4,327.6-101.5,326.6-101.5z"/>
<path fill="#6ABD45" d="M334.5-45l-36.1,0.1c0,0-10.1,0.7-5-9.8l14.8-24.4L324-75l13,19.5c0,0,4.3,6.6,0.2,9.7
	C337.2-45.7,335.9-45,334.5-45z"/>
<circle fill="#FFFFFF" cx="322.8" cy="-56.8" r="3.1"/>
<circle fill="#FFFFFF" cx="309.4" cy="-66" r="1.6"/>
<circle fill="#FFFFFF" cx="307.8" cy="-54.7" r="2.2"/>
<g>
	<linearGradient id="SVGID_1_" gradientUnits="userSpaceOnUse" x1="8.4675" y1="178.8357" x2="8.4675" y2="238.5307">
		<stop  offset="0" style="stop-color:#5A5B5D"/>
		<stop  offset="0.1048" style="stop-color:#5C5E5E"/>
		<stop  offset="0.2284" style="stop-color:#616563"/>
		<stop  offset="0.3617" style="stop-color:#697168"/>
		<stop  offset="0.5017" style="stop-color:#707F6B"/>
		<stop  offset="0.6471" style="stop-color:#76906A"/>
		<stop  offset="0.7969" style="stop-color:#78A263"/>
		<stop  offset="0.9475" style="stop-color:#71B54C"/>
		<stop  offset="1" style="stop-color:#6ABD45"/>
	</linearGradient>
	<path fill="url(#SVGID_1_)" d="M3.2,246.9h-20.7v-65.7H11c7.3,0,13.1,1.7,17.2,5c4.2,3.4,6.3,8.2,6.3,14.2c0,3.1-0.7,6.3-2,9.4
		c-1.4,3.3-4.3,6.1-8.6,8.5c-4.3,2.3-9.7,3.5-16.1,3.5H3.2V246.9z M-14.7,244.3H0.4v-25h7.4c5.9,0,10.8-1.1,14.7-3.1
		c3.8-2.1,6.3-4.5,7.4-7.2c1.2-2.8,1.8-5.7,1.8-8.5c0-5.4-1.7-9.4-5.3-12.3c-3.6-2.9-8.8-4.4-15.4-4.4h-25.7V244.3z M5.7,209.5H0.4
		v-16.1h6.9c3,0,5.3,0.6,6.9,1.9c1.6,1.3,2.5,3.2,2.5,5.8c0,2.7-1,4.8-3.1,6.3C11.5,208.7,8.9,209.5,5.7,209.5z M3.2,206.9h2.5
		c2.6,0,4.6-0.5,6.1-1.6c1.4-1,2.1-2.4,2.1-4.3c0-1.8-0.5-3-1.5-3.8c-1.1-0.8-2.7-1.3-5-1.3H3.2V206.9z"/>
	<linearGradient id="SVGID_2_" gradientUnits="userSpaceOnUse" x1="61.1913" y1="178.7903" x2="61.1913" y2="238.4853">
		<stop  offset="0" style="stop-color:#5A5B5D"/>
		<stop  offset="0.1048" style="stop-color:#5C5E5E"/>
		<stop  offset="0.2284" style="stop-color:#616563"/>
		<stop  offset="0.3617" style="stop-color:#697168"/>
		<stop  offset="0.5017" style="stop-color:#707F6B"/>
		<stop  offset="0.6471" style="stop-color:#76906A"/>
		<stop  offset="0.7969" style="stop-color:#78A263"/>
		<stop  offset="0.9475" style="stop-color:#71B54C"/>
		<stop  offset="1" style="stop-color:#6ABD45"/>
	</linearGradient>
	<path fill="url(#SVGID_2_)" d="M60.7,247.9c-8.2,0-14.6-3.3-19.1-9.8c-4.4-6.4-6.6-14.4-6.6-23.9c0-6.5,1.1-12.5,3.2-17.7
		c2.2-5.3,5.3-9.4,9.2-12.1c3.9-2.8,8.1-4.2,12.5-4.2c8.4,0,15.2,3.1,20.1,9.1c4.8,6,7.3,14.2,7.3,24.5c0,10.3-2.5,18.6-7.3,24.8
		C75.1,244.7,68.6,247.9,60.7,247.9z M59.9,182.7c-3.8,0-7.6,1.3-11.1,3.7c-3.5,2.5-6.3,6.2-8.3,11c-2,4.9-3,10.5-3,16.7
		c0,8.9,2.1,16.4,6.2,22.4c4.1,5.9,9.6,8.7,17.1,8.7c7.2,0,12.9-2.8,17.4-8.5c4.5-5.7,6.8-13.5,6.8-23.2c0-9.6-2.3-17.3-6.7-22.8
		C73.7,185.4,67.7,182.7,59.9,182.7z M61,234.4c-3.3,0-6-2-7.8-5.9c-1.7-3.6-2.6-8.5-2.6-14.7c0-6.1,0.9-11,2.6-14.6
		c1.9-3.9,4.7-5.8,8.3-5.8c2.9,0,5.3,1.9,7.3,5.6c1.8,3.5,2.7,8.4,2.7,14.7c0,6.1-0.9,11-2.7,14.7C67,232.4,64.3,234.4,61,234.4z
		 M61.6,196c-2.7,0-4.7,1.4-6.1,4.4c-1.6,3.2-2.4,7.7-2.4,13.4c0,5.8,0.8,10.3,2.3,13.6c1.4,3,3.2,4.4,5.6,4.4
		c2.3,0,4.2-1.5,5.7-4.6c1.6-3.3,2.4-7.9,2.4-13.5c0-5.8-0.8-10.4-2.4-13.4C65.2,197.4,63.5,196,61.6,196z"/>
	<linearGradient id="SVGID_3_" gradientUnits="userSpaceOnUse" x1="191.2304" y1="178.7903" x2="191.2304" y2="238.4853">
		<stop  offset="0" style="stop-color:#5A5B5D"/>
		<stop  offset="0.1048" style="stop-color:#5C5E5E"/>
		<stop  offset="0.2284" style="stop-color:#616563"/>
		<stop  offset="0.3617" style="stop-color:#697168"/>
		<stop  offset="0.5017" style="stop-color:#707F6B"/>
		<stop  offset="0.6471" style="stop-color:#76906A"/>
		<stop  offset="0.7969" style="stop-color:#78A263"/>
		<stop  offset="0.9475" style="stop-color:#71B54C"/>
		<stop  offset="1" style="stop-color:#6ABD45"/>
	</linearGradient>
	<path fill="url(#SVGID_3_)" d="M190.8,247.9c-8.2,0-14.6-3.3-19.1-9.8c-4.4-6.4-6.6-14.4-6.6-23.9c0-6.5,1.1-12.5,3.2-17.7
		c2.2-5.3,5.3-9.4,9.2-12.1c3.9-2.8,8.1-4.2,12.5-4.2c8.4,0,15.2,3.1,20.1,9.1c4.8,6,7.3,14.2,7.3,24.5c0,10.3-2.5,18.6-7.3,24.8
		C205.1,244.7,198.6,247.9,190.8,247.9z M190,182.7c-3.8,0-7.6,1.3-11.1,3.7c-3.5,2.5-6.3,6.2-8.3,11c-2,4.9-3,10.5-3,16.7
		c0,8.9,2.1,16.4,6.2,22.4c4.1,5.9,9.6,8.7,17.1,8.7c7.2,0,12.9-2.8,17.4-8.5c4.5-5.7,6.8-13.5,6.8-23.2c0-9.6-2.3-17.3-6.7-22.8
		C203.7,185.4,197.8,182.7,190,182.7z M191.1,234.4c-3.3,0-6-2-7.8-5.9c-1.7-3.6-2.6-8.5-2.6-14.7c0-6.1,0.9-11,2.6-14.6
		c1.9-3.9,4.7-5.8,8.3-5.8c2.9,0,5.3,1.9,7.3,5.6c1.8,3.5,2.7,8.4,2.7,14.7c0,6.1-0.9,11-2.7,14.7
		C197,232.4,194.4,234.4,191.1,234.4z M191.6,196c-2.7,0-4.7,1.4-6.1,4.4c-1.6,3.2-2.4,7.7-2.4,13.4c0,5.8,0.8,10.3,2.3,13.6
		c1.4,3,3.2,4.4,5.6,4.4c2.3,0,4.2-1.5,5.7-4.6c1.6-3.3,2.4-7.9,2.4-13.5c0-5.8-0.8-10.4-2.4-13.4C195.2,197.4,193.6,196,191.6,196z
		"/>
	<linearGradient id="SVGID_4_" gradientUnits="userSpaceOnUse" x1="111.5441" y1="178.8357" x2="111.5441" y2="238.5307">
		<stop  offset="0" style="stop-color:#5A5B5D"/>
		<stop  offset="0.1048" style="stop-color:#5C5E5E"/>
		<stop  offset="0.2284" style="stop-color:#616563"/>
		<stop  offset="0.3617" style="stop-color:#697168"/>
		<stop  offset="0.5017" style="stop-color:#707F6B"/>
		<stop  offset="0.6471" style="stop-color:#76906A"/>
		<stop  offset="0.7969" style="stop-color:#78A263"/>
		<stop  offset="0.9475" style="stop-color:#71B54C"/>
		<stop  offset="1" style="stop-color:#6ABD45"/>
	</linearGradient>
	<path fill="url(#SVGID_4_)" d="M121.5,246.9H101v-50.3H86.1v-15.4H137v15.4h-15.4V246.9z M103.8,244.3h14.9V194h15.4v-10.3H88.9
		V194h14.9V244.3z"/>
	<linearGradient id="SVGID_5_" gradientUnits="userSpaceOnUse" x1="150.8805" y1="178.8357" x2="150.8805" y2="238.5307">
		<stop  offset="0" style="stop-color:#5A5B5D"/>
		<stop  offset="0.1048" style="stop-color:#5C5E5E"/>
		<stop  offset="0.2284" style="stop-color:#616563"/>
		<stop  offset="0.3617" style="stop-color:#697168"/>
		<stop  offset="0.5017" style="stop-color:#707F6B"/>
		<stop  offset="0.6471" style="stop-color:#76906A"/>
		<stop  offset="0.7969" style="stop-color:#78A263"/>
		<stop  offset="0.9475" style="stop-color:#71B54C"/>
		<stop  offset="1" style="stop-color:#6ABD45"/>
	</linearGradient>
	<path fill="url(#SVGID_5_)" d="M161.2,246.9h-20.7v-65.7h20.7V246.9z M143.3,244.3h15.1v-60.6h-15.1V244.3z"/>
	<linearGradient id="SVGID_6_" gradientUnits="userSpaceOnUse" x1="247.3455" y1="178.8357" x2="247.3455" y2="238.5307">
		<stop  offset="0" style="stop-color:#5A5B5D"/>
		<stop  offset="0.1048" style="stop-color:#5C5E5E"/>
		<stop  offset="0.2284" style="stop-color:#616563"/>
		<stop  offset="0.3617" style="stop-color:#697168"/>
		<stop  offset="0.5017" style="stop-color:#707F6B"/>
		<stop  offset="0.6471" style="stop-color:#76906A"/>
		<stop  offset="0.7969" style="stop-color:#78A263"/>
		<stop  offset="0.9475" style="stop-color:#71B54C"/>
		<stop  offset="1" style="stop-color:#6ABD45"/>
	</linearGradient>
	<path fill="url(#SVGID_6_)" d="M273.8,246.9h-20.3l-9-20.8c-1.5-3.5-2.9-6.8-4-9.8l0.2,4.5l0,26.1h-19.8v-65.7h20.4l9,20.8
		c1.5,3.5,2.8,6.7,3.9,9.6l-0.2-4.4l0-26.1h19.8V246.9z M255.4,244.3h15.7v-60.6h-14.2v23.5l0.5,12h-3.4l-0.3-0.9
		c-1.4-4.3-3.3-9.4-5.9-15.3l-8.3-19.2h-15.7v60.6h14.2v-23.5l-0.5-12h3.5l0.3,0.9c1.4,4.3,3.4,9.5,5.9,15.4L255.4,244.3z"/>
</g>
<g>
	<path fill="none" stroke="#717375" stroke-width="4" stroke-miterlimit="10" d="M308.8-175c-1.8,4.7-2.9,14.5,9.2,14.5h46.8
		c0,0,17.9,0.7,10.4-17.1l-1.4-2.7l-20.6-30.9v-20.7H331v20.2l-19.6,31.4C311.3-180.2,310-178.2,308.8-175z"/>
	<path fill="#717375" d="M355.5-231h-26.4c-1.1,0-2-0.9-2-2v-0.3c0-1.1,0.9-2,2-2h26.4c1.1,0,2,0.9,2,2v0.3
		C357.5-231.9,356.6-231,355.5-231z"/>
	<path fill="#6ABD45" d="M364.4-166.6l-41.1,0.1c0,0-11.5,0.8-5.7-11.1l16.8-27.8l18.1,4.7l14.8,22.2c0,0,4.9,7.5,0.2,11.1
		C367.4-167.5,366-166.6,364.4-166.6z"/>
	<path fill="none" d="M377.6-172.7"/>
	<circle fill="#FFFFFF" cx="351.1" cy="-180.1" r="3.5"/>
	<circle fill="#FFFFFF" cx="335.7" cy="-190.5" r="1.8"/>
	<circle fill="#FFFFFF" cx="334" cy="-177.6" r="2.5"/>
</g>
<g>
	<linearGradient id="SVGID_7_" gradientUnits="userSpaceOnUse" x1="6.4675" y1="-232.7446" x2="6.4675" y2="-169.1884">
		<stop  offset="0" style="stop-color:#5A5B5D"/>
		<stop  offset="0.1048" style="stop-color:#5C5E5E"/>
		<stop  offset="0.2284" style="stop-color:#616563"/>
		<stop  offset="0.3617" style="stop-color:#697168"/>
		<stop  offset="0.5017" style="stop-color:#707F6B"/>
		<stop  offset="0.6471" style="stop-color:#76906A"/>
		<stop  offset="0.7969" style="stop-color:#78A263"/>
		<stop  offset="0.9475" style="stop-color:#71B54C"/>
		<stop  offset="1" style="stop-color:#6ABD45"/>
	</linearGradient>
	<path fill="url(#SVGID_7_)" d="M1.2-160.3h-20.7v-69.9H9c7.3,0,13.1,1.8,17.2,5.3c4.2,3.6,6.3,8.7,6.3,15.2c0,3.3-0.7,6.7-2,10.1
		c-1.4,3.5-4.3,6.5-8.6,9c-4.3,2.5-9.7,3.7-16.1,3.7H1.2V-160.3z M-16.7-163h15.1v-26.6h7.4c5.9,0,10.8-1.1,14.7-3.4
		c3.8-2.2,6.3-4.8,7.4-7.7c1.2-3,1.8-6.1,1.8-9.1c0-5.7-1.7-10-5.3-13.1c-3.6-3.1-8.8-4.6-15.4-4.6h-25.7V-163z M3.7-200.1h-5.3
		v-17.1h6.9c3,0,5.3,0.7,6.9,2c1.6,1.4,2.5,3.5,2.5,6.1c0,2.8-1,5.1-3.1,6.7C9.5-200.9,6.9-200.1,3.7-200.1z M1.2-202.9h2.5
		c2.6,0,4.6-0.6,6.1-1.7c1.4-1.1,2.1-2.6,2.1-4.5c0-1.9-0.5-3.2-1.5-4.1c-1.1-0.9-2.7-1.4-5-1.4H1.2V-202.9z"/>
	<linearGradient id="SVGID_8_" gradientUnits="userSpaceOnUse" x1="63.7381" y1="-232.7929" x2="63.7381" y2="-169.2366">
		<stop  offset="0" style="stop-color:#5A5B5D"/>
		<stop  offset="0.1048" style="stop-color:#5C5E5E"/>
		<stop  offset="0.2284" style="stop-color:#616563"/>
		<stop  offset="0.3617" style="stop-color:#697168"/>
		<stop  offset="0.5017" style="stop-color:#707F6B"/>
		<stop  offset="0.6471" style="stop-color:#76906A"/>
		<stop  offset="0.7969" style="stop-color:#78A263"/>
		<stop  offset="0.9475" style="stop-color:#71B54C"/>
		<stop  offset="1" style="stop-color:#6ABD45"/>
	</linearGradient>
	<path fill="url(#SVGID_8_)" d="M63.2-159.2c-9.3,0-16.6-3.5-21.7-10.4c-5-6.8-7.5-15.3-7.5-25.4c0-7,1.2-13.3,3.7-18.9
		c2.5-5.6,6-10,10.4-12.9c4.5-3,9.2-4.5,14.2-4.5c9.6,0,17.3,3.3,22.8,9.7c5.5,6.4,8.3,15.1,8.3,26c0,10.9-2.8,19.8-8.3,26.4
		C79.5-162.6,72.1-159.2,63.2-159.2z M62.3-228.6c-4.4,0-8.6,1.3-12.6,4c-4,2.6-7.2,6.6-9.4,11.7c-2.3,5.2-3.4,11.2-3.4,17.8
		c0,9.5,2.4,17.5,7,23.8c4.6,6.3,10.9,9.3,19.4,9.3c8.1,0,14.6-3,19.7-9c5.1-6.1,7.7-14.4,7.7-24.7c0-10.3-2.6-18.4-7.6-24.3
		C77.9-225.8,71.1-228.6,62.3-228.6z M63.5-173.6c-3.8,0-6.8-2.1-8.9-6.2c-1.9-3.8-2.9-9.1-2.9-15.7c0-6.5,1-11.7,3-15.5
		c2.1-4.1,5.3-6.2,9.4-6.2c3.3,0,6,2,8.2,5.9c2,3.7,3.1,8.9,3.1,15.6c0,6.4-1,11.7-3,15.6C70.3-175.7,67.3-173.6,63.5-173.6z
		 M64.2-214.5c-3,0-5.3,1.5-6.9,4.7c-1.8,3.4-2.7,8.2-2.7,14.3c0,6.2,0.9,11,2.6,14.5c1.6,3.2,3.7,4.7,6.4,4.7
		c2.7,0,4.8-1.6,6.4-4.9c1.8-3.6,2.7-8.4,2.7-14.4c0-6.2-0.9-11-2.7-14.3C68.3-213,66.4-214.5,64.2-214.5z"/>
	<linearGradient id="SVGID_9_" gradientUnits="userSpaceOnUse" x1="117.5441" y1="-232.7446" x2="117.5441" y2="-169.1884">
		<stop  offset="0" style="stop-color:#5A5B5D"/>
		<stop  offset="0.1048" style="stop-color:#5C5E5E"/>
		<stop  offset="0.2284" style="stop-color:#616563"/>
		<stop  offset="0.3617" style="stop-color:#697168"/>
		<stop  offset="0.5017" style="stop-color:#707F6B"/>
		<stop  offset="0.6471" style="stop-color:#76906A"/>
		<stop  offset="0.7969" style="stop-color:#78A263"/>
		<stop  offset="0.9475" style="stop-color:#71B54C"/>
		<stop  offset="1" style="stop-color:#6ABD45"/>
	</linearGradient>
	<path fill="url(#SVGID_9_)" d="M127.5-160.3H107v-53.6H92.1v-16.4H143v16.4h-15.4V-160.3z M109.8-163h14.9v-53.6h15.4v-10.9H94.9
		v10.9h14.9V-163z"/>
	<linearGradient id="SVGID_10_" gradientUnits="userSpaceOnUse" x1="158.8805" y1="-232.7446" x2="158.8805" y2="-169.1884">
		<stop  offset="0" style="stop-color:#5A5B5D"/>
		<stop  offset="0.1048" style="stop-color:#5C5E5E"/>
		<stop  offset="0.2284" style="stop-color:#616563"/>
		<stop  offset="0.3617" style="stop-color:#697168"/>
		<stop  offset="0.5017" style="stop-color:#707F6B"/>
		<stop  offset="0.6471" style="stop-color:#76906A"/>
		<stop  offset="0.7969" style="stop-color:#78A263"/>
		<stop  offset="0.9475" style="stop-color:#71B54C"/>
		<stop  offset="1" style="stop-color:#6ABD45"/>
	</linearGradient>
	<path fill="url(#SVGID_10_)" d="M169.2-160.3h-20.7v-69.9h20.7V-160.3z M151.3-163h15.1v-64.5h-15.1V-163z"/>
	<linearGradient id="SVGID_11_" gradientUnits="userSpaceOnUse" x1="204.2547" y1="-232.7929" x2="204.2547" y2="-169.2366">
		<stop  offset="0" style="stop-color:#5A5B5D"/>
		<stop  offset="0.1048" style="stop-color:#5C5E5E"/>
		<stop  offset="0.2284" style="stop-color:#616563"/>
		<stop  offset="0.3617" style="stop-color:#697168"/>
		<stop  offset="0.5017" style="stop-color:#707F6B"/>
		<stop  offset="0.6471" style="stop-color:#76906A"/>
		<stop  offset="0.7969" style="stop-color:#78A263"/>
		<stop  offset="0.9475" style="stop-color:#71B54C"/>
		<stop  offset="1" style="stop-color:#6ABD45"/>
	</linearGradient>
	<path fill="url(#SVGID_11_)" d="M203.7-159.2c-9.3,0-16.6-3.5-21.7-10.4c-5-6.8-7.5-15.3-7.5-25.4c0-7,1.2-13.3,3.7-18.9
		c2.5-5.6,6-10,10.4-12.9c4.5-3,9.2-4.5,14.2-4.5c9.6,0,17.3,3.3,22.8,9.7c5.5,6.4,8.3,15.1,8.3,26c0,10.9-2.8,19.8-8.3,26.4
		C220-162.6,212.6-159.2,203.7-159.2z M202.8-228.6c-4.4,0-8.6,1.3-12.6,4c-4,2.6-7.2,6.6-9.4,11.7c-2.3,5.2-3.4,11.2-3.4,17.8
		c0,9.5,2.4,17.5,7,23.8c4.6,6.3,10.9,9.3,19.4,9.3c8.1,0,14.6-3,19.7-9c5.1-6.1,7.7-14.4,7.7-24.7c0-10.3-2.6-18.4-7.6-24.3
		C218.4-225.8,211.7-228.6,202.8-228.6z M204.1-173.6c-3.8,0-6.8-2.1-8.9-6.2c-1.9-3.8-2.9-9.1-2.9-15.7c0-6.5,1-11.7,3-15.5
		c2.1-4.1,5.3-6.2,9.4-6.2c3.3,0,6,2,8.2,5.9c2,3.7,3.1,8.9,3.1,15.6c0,6.4-1,11.7-3,15.6C210.8-175.7,207.8-173.6,204.1-173.6z
		 M204.7-214.5c-3,0-5.3,1.5-6.9,4.7c-1.8,3.4-2.7,8.2-2.7,14.3c0,6.2,0.9,11,2.6,14.5c1.6,3.2,3.7,4.7,6.4,4.7
		c2.7,0,4.8-1.6,6.4-4.9c1.8-3.6,2.7-8.4,2.7-14.4c0-6.2-0.9-11-2.7-14.3C208.8-213,206.9-214.5,204.7-214.5z"/>
	<linearGradient id="SVGID_12_" gradientUnits="userSpaceOnUse" x1="265.3455" y1="-232.7446" x2="265.3455" y2="-169.1884">
		<stop  offset="0" style="stop-color:#5A5B5D"/>
		<stop  offset="0.1048" style="stop-color:#5C5E5E"/>
		<stop  offset="0.2284" style="stop-color:#616563"/>
		<stop  offset="0.3617" style="stop-color:#697168"/>
		<stop  offset="0.5017" style="stop-color:#707F6B"/>
		<stop  offset="0.6471" style="stop-color:#76906A"/>
		<stop  offset="0.7969" style="stop-color:#78A263"/>
		<stop  offset="0.9475" style="stop-color:#71B54C"/>
		<stop  offset="1" style="stop-color:#6ABD45"/>
	</linearGradient>
	<path fill="url(#SVGID_12_)" d="M291.8-160.3h-20.3l-9-22.2c-1.5-3.8-2.9-7.3-4-10.4l0.2,4.8l0,27.8h-19.8v-69.9h20.4l9,22.2
		c1.5,3.7,2.8,7.1,3.9,10.3l-0.2-4.7l0-27.8h19.8V-160.3z M273.4-163h15.7v-64.5h-14.2v25l0.5,12.7h-3.4l-0.3-1
		c-1.4-4.6-3.3-10-5.9-16.3l-8.3-20.4h-15.7v64.5h14.2v-25l-0.5-12.7h3.5l0.3,1c1.4,4.6,3.4,10.1,5.9,16.4L273.4-163z"/>
</g>
<linearGradient id="SVGID_13_" gradientUnits="userSpaceOnUse" x1="-305.4834" y1="-89.1891" x2="-305.4834" y2="-42.5176">
	<stop  offset="0" style="stop-color:#5A5B5D"/>
	<stop  offset="0.1048" style="stop-color:#5C5E5E"/>
	<stop  offset="0.2284" style="stop-color:#616563"/>
	<stop  offset="0.3617" style="stop-color:#697168"/>
	<stop  offset="0.5017" style="stop-color:#707F6B"/>
	<stop  offset="0.6471" style="stop-color:#76906A"/>
	<stop  offset="0.7969" style="stop-color:#78A263"/>
	<stop  offset="0.9475" style="stop-color:#71B54C"/>
	<stop  offset="1" style="stop-color:#6ABD45"/>
</linearGradient>
<path fill="url(#SVGID_13_)" d="M-310.4-16.4h-21.4v-77.2h18.5l1.3,4.1c1.3-1.4,2.8-2.6,4.4-3.4c2.3-1.2,4.9-1.9,7.7-1.9
	c6.4,0,11.6,2.8,15.4,8.3c3.7,5.3,5.6,11.7,5.6,18.9c0,5.3-1,10.1-2.8,14.4c-1.9,4.3-4.5,7.8-7.8,10.4c-3.4,2.6-7.2,4-11.5,4
	c-2.1,0-4.1-0.4-6-1.2c-1.1-0.4-2.1-1-3.1-1.6V-16.4z M-328.9-19.4h15.4v-28.4l2.5,2.1c1.6,1.3,3.2,2.3,4.8,2.9c1.6,0.6,3.3,1,4.9,1
	c3.6,0,6.8-1.1,9.7-3.3c2.9-2.3,5.2-5.4,6.9-9.2c1.7-3.9,2.6-8.3,2.6-13.2c0-6.6-1.7-12.4-5-17.2c-3.3-4.7-7.5-7-12.9-7
	c-2.3,0-4.4,0.5-6.2,1.5c-1.9,1-3.6,2.6-5.2,4.7l-1.7,2.4l-2.4-7.4h-13.3V-19.4z M-306.8-53.2c-1.3,0-2.5-0.3-3.5-0.9
	c-1-0.6-2-1.4-2.8-2.5l-0.3-0.4v-12.9c0-3.4,0.5-5.9,1.7-7.6c1.2-1.9,3.2-3,5.6-3c1.7,0,4.2,0.7,6,3.8c1.3,2.3,2,5.5,2,9.6
	c0,4-0.7,7.3-2.1,9.7C-301.8-54.6-304-53.2-306.8-53.2z M-310.4-58c0.5,0.6,1,1,1.6,1.3c0.6,0.4,1.3,0.5,2.1,0.5
	c1.7,0,2.9-0.8,3.9-2.5c1.1-2,1.7-4.7,1.7-8.3c0-3.6-0.5-6.3-1.6-8.1c-1.2-2.1-2.5-2.3-3.4-2.3c-1.4,0-2.4,0.5-3,1.6
	c-0.8,1.3-1.2,3.3-1.2,6V-58z"/>
<linearGradient id="SVGID_14_" gradientUnits="userSpaceOnUse" x1="-248.8401" y1="-89.1891" x2="-248.8401" y2="-42.5176">
	<stop  offset="0" style="stop-color:#5A5B5D"/>
	<stop  offset="0.1048" style="stop-color:#5C5E5E"/>
	<stop  offset="0.2284" style="stop-color:#616563"/>
	<stop  offset="0.3617" style="stop-color:#697168"/>
	<stop  offset="0.5017" style="stop-color:#707F6B"/>
	<stop  offset="0.6471" style="stop-color:#76906A"/>
	<stop  offset="0.7969" style="stop-color:#78A263"/>
	<stop  offset="0.9475" style="stop-color:#71B54C"/>
	<stop  offset="1" style="stop-color:#6ABD45"/>
</linearGradient>
<path fill="url(#SVGID_14_)" d="M-249.1-38.8c-8.5,0-15.3-2.6-20.1-7.9c-4.8-5.2-7.2-11.8-7.2-19.8c0-8.3,2.5-15.1,7.5-20.4
	c5-5.2,11.7-7.9,19.8-7.9c8.1,0,14.8,2.5,20,7.3c5.2,4.9,7.9,11.7,7.9,20.4c0,8.2-2.5,15-7.5,20.3
	C-233.7-41.5-240.6-38.8-249.1-38.8z M-249.1-91.7c-7.3,0-13.2,2.3-17.7,7c-4.5,4.6-6.7,10.8-6.7,18.3c0,7.2,2.2,13.2,6.4,17.8
	c4.2,4.6,10.3,6.9,17.9,6.9c7.7,0,13.8-2.4,18.2-7c4.4-4.7,6.7-10.8,6.7-18.2c0-7.8-2.3-13.9-6.9-18.2
	C-235.8-89.5-241.8-91.7-249.1-91.7z M-249-52c-2.9,0-5.1-1.4-6.5-4.2c-1.3-2.5-1.9-6-1.9-10.7c0-4.8,0.6-8.3,1.9-10.8
	c1.4-2.7,3.7-4.2,6.6-4.2c2.9,0,5.1,1.4,6.5,4.2c1.3,2.5,1.9,6,1.9,10.9c0,4.7-0.6,8.2-1.9,10.6C-243.8-53.4-246.1-52-249-52z
	 M-248.9-78.8c-1.7,0-3,0.8-3.9,2.6c-1.1,2-1.6,5.2-1.6,9.4c0,4.2,0.5,7.3,1.6,9.3c0.9,1.7,2.1,2.5,3.9,2.5c1.8,0,3-0.8,3.9-2.5
	c1-2,1.6-5.1,1.6-9.3c0-4.3-0.5-7.5-1.6-9.5C-245.9-78-247.2-78.8-248.9-78.8z"/>
<linearGradient id="SVGID_15_" gradientUnits="userSpaceOnUse" x1="-201.9114" y1="-89.1891" x2="-201.9114" y2="-42.5176">
	<stop  offset="0" style="stop-color:#5A5B5D"/>
	<stop  offset="0.1048" style="stop-color:#5C5E5E"/>
	<stop  offset="0.2284" style="stop-color:#616563"/>
	<stop  offset="0.3617" style="stop-color:#697168"/>
	<stop  offset="0.5017" style="stop-color:#707F6B"/>
	<stop  offset="0.6471" style="stop-color:#76906A"/>
	<stop  offset="0.7969" style="stop-color:#78A263"/>
	<stop  offset="0.9475" style="stop-color:#71B54C"/>
	<stop  offset="1" style="stop-color:#6ABD45"/>
</linearGradient>
<path fill="url(#SVGID_15_)" d="M-195.3-38.8c-6.2,0-10.8-1.4-13.8-4.1c-3-2.8-4.6-7.1-4.6-12.7v-22.6h-6.9v-15.4h8.1l-0.5-15.2
	h20.4v15.2h9.3v15.4h-8.5V-59c0,2.7,1.1,3.3,2.7,3.3c1.1,0,2.2-0.4,3.4-1.2l2.3-1.5v17.6l-1,0.3C-187.9-39.4-191.6-38.8-195.3-38.8z
	 M-217.5-81.2h6.9v25.6c0,4.8,1.2,8.3,3.6,10.5c2.4,2.2,6.4,3.3,11.8,3.3c3,0,6.1-0.4,9-1.3v-10.1c-0.9,0.3-1.8,0.5-2.7,0.5
	c-3.6,0-5.7-2.3-5.7-6.3v-22.2h8.5v-9.4h-9.3v-15.2h-14.6l0.5,15.2h-7.8V-81.2z"/>
<linearGradient id="SVGID_16_" gradientUnits="userSpaceOnUse" x1="-166.782" y1="-90.866" x2="-166.782" y2="-42.6049">
	<stop  offset="0" style="stop-color:#5A5B5D"/>
	<stop  offset="0.1048" style="stop-color:#5C5E5E"/>
	<stop  offset="0.2284" style="stop-color:#616563"/>
	<stop  offset="0.3617" style="stop-color:#697168"/>
	<stop  offset="0.5017" style="stop-color:#707F6B"/>
	<stop  offset="0.6471" style="stop-color:#76906A"/>
	<stop  offset="0.7969" style="stop-color:#78A263"/>
	<stop  offset="0.9475" style="stop-color:#71B54C"/>
	<stop  offset="1" style="stop-color:#6ABD45"/>
</linearGradient>
<path fill="url(#SVGID_16_)" d="M-156.1-40h-21.7v-53.6h21.7V-40z M-174.7-43h15.7v-47.6h-15.7V-43z M-166.8-97.3
	c-3.2,0-5.9-1.2-8.1-3.5c-2.2-2.3-3.4-5.2-3.4-8.4c0-3.3,1.2-6.1,3.5-8.4c2.3-2.2,5-3.3,8-3.3c2.9,0,5.5,1.1,7.9,3.2
	c2.4,2.2,3.7,5.1,3.7,8.6c0,3.3-1.2,6.2-3.5,8.5C-161-98.4-163.7-97.3-166.8-97.3z M-166.8-117.5c-2.3,0-4.3,0.8-6.1,2.5
	c-1.7,1.6-2.5,3.5-2.5,5.8c0,2.3,0.8,4.2,2.4,5.9c1.7,1.7,3.7,2.6,6.1,2.6c2.4,0,4.4-0.8,6.1-2.5c1.7-1.6,2.5-3.6,2.5-5.9
	c0-2.5-0.8-4.4-2.6-6C-162.6-116.7-164.6-117.5-166.8-117.5z"/>
<linearGradient id="SVGID_17_" gradientUnits="userSpaceOnUse" x1="-124.8767" y1="-89.1891" x2="-124.8767" y2="-42.5176">
	<stop  offset="0" style="stop-color:#5A5B5D"/>
	<stop  offset="0.1048" style="stop-color:#5C5E5E"/>
	<stop  offset="0.2284" style="stop-color:#616563"/>
	<stop  offset="0.3617" style="stop-color:#697168"/>
	<stop  offset="0.5017" style="stop-color:#707F6B"/>
	<stop  offset="0.6471" style="stop-color:#76906A"/>
	<stop  offset="0.7969" style="stop-color:#78A263"/>
	<stop  offset="0.9475" style="stop-color:#71B54C"/>
	<stop  offset="1" style="stop-color:#6ABD45"/>
</linearGradient>
<path fill="url(#SVGID_17_)" d="M-125.2-38.8c-8.5,0-15.3-2.6-20.1-7.9c-4.8-5.2-7.2-11.8-7.2-19.8c0-8.3,2.5-15.1,7.5-20.4
	c5-5.2,11.7-7.9,19.8-7.9c8.1,0,14.8,2.5,20,7.3c5.2,4.9,7.9,11.7,7.9,20.4c0,8.2-2.5,15-7.5,20.3
	C-109.8-41.5-116.6-38.8-125.2-38.8z M-125.1-91.7c-7.3,0-13.2,2.3-17.7,7c-4.5,4.6-6.7,10.8-6.7,18.3c0,7.2,2.2,13.2,6.4,17.8
	c4.2,4.6,10.3,6.9,17.9,6.9c7.7,0,13.8-2.4,18.2-7c4.4-4.7,6.7-10.8,6.7-18.2c0-7.8-2.3-13.9-6.9-18.2
	C-111.8-89.5-117.8-91.7-125.1-91.7z M-125-52c-2.9,0-5.1-1.4-6.5-4.2c-1.3-2.5-1.9-6-1.9-10.7c0-4.8,0.6-8.3,1.9-10.8
	c1.4-2.7,3.7-4.2,6.6-4.2c2.9,0,5.1,1.4,6.5,4.2c1.3,2.5,1.9,6,1.9,10.9c0,4.7-0.6,8.2-1.9,10.6C-119.8-53.4-122.1-52-125-52z
	 M-124.9-78.8c-1.7,0-3,0.8-3.9,2.6c-1.1,2-1.6,5.2-1.6,9.4c0,4.2,0.5,7.3,1.6,9.3c0.9,1.7,2.1,2.5,3.9,2.5c1.8,0,3-0.8,3.9-2.5
	c1-2,1.6-5.1,1.6-9.3c0-4.3-0.5-7.5-1.6-9.5C-122-78-123.2-78.8-124.9-78.8z"/>
<linearGradient id="SVGID_18_" gradientUnits="userSpaceOnUse" x1="-69.4707" y1="-89.1891" x2="-69.4707" y2="-42.5176">
	<stop  offset="0" style="stop-color:#5A5B5D"/>
	<stop  offset="0.1048" style="stop-color:#5C5E5E"/>
	<stop  offset="0.2284" style="stop-color:#616563"/>
	<stop  offset="0.3617" style="stop-color:#697168"/>
	<stop  offset="0.5017" style="stop-color:#707F6B"/>
	<stop  offset="0.6471" style="stop-color:#76906A"/>
	<stop  offset="0.7969" style="stop-color:#78A263"/>
	<stop  offset="0.9475" style="stop-color:#71B54C"/>
	<stop  offset="1" style="stop-color:#6ABD45"/>
</linearGradient>
<path fill="url(#SVGID_18_)" d="M-45-40h-21.7v-34.5c0-2.8-1.2-2.8-2-2.8c-1.1,0-2,0.5-2.7,1.6c-0.8,1.3-1.2,3.2-1.2,5.7V-40H-94
	v-53.6h18.6l1.3,3.8c1.3-1.4,2.8-2.4,4.4-3.2c2.3-1.2,4.9-1.8,7.7-1.8c4.8,0,8.9,1.6,12.1,4.8c3.2,3.2,4.9,7.2,4.9,12V-40z
	 M-63.6-43H-48v-35c0-4-1.3-7.2-4-9.8c-2.7-2.7-6-3.9-10-3.9c-2.3,0-4.5,0.5-6.4,1.4c-1.9,1-3.6,2.4-5.1,4.4l-1.7,2.2l-2.4-6.9H-91
	V-43h15.4v-26.9c0-3.1,0.6-5.5,1.7-7.3c1.2-2,3-3,5.2-3c1.5,0,5,0.6,5,5.8V-43z"/>
<path fill="#464547" d="M17.6-21.5H5.7v-69.9h11.9v5.6c4.7-4.7,10.1-7.1,16-7.1c7.1,0,13,2.6,17.6,7.9c4.7,5.2,7,11.8,7,19.7
	c0,7.8-2.3,14.2-7,19.4c-4.6,5.1-10.4,7.7-17.4,7.7c-6.1,0-11.5-2.4-16.2-7.3V-21.5z M46-65.1c0-5-1.3-9-4-12.1
	c-2.7-3.1-6.2-4.7-10.3-4.7c-4.4,0-7.9,1.5-10.7,4.6c-2.7,3-4.1,7-4.1,12c0,4.9,1.4,8.9,4.1,12c2.7,3.1,6.2,4.6,10.6,4.6
	c4.1,0,7.6-1.6,10.2-4.7C44.6-56.6,46-60.5,46-65.1z"/>
<path fill="#464547" d="M62-65.8c0-7.5,2.7-13.8,8-19.1c5.3-5.2,11.9-7.9,19.5-7.9c7.7,0,14.3,2.6,19.6,7.9c5.3,5.3,8,11.8,8,19.4
	c0,7.8-2.7,14.2-8,19.5c-5.4,5.2-12,7.8-19.8,7.8c-7.8,0-14.2-2.7-19.5-8C64.6-51.3,62-57.9,62-65.8z M74.2-65.6
	c0,5.2,1.4,9.3,4.1,12.3c2.8,3,6.6,4.6,11.2,4.6c4.7,0,8.4-1.5,11.2-4.5c2.8-3,4.2-7,4.2-12.1c0-5-1.4-9-4.2-12.1
	c-2.8-3-6.6-4.6-11.2-4.6c-4.6,0-8.3,1.5-11.1,4.6C75.6-74.4,74.2-70.4,74.2-65.6z"/>
<path fill="#464547" d="M136.3-80.2v40.6h-11.9v-40.6h-8.1v-11.2h8.1v-19h11.9v19h9.3v11.2H136.3z"/>
<path fill="#464547" d="M162.2-91.3v51.7h-11.9v-51.7H162.2z"/>
<path fill="#464547" d="M166.5-65.8c0-7.5,2.7-13.8,8-19.1c5.3-5.2,11.9-7.9,19.5-7.9c7.7,0,14.3,2.6,19.6,7.9
	c5.3,5.3,8,11.8,8,19.4c0,7.8-2.7,14.2-8,19.5c-5.4,5.2-12,7.8-19.8,7.8c-7.8,0-14.2-2.7-19.5-8C169.1-51.3,166.5-57.9,166.5-65.8z
	 M178.7-65.6c0,5.2,1.4,9.3,4.1,12.3c2.8,3,6.6,4.6,11.2,4.6c4.7,0,8.4-1.5,11.2-4.5c2.8-3,4.2-7,4.2-12.1c0-5-1.4-9-4.2-12.1
	c-2.8-3-6.6-4.6-11.2-4.6c-4.6,0-8.3,1.5-11.1,4.6C180.1-74.4,178.7-70.4,178.7-65.6z"/>
<path fill="#464547" d="M225.9-91.3h12v4.8c4.2-4.1,8.9-6.2,14.1-6.2c6,0,10.7,1.9,14.1,5.7c2.9,3.2,4.4,8.5,4.4,15.8v31.7h-12
	v-28.8c0-5.1-0.7-8.6-2.1-10.6c-1.4-2-3.9-3-7.5-3c-4,0-6.8,1.3-8.4,3.9c-1.6,2.6-2.4,7.1-2.4,13.5v24.9h-12V-91.3z"/>
<path fill="#6ABD45" d="M148.5-105.8c0-2.1,0.8-3.9,2.3-5.4c1.5-1.5,3.3-2.3,5.5-2.3c2.2,0,4,0.8,5.5,2.3c1.5,1.5,2.3,3.3,2.3,5.5
	c0,2.2-0.8,4-2.3,5.5c-1.5,1.5-3.3,2.3-5.5,2.3s-4-0.8-5.5-2.3C149.3-101.8,148.5-103.6,148.5-105.8z"/>
<rect y="-116.9" fill="#464547" width="351.1" height="100"/>
<polygon fill="#FFFFFF" points="307.6,12.3 303.4,4.5 325.7,4.5 322.2,12.3 "/>
<path fill="none" stroke="#FFFFFF" stroke-width="4" stroke-miterlimit="10" d="M285.7,64.6c-1.6,4.1-2.5,12.7,8.1,12.7h41.1
	c0,0,15.7,0.6,9.2-15l-1.2-2.3l-18.1-27.1V14.6h-19.5v17.8L287.9,60C287.9,60,286.7,61.8,285.7,64.6z"/>
<path fill="#FFFFFF" d="M326.6,15.4h-22.9c-1,0-1.9-0.9-1.9-1.9v0c0-1,0.9-1.9,1.9-1.9h22.9c1,0,1.9,0.9,1.9,1.9v0
	C328.5,14.5,327.6,15.4,326.6,15.4z"/>
<path fill="#6ABD45" d="M333.8,71.4l-34.9,0c0,0-9.7,0.7-4.9-9.5l14.3-23.5l15.3,4l12.6,18.8c0,0,4.1,6.3,0.2,9.4
	C336.4,70.6,335.2,71.4,333.8,71.4z"/>
<circle fill="#FFFFFF" cx="322.5" cy="59.9" r="3"/>
<circle fill="#FFFFFF" cx="309.6" cy="51.1" r="1.5"/>
<circle fill="#FFFFFF" cx="308.1" cy="62" r="2.1"/>
<path fill="#FFFFFF" d="M17.6,95.5H5.7V25.6h11.9v5.6c4.7-4.7,10.1-7.1,16-7.1c7.1,0,13,2.6,17.6,7.9c4.7,5.2,7,11.8,7,19.7
	c0,7.8-2.3,14.2-7,19.4c-4.6,5.1-10.4,7.7-17.4,7.7c-6.1,0-11.5-2.4-16.2-7.3V95.5z M46,51.8c0-5-1.3-9-4-12.1
	c-2.7-3.1-6.2-4.7-10.3-4.7c-4.4,0-7.9,1.5-10.7,4.6c-2.7,3-4.1,7-4.1,12c0,4.9,1.4,8.9,4.1,12c2.7,3.1,6.2,4.6,10.6,4.6
	c4.1,0,7.6-1.6,10.2-4.7C44.6,60.3,46,56.4,46,51.8z"/>
<path fill="#FFFFFF" d="M62,51.1c0-7.5,2.7-13.8,8-19.1c5.3-5.2,11.9-7.9,19.5-7.9c7.7,0,14.3,2.6,19.6,7.9c5.3,5.3,8,11.8,8,19.4
	c0,7.8-2.7,14.2-8,19.5c-5.4,5.2-12,7.8-19.8,7.8c-7.8,0-14.2-2.7-19.5-8C64.6,65.6,62,59,62,51.1z M74.2,51.3
	c0,5.2,1.4,9.3,4.1,12.3c2.8,3,6.6,4.6,11.2,4.6c4.7,0,8.4-1.5,11.2-4.5c2.8-3,4.2-7,4.2-12.1c0-5-1.4-9-4.2-12.1
	c-2.8-3-6.6-4.6-11.2-4.6c-4.6,0-8.3,1.5-11.1,4.6C75.6,42.6,74.2,46.5,74.2,51.3z"/>
<path fill="#FFFFFF" d="M136.3,36.7v40.6h-11.9V36.7h-8.1V25.6h8.1v-19h11.9v19h9.3v11.2H136.3z"/>
<path fill="#FFFFFF" d="M162.2,25.6v51.7h-11.9V25.6H162.2z"/>
<path fill="#FFFFFF" d="M166.5,51.1c0-7.5,2.7-13.8,8-19.1c5.3-5.2,11.9-7.9,19.5-7.9c7.7,0,14.3,2.6,19.6,7.9
	c5.3,5.3,8,11.8,8,19.4c0,7.8-2.7,14.2-8,19.5c-5.4,5.2-12,7.8-19.8,7.8c-7.8,0-14.2-2.7-19.5-8C169.1,65.6,166.5,59,166.5,51.1z
	 M178.7,51.3c0,5.2,1.4,9.3,4.1,12.3c2.8,3,6.6,4.6,11.2,4.6c4.7,0,8.4-1.5,11.2-4.5c2.8-3,4.2-7,4.2-12.1c0-5-1.4-9-4.2-12.1
	c-2.8-3-6.6-4.6-11.2-4.6c-4.6,0-8.3,1.5-11.1,4.6C180.1,42.6,178.7,46.5,178.7,51.3z"/>
<path fill="#FFFFFF" d="M225.9,25.6h12v4.8c4.2-4.1,8.9-6.2,14.1-6.2c6,0,10.7,1.9,14.1,5.7c2.9,3.2,4.4,8.5,4.4,15.8v31.7h-12V48.5
	c0-5.1-0.7-8.6-2.1-10.6c-1.4-2-3.9-3-7.5-3c-4,0-6.8,1.3-8.4,3.9c-1.6,2.6-2.4,7.1-2.4,13.5v24.9h-12V25.6z"/>
<path fill="#6ABD45" d="M148.5,11.1c0-2.1,0.8-3.9,2.3-5.4c1.5-1.5,3.3-2.3,5.5-2.3c2.2,0,4,0.8,5.5,2.3c1.5,1.5,2.3,3.3,2.3,5.5
	c0,2.2-0.8,4-2.3,5.5c-1.5,1.5-3.3,2.3-5.5,2.3s-4-0.8-5.5-2.3C149.3,15.1,148.5,13.3,148.5,11.1z"/>
</svg>
