<?xml version="1.0" encoding="utf-8"?>
<!-- Generator: Adobe Illustrator 18.1.0, SVG Export Plug-In . SVG Version: 6.00 Build 0)  -->
<svg version="1.1" id="Layer_1" xmlns="http://www.w3.org/2000/svg" xmlns:xlink="http://www.w3.org/1999/xlink" x="0px" y="0px"
	 viewBox="0 0 146.7 148.2" enable-background="new 0 0 146.7 148.2" xml:space="preserve">
<circle fill-rule="evenodd" clip-rule="evenodd" fill="#C01E23" cx="73.4" cy="74.7" r="68.6"/>
<g>
	<path fill="#FFFFFF" d="M101.2,76.1c0-2.6-2.1-4.7-4.7-4.7c-2.6,0-4.7,2.1-4.7,4.7l0-4.1c0,0,0,0,0,0c0-2.6-2.1-4.7-4.7-4.7
		c-2.6,0-4.7,2.1-4.7,4.7v-3.9c0,0,0,0,0,0c0-2.6-2.1-4.7-4.7-4.7c-2.6,0-4.7,2.1-4.7,4.7V51.7c0,0,0,0,0,0c0-2.6-2.1-4.7-4.7-4.7
		c-2.6,0-4.7,2.1-4.7,4.7v35.5c-2.1-2.7-4.5-6.1-7.6-9.3c-3.4-3.5-7.6-4.4-10.6-2c-1.3,1.1-1.2,3.6-0.1,4.8c2,2.5,7.8,13.2,8.9,15.9
		c0.8,1.9,5.5,11.3,9.4,12.5c1.4,0.4,1.5,2.1,1.5,2.1c0,2.4,1.9,4.3,4.3,4.3h26.2c2.4,0,3.2-1.4,4.3-4.3
		C100.8,108.3,101.2,76.1,101.2,76.1C101.2,76.1,101.2,76.1,101.2,76.1z"/>
	<path fill="#FFFFFF" d="M69,38.7h-1.7c-1.2,0-2-1-1.9-2.1c0,0-0.5-7.8-0.5-7.8c0-1.8,1.4-3.2,3.2-3.2c1.8,0,3.2,1.4,3.2,3.2
		c0,0-0.5,7.8-0.5,7.8C71,37.7,70.2,38.7,69,38.7z M58.1,42.5l-1.2,1.2c-0.8,0.8-2.1,0.8-2.8-0.2c0,0-5.9-5.2-5.9-5.2
		c-1.3-1.3-1.3-3.3,0-4.6c1.3-1.3,3.3-1.3,4.6,0c0,0,5.2,5.9,5.2,5.9C58.8,40.4,58.9,41.7,58.1,42.5z M53.1,52.9v1.7
		c0,1.2-1,2-2.1,1.9c0,0-7.8,0.5-7.8,0.5c-1.8,0-3.2-1.4-3.2-3.2c0-1.8,1.4-3.2,3.2-3.2c0,0,7.8,0.5,7.8,0.5
		C52.1,50.9,53.1,51.7,53.1,52.9z M85.4,51c0,0,7.8-0.5,7.8-0.5c1.8,0,3.2,1.4,3.2,3.2c0,1.8-1.4,3.2-3.2,3.2c0,0-7.8-0.5-7.8-0.5
		c-1.2,0.2-2.1-0.7-2.1-1.9v-1.7C83.2,51.7,84.2,50.9,85.4,51z M78.4,39.7c0,0,5.2-5.9,5.2-5.9c1.3-1.3,3.3-1.3,4.6,0
		c1.3,1.3,1.3,3.3,0,4.6c0,0-5.9,5.2-5.9,5.2c-0.7,0.9-2,1-2.8,0.2l-1.2-1.2C77.3,41.7,77.4,40.4,78.4,39.7z"/>
</g>
</svg>
