<?xml version="1.0" encoding="utf-8"?>
<!-- Generator: Adobe Illustrator 18.1.0, SVG Export Plug-In . SVG Version: 6.00 Build 0)  -->
<svg version="1.1" id="Layer_1" xmlns="http://www.w3.org/2000/svg" xmlns:xlink="http://www.w3.org/1999/xlink" x="0px" y="0px"
	 viewBox="0 0 22.4 13.9" enable-background="new 0 0 22.4 13.9" xml:space="preserve">
<rect x="13.7" y="1.2" fill="#FFFFFF" width="3" height="7.6"/>
<g>
	<g>
		<g>
			<path fill="#FFFFFF" d="M9.3,10.2V1.8h3V10h4.6c0.3,0,0.5,0,0.6-0.1c0.2,0,0.3-0.1,0.4-0.2c0.1-0.1,0.2-0.2,0.2-0.4
				c0-0.1,0.1-0.4,0.1-0.7V1.2h3v7.6c0,0.6-0.1,1.2-0.2,1.6c-0.1,0.4-0.5,1.1-0.5,1.1c-0.4,0.5-0.8,0.8-1.3,0.9
				c-0.5,0.1-1.2,0.2-2.1,0.2H9.3V10.2z"/>
		</g>
		
			<rect x="1" y="1.2" transform="matrix(-1 6.140788e-04 -6.140788e-04 -1 13.2372 4.9256)" fill="#FFFFFF" width="11.3" height="2.5"/>
		<rect x="4.6" y="5" fill="#FFFFFF" width="3" height="7.5"/>
	</g>
</g>
</svg>
