<svg xmlns="http://www.w3.org/2000/svg" viewBox="0 0 522.6 284.2"><path fill-rule="evenodd" clip-rule="evenodd" fill="#C01E23" d="M422.2 55.9c5.7 6.7 16.4 4.2 24.7 1.2 12.5-4.6 25.1-9.2 37.6-13.8 9.3 15.3 15.1 32.7 16.8 50.5-17.8-2.8-33.6 19.8-24.9 35.5 4.1 1.3 8.6.9 12.4-1.1 6.7 1.9 7.9 11.7 3.7 17.2s-11.5 7.5-18.3 8.8c-32.3 6.1-65.7 3.2-97.9 9.8-34.7 7.1-66.6 25.1-101.5 31.4-32 5.8-64.9 1.5-97.1-2.9-53.5-7.2-107.1-14.4-160.6-21.6-5.2-.7-11.9-6.4-7.6-9.4 8.7 1.3 17.7 2.5 26-.3s15.4-11.3 13.6-19.8c-7.8 1.7-16 3.4-23.7 1.1-7.7-2.2-14.5-9.8-13-17.6 1.8-9.2 13.7-16.2 10.6-25-1.9-5.2-8.1-7.3-11.9-11.4C4 80.6 8.9 67 18 61.4s20.5-5.4 31.1-5c35.3 1.2 70.7 2.4 106 3.6 6.5.2 13.3.4 19.2-2.5 8.7-4.3 13-14.1 19.3-21.5 17.2-20.8 47.8-22.9 74.7-23.4 35.2-.7 70.4-1.3 105.5-2 17.9-.3 41.1 3.3 44.7 20.8 1.7 8.3-1.8 18.1 3.7 24.5z"/><path fill-rule="evenodd" clip-rule="evenodd" fill="#FFF" d="M393.6 64.2c4.8 5.5 13.6 3.5 20.5 1l31.2-11.4c7.7 12.7 12.5 27.1 13.9 41.9-14.7-2.3-27.9 16.4-20.7 29.5 3.4 1.1 7.1.7 10.3-.9 5.5 1.5 6.6 9.7 3.1 14.3-3.5 4.5-9.5 6.2-15.2 7.3-26.8 5-54.5 2.6-81.2 8.1-28.8 5.9-55.3 20.9-84.2 26.1-26.5 4.8-53.8 1.2-80.5-2.4-44.4-6-88.8-11.9-133.2-17.9-4.3-.6-9.9-5.3-6.3-7.8 7.2 1.1 14.7 2.1 21.6-.3 6.9-2.4 12.8-9.3 11.3-16.5-6.5 1.4-13.3 2.8-19.7.9s-12-8.1-10.8-14.6c1.5-7.6 11.4-13.4 8.8-20.7-1.5-4.3-6.8-6-9.8-9.4-5.9-6.6-1.9-17.9 5.7-22.6 7.5-4.6 17-4.5 25.8-4.2l87.9 3c5.4.2 11.1.3 15.9-2.1 7.2-3.6 10.8-11.7 16-17.9 14.3-17.2 39.6-19 62-19.4 29.2-.5 58.4-1.1 87.5-1.6 14.9-.3 34.1 2.7 37.1 17.3 1.3 6.8-1.5 15 3 20.3z"/><path d="M34.8 81.4c1.1 0 2.2 0 3.3.2 2 .4 4.4.4 6.3-.5 3-1.4 5.8-4.8 4.5-8.2-1.9-5.1-9.5-7.2-14.2-8.3-2.4-.6-6.1-1.7-8 .4-1 1.1-2 2.9-2.4 4.3-.7 2.5-.5 7 1.7 8.7 1.6 1.3 3.6 2.8 5.7 3.3.9.2 2 .1 3.1.1z"/><path d="M504.8 86.3c-1.2-1-2.9-1.6-4.4-1.8-.4-11.5-4.5-23.3-4.5-23.3s2.3-13.3 1.2-14.4c-1.4-1.4-21.3 4.1-35.7 7.6-3.5.9-10.6 1.6-19.5 2.3-4.5-8.5-23.1-29.4-27.9-33.5C398.5 10 376 8.8 355.5 8c-21.1-.8-78.7-.1-97.9 3.5-15 2.8-44.5 6.6-52 16.6.4-.4.8-.7 1.1-.9 6.3-4.1 34.8-9.1 46.7-10.9 20.2-3.1 40.7-1.6 52.1 5.4 7.4 0 34.1 0 49.4 1 14.7.9 41.8-.6 53 13.2 3.1 3.8 13.6 17.6 17 22.1-1.6.1-3.3.2-4.9.3-3.7-4.9-11.6-15.2-16-20.7-10.1-12.7-33.5-11.5-48.2-12.1-14.6-.6-37.1-1.1-46.9-1.3.2.2.4.3.5.5 15 14.4 15.3 17.9 29.2 35.9-2.5-.2-5.1-.4-7.7-.6-9.3-19-20.9-30.6-26.7-34.8-10.9-7.8-31.9-9-51.6-5.9-1.4.2-2.9.4-4.3.7l.9 1.9s7.6-.7 8.6 0c1.3.9 1.8 5.2 1.3 5.8-.9 1.1-19.6 2.5-20.7 2-1-.6-1.8-5.2-.9-6.1.7-.6 7.9-1.3 7.9-1.3l.5-1.9c-16 2.4-33.8 4.7-38.8 7.8-3.8 2.4-19.8 30.9-20.1 32.3-.4.2-.4.2-.8.3-.6-1.7-1.3-3.3-1.6-3.9-1.5-2.4-3.2-3-5.9-3-2.9 0-5.3 1.9-4.2 5.1.6 1.8 1.6 2.6 2.8 3.3-28.6.2-78.8-1.9-98.8-4.1-10.5-1.2-21.3-1.6-32-1.1-6.1.3-20.4 0-23.5 7-.3.5-.5 1-.6 1.6-.9 3.8.2 8.3.9 12.1.1.1.2.1.3.2 2.6 1.4 4.8 4 7.8 4.7 1.4.3 3.2-.2 4.7-.2 3.9-.2 7.9-.5 11.8-.6h.5c-2 .8-5.7 1.4-13.5 1.8-1.5.1-3.3.6-4.7.2-2.5-.6-4.4-2.5-6.5-4 1 5.7 1.9 12 5.3 16.8 1.8 2.6 4.1 5 5.4 8 1.2 2.8 1.3 5.9 1.2 9 0 0-21.2 4.5-13 14.1 4.5 5.3 21.2 9.5 43.3 13.1 5 14.6 15.3 24.6 27.2 24.6 10 0 18.9-7.1 24.4-18l6 .6c59 6.3 105.2 11 115.3 9.4 3.4-.6 6.7-1.2 9.7-1.9.1.4.2.9.3 1.5 2.2 9.9 7.6 20.1 16.1 26 3.8 2.7 8.9 4.4 13.6 4.4 16.4 0 29.9-18.2 31.6-41.5l7.3-1 115.5-16.8c2.8 12.2 10.2 20.9 19 20.9 11.1 0 20.2-14.2 20.2-31.8 0-1.2 0-2.3-.1-3.5 2.8 1 5.9 2 5.9 2s7.7-1.6 18.4-6.7c3.2-1.5 6.2-5.1 7.5-8.4 1-3.6 3.6-12.2 1-14.4zM25.1 70.5c.3-.9.7-1.9 1.4-2.5.4-.3.9-.5 1.4-.5.5 0 1.1.2 1.5.5.7.6 1.2 1.5 1.5 2.3.3.8.5 1.9-.6 2.2-.8.2-1.8.4-2.6.3-.6-.1-1.3-.1-1.9-.3-.4-.1-.7-.1-.8-.5v-.1c-.2-.5-.1-1 .1-1.4zm2.8 7.6c-2.2 0-3.2-2.7-3-2.9.2-.2 1 1.5 3 1.5 1.8 0 3-1.9 3.1-1.6.1.3-1.2 3-3.1 3zm6.8-.8c-.3.7-.9 1.3-1.5 1.7-.4.3-.9.4-1.4.5-.2 0-.5 0-.7.1-.1 0-.4.1-.5-.1-.1-.2.2-.3.3-.4.2-.1.4-.3.6-.5.3-.3.5-.6.7-1 .1-.2.2-.3.2-.5s.1-.4.3-.4c.2-.1.5 0 .7 0 .3 0 .6-.1.9-.1.2 0 .5 0 .5.2.1.1 0 .3-.1.5zm-1.4-5.6c0-.5-.1-1-.2-1.4-.2-.9-.7-1.6-1.2-2.3-.2-.2-.4-.4-.6-.7-.2-.2-.3-.3-.5-.4-.1-.1-.3-.2-.3-.3v-.1c.1-.1.2-.1.4-.1h.8c.3 0 .7 0 1 .1.9.3 1.9 1.4 2.5 2.8.6 1.4.6 2.9.6 2.9s-2.5.4-2.5-.5zm3.6 2.2c.2-.7.6-1.4 1.1-1.9.3-.2.7-.4 1.1-.4.4 0 .9.2 1.2.4.6.4.9 1.2 1.2 1.8.3.7.4 1.5-.5 1.7-.7.2-1.4.3-2.1.2-.5 0-1-.1-1.5-.2-.3-.1-.5-.1-.6-.4V75c-.1-.3 0-.7.1-1.1zm2.2 6c-1.7 0-2.5-2.1-2.3-2.2.2-.1.8 1.2 2.3 1.2 1.4 0 2.3-1.5 2.4-1.3.1.2-.9 2.3-2.4 2.3zm5.3-.8c-.2.5-.6 1-1.1 1.3-.3.2-.7.3-1 .4h-.5c-.1 0-.3 0-.4-.1-.1-.2.2-.2.3-.3.1-.1.3-.2.4-.4.2-.2.4-.5.5-.8.1-.1.1-.3.1-.4 0-.1.1-.3.2-.3.2-.1.3 0 .5 0h.7c.1 0 .4 0 .4.1.1.2 0 .4-.1.5zm-1-4.3c0-.4-.1-.7-.2-1.1-.2-.7-.5-1.2-.9-1.8-.1-.2-.3-.3-.4-.5l-.3-.3c-.1-.1-.2-.1-.3-.3v-.1c.1-.1.2-.1.3-.1h.6c.2 0 .5 0 .7.1.7.2 1.4 1.1 1.9 2.2s.5 2.2.5 2.2-1.9.4-1.9-.3zm425.3-18.3c.5-1.1 25.9-7 25.9-7-.3 4-1.1 7.2-2.4 11.1-9.5-.3-24.4-1.7-23.5-4.1zM338.2 38.2c4.8-4.5 44.8-4.3 54.8-3.4 6.6.6 15.6 15.3 21.7 23.8-24.4 1.3-50.4 2.2-58.3 2.6-.5 0-1 0-1.5.1-8.4-8-20.3-19.7-16.7-23.1zm36.6 28.3c10.4-.4 20.7-.9 30.5-1.3 0 1.3.3 3.2.8 3.7.6.6 11.9-.3 12.8-.8.6-.4.5-2.3.2-3.6 1.3-.1 2.6-.1 3.9-.2 1.3 6.2 3.2 17 3.4 24.9-9.6-.6-23.8-1-39.2.5-16.7 1.5-32.8 4.6-45.6 7.7-.2-6.3-1.4-14.4-2.6-21.3 29-1.2 54.6-2.5 54.6-3.2 0-.5-25.3-.4-55.1-.1-.4-2.4-.8-4.5-1.2-6.3 15.9.6 31.4.3 37.5 0zm-40-.2c.4 1.8.8 4 1.3 6.4-39.3.4-85.2 1.1-91.5 1.2h-.1c3-2.2 6.4-3.9 9.9-5.2 5.7-2.1 12.5-3.3 18.5-4.5 7.7-1.5 18.7-.8 22.8-.8 6 0 15.5.8 25.6 1.9 4.4.4 8.9.7 13.5 1zm-36.1-9c-1.3-.1-2.6-.1-3.7-.2-7.5-.3-15.8-.8-24.1-1.2 2.6-3 5.8-5.1 9.4-5.9 1.6-.3 3.2-.4 4.9-.3 5.1.6 9.8 3.3 13.5 7.6zm-94.5-21.2c2.5-1.9 14-2.6 17.3-2.7 8.3-.1 67 .1 74.5.6 3.6.2 9.2.4 12.6 1.9 5.9 2.6 14.9 15.9 18.6 23.7-8.4-.8-17.3-1.5-24.3-2-4.5-6.2-10.7-10.3-17.4-11-1.9-.2-3.9-.1-5.8.3-5 1.1-9.4 4.2-12.6 8.8-11.1-.5-22.1-.8-31.2-.7-14 .3-25.9-.2-30.8.2-3.8.3-8.5 1.5-14.4 3.7 4.5-8.3 11.6-21.3 13.5-22.8zm-7 48.7c2.6 0 4.4-2.8 4.6-2.4.2.3-1.7 4.3-4.6 4.3-3.2 0-4.6-4-4.4-4.2.3-.2 1.4 2.3 4.4 2.3zm-4.1-9.2c.4-1.3 1-2.7 2.1-3.6.5-.5 1.3-.8 2-.8s1.6.3 2.2.7c1.1.8 1.7 2.2 2.2 3.4.5 1.2.7 2.7-.9 3.2-1.2.4-2.6.5-3.9.4-.9-.1-1.8-.1-2.7-.4-.5-.2-1-.2-1.2-.7 0-.1 0-.1-.1-.2-.1-.7.1-1.4.3-2zm8.6 12.6c.3-.2.5-.4.8-.7.4-.4.7-.9 1-1.5.1-.2.2-.5.3-.8 0-.3.2-.5.4-.6.3-.1.7 0 1-.1.4 0 .8-.1 1.2-.1.2 0 .7 0 .8.3.1.3-.1.6-.2.8-.4 1-1.2 1.9-2.1 2.5-.6.4-1.2.6-1.9.8-.3.1-.7.1-1 .1-.2 0-.6.1-.7-.2-.2-.3.2-.4.4-.5zm3.3-10.8c0-.7-.1-1.4-.3-2.1-.3-1.2-.9-2.3-1.7-3.3-.2-.3-.5-.6-.8-1l-.6-.6c-.2-.1-.5-.3-.5-.5 0-.1 0-.1.1-.2s.4-.1.5-.1h1.1c.5 0 1 0 1.4.2 1.3.5 2.6 2 3.5 4.1.9 2 .9 4.2.9 4.2s-3.6.7-3.6-.7zm1.8-9.5c-3.2-2.7-9.4-2.7-9.4-2.7s7.8-2.4 11.4.5c1.2.9 4.4 4.4 7.5 6.3 3.2 1.9 9 3.2 9 3.2s-5.5 0-10.3-1.7c-3.1-1.3-5.4-3.2-8.2-5.6zm-24.2 6.6c.1-.1.3-.1.4-.1h.9c.4 0 .8 0 1.1.1 1 .4 2.1 1.6 2.8 3.2.7 1.6.7 3.3.7 3.3s-2.8.6-2.8-.5c0-.5-.1-1.1-.2-1.6-.3-1-.7-1.8-1.3-2.6-.2-.3-.4-.5-.6-.7l-.5-.5c-.1-.1-.4-.2-.4-.4l-.1-.2zm4.6 12.4c-.3.8-.9 1.5-1.6 2-.5.3-1 .5-1.5.6-.3 0-.5 0-.8.1-.2 0-.5.1-.6-.1-.1-.2.2-.3.4-.4.2-.2.4-.3.6-.5.3-.3.6-.7.8-1.1.1-.2.2-.4.2-.6 0-.2.1-.4.3-.5.2-.1.5 0 .8 0 .3 0 .7-.1 1-.1.2 0 .5 0 .6.2 0 0-.2.2-.2.4zm-10.7-7.7c.3-1 .8-2.1 1.7-2.9.4-.4 1-.6 1.6-.6.6 0 1.3.2 1.7.6.8.6 1.4 1.7 1.7 2.7.4 1 .6 2.2-.7 2.5-1 .3-2 .4-3.1.3-.7-.1-1.5-.1-2.2-.3-.4-.1-.8-.1-.9-.6v-.2c-.2-.4 0-1 .2-1.5zm-.3 5.6c.3-.2 1.1 1.8 3.5 1.8 2 0 3.5-2.2 3.6-1.9.1.3-1.4 3.4-3.6 3.4-2.5 0-3.7-3.2-3.5-3.3zM65.5 73.4c3.1-4.8 7.9-7.4 13.2-8 8-.9 93.6-.4 97.5.1-.9.4-12.1 5.9-15.1 9.7-2.8 3.5-30 5.8-51.3 4.8-23.3-1.1-45.2-5.2-44.3-6.6zm46.4 13.4l-2.7 3.9-2.9-4.1 2.8-4.1 2.8 4.3zm-2.4 5.8c19.2.4 37.4-1.5 53.4-5.1-15 6.4-33.3 9.5-53.3 9.1-19.9-.4-38.5-4.3-53.2-11.3 15.8 4.3 33.9 6.9 53.1 7.3zm-49.8 9.7c4.9-2.9 35.3-3.7 51.5-3 11.2.5 45.7 1.8 56.2 6.7 9.6 4.5 25.9 24.2 30.1 29.3l-4-.4c-5.5-6.6-19.1-22.5-26.7-26.8-5.5-3.1-27.5-5.4-55.8-6.6-27-1.2-46.9.4-50.3 2.3-6.1 3.4-10.6 13-13 18.4l-1.6-.1c2-4.7 7.3-16 13.6-19.8zm121.6 26v1.2c0 1.4-1.1 2.4-2.5 2.3h-.5c-1.4-.1-2.5-1.3-2.5-2.7v-6.6c0-1.4.8-1.7 1.7-.7.7.7 1.4 1.5 2 2.2 1.1 1 1.8 3 1.8 4.3zm-9.2-9.4v9.9c0 1.4-1.1 2.4-2.5 2.3h-.5c-1.4-.1-2.5-1.3-2.5-2.7v-13.8c0-1.4.9-1.9 2-1 .5.4 1 .8 1.6 1.3 1.1.7 1.9 2.6 1.9 4zm-9.1-6.2V128c0 1.4-1.1 2.4-2.5 2.3h-.5c-1.4-.1-2.5-1.3-2.5-2.7v-16.1c0-1.4 1.1-2.3 2.4-2 .2.1.4.1.6.1 1.4.3 2.5 1.8 2.5 3.1zm-9.2-2v16.4c0 1.4-1.1 2.4-2.5 2.3h-.5c-1.4-.1-2.5-1.3-2.5-2.7v-16.8c0-1.4 1.1-2.3 2.5-2.1.2 0 .3.1.5.1 1.4.2 2.5 1.5 2.5 2.8zm-9.2-1.3v16.9c0 1.4-1.1 2.4-2.5 2.3h-.5c-1.4-.1-2.5-1.3-2.5-2.7v-17.1c0-1.4 1.1-2.4 2.5-2.2.2 0 .3 0 .5.1 1.4.1 2.5 1.4 2.5 2.7zm-9.1-.9v17.1c0 1.4-1.1 2.4-2.5 2.3h-.5c-1.4-.1-2.5-1.3-2.5-2.7V108c0-1.4 1.1-2.4 2.5-2.3h.5c1.4.2 2.5 1.4 2.5 2.8zm-9.2-.8v17c0 1.4-1.1 2.4-2.5 2.3h-.5c-1.4-.1-2.5-1.3-2.5-2.7v-16.9c0-1.4 1.1-2.4 2.5-2.3h.5c1.4.1 2.5 1.3 2.5 2.6zm-9.2-.5V124c0 1.4-1.1 2.4-2.5 2.3h-.5c-1.4-.1-2.5-1.3-2.5-2.7V107c0-1.4 1.1-2.4 2.5-2.4h.5c1.4 0 2.5 1.2 2.5 2.6zm-9.1-.5v16.4c0 1.4-1.1 2.4-2.5 2.3h-.5c-1.4-.1-2.5-1.3-2.5-2.7v-16.1c0-1.4 1.1-2.5 2.5-2.4h.5c1.3 0 2.5 1.2 2.5 2.5zm-9.2-.2v15.9c0 1.4-1.1 2.4-2.5 2.3h-.5c-1.4-.1-2.5-1.3-2.5-2.7v-15.5c0-1.4 1.1-2.5 2.5-2.4h.5c1.4-.2 2.5 1 2.5 2.4zm-9.2-.2v15.2c0 1.4-1.1 2.4-2.5 2.3h-.5c-1.4-.1-2.5-1.3-2.5-2.7v-14.7c0-1.4.8-2.5 1.7-2.5h2.7c.7-.1 1.1 1 1.1 2.4zm-9.1.1v14.4c0 1.4-1.1 2.4-2.5 2.3h-.5c-1.4-.1-2.5-1.3-2.5-2.7v-13.7c0-1.4 1.1-2.5 2.5-2.6h.5c1.3-.2 2.5.9 2.5 2.3zm-9.2.4V120c0 1.4-1.1 2.4-2.5 2.3h-.5c-1.4-.1-2.5-1.3-2.5-2.7v-12.2c0-1.4 1.1-2.6 2.5-2.8h.5c1.4-.2 2.5.8 2.5 2.2zm-9.2 1.5v10.9c0 1.4-1.1 2.4-2.5 2.3h-.5c-1.4-.1-2.5-1.3-2.5-2.7v-5.2c0-1.4.7-3.4 1.6-4.4.6-.7 1.2-1.3 1.9-1.8 1.1-1 2-.5 2 .9zm-26.7 5.4l-.3 3.6.3-3.6zm64.2 44.8c-7.3 0-13.9-6.1-17.9-15.4 10.7 1.5 22.1 2.8 33.7 4.1-4 7-9.6 11.3-15.8 11.3zm138-13.5c-10 .9-17.1 0-23.5-.6-7.9-.7-176.3-18.1-182.5-19.5-5.5-1.3-5.8-2.5-5.4-4.8.4-2.7 7.1-4.2 7.1-4.2s-5.4 1.9-5.3 4.7c.1 1.6 2.5 2.2 6 2.8 3.8.7 134.3 13.6 183.7 17.4 10.5.8 14.1 1.6 21.5.8 8.1-.8 16-3.9 16-3.9s-6.9 6.3-17.6 7.3zm47.7 35.2c-12.8 0-23.2-17.6-23.2-39.3 0-21.7 10.4-39.3 23.2-39.3 12.8 0 23.2 17.6 23.2 39.3-.1 21.8-10.4 39.3-23.2 39.3zm28.7-75.3S303.2 85.4 283.9 86c-7.1.2-13.5 3-19.1 8.2-9 8.4-12.7 31-12.7 31s-11.6-6.7-17.5-21.6c-3.6-9.2-3-11.9-.4-17.4.5-1.1 1.1-2.1 1.8-3.2-15.1 1.1-16.7 7.4-28.7 12.7-6 2.7-28.6-2.2-33.9-7.5l-.1-.1c6.7 5.8 27.5 5 30.2 4.9 2.5-.1 6.1-.9 8.2-2.6 1.9-1.6 3.6-3.4 5.7-4.9 6.6-4.7 14.1-5 22-5.5 6.3-.4 12.6-.5 18.9-.9 3.5-.2 43.1-1.6 78.6-3.1 1.2 7 2.4 15.3 2.5 21.8-15.4 3.7-25.4 7.1-25.4 7.1zm7.8 30.5c-.8-3.3-1.9-7.8-3.1-12.4.2-.1.5-.2.7-.3 5.8-2.4 11.7-4.6 17.6-6.6-1.1 6.8-2.4 13.1-3.4 17.5-4.7.8-8.8 1.4-11.8 1.8zm14.5-2.1c1-4.8 2.3-11.5 3.4-18 10.6-3.5 21.5-6.2 32.5-8 17.6-2.2 35.3-4.1 53-5.3-1 6.9-2.4 13.7-3.3 18.1-21 3.4-61.2 9.5-85.6 13.2zm94-14.7c-1.7.3-3.8.7-6.1 1.1.9-4.7 2.3-11.7 3.3-17.8 2.2-.1 4.4-.3 6.6-.4-1.5 4.6-2.8 10.3-3.8 17.1zm25.8 25.5c-8.1 0-14.7-12-14.7-26.9s6.6-26.9 14.7-26.9 14.7 12 14.7 26.9-6.6 26.9-14.7 26.9zm19.7-55.3s-7.3-10.5-18.3-10.1c-13.8.5-18.5 11.6-18.5 11.6s-3.9-.5-10.3-1c-.3-7.8-2.3-18.9-3.5-25.2 4.6-.3 9-.5 13-.8 10.2 3.6 15.2 4.4 29.9 7.7 10.7 2.4 27.2-.2 27.2-.2s2 4.6 2 10.7c-.6.3-21.5 7.3-21.5 7.3zm27.2.8c-2 1.3-13 6.1-15.7 8.4-2.5 2.1-2.9 4.1-3.8 6.8-.2-2.2.5-5.2 1.8-7 2.8-3.5 15.1-8.5 17-9.6 1.3-.8-1.3-3.3-1.3-3.3 1 .3 5 2.7 2 4.7z"/><path d="M164 70.2s-40.6 3.4-55 3.7c-14.4.3-35.7-1.8-35.7-1.8s12 4.7 38.3 5.5c41.6 1.3 52.4-7.4 52.4-7.4zM287.7 119.6c-7.5 0-13.5 9.6-13.5 21.4 0 11.8 6.1 21.4 13.5 21.4 7.5 0 13.5-9.6 13.5-21.4 0-11.8-6-21.4-13.5-21.4zM300 141c0 8.7-4.6 15.8-10.3 15.8-5.7 0-10.3-7.1-10.3-15.8 0-8.7 4.6-15.8 10.3-15.8 5.6 0 10.3 7 10.3 15.8zM457.6 102.5c-4.8 0-8.6 6.6-8.6 14.7s3.9 14.7 8.6 14.7c4.8 0 8.6-6.6 8.6-14.7s-3.8-14.7-8.6-14.7zm7.8 14.7c0 6-2.9 10.8-6.6 10.8s-6.6-4.9-6.6-10.8c0-6 2.9-10.8 6.6-10.8s6.6 4.8 6.6 10.8z"/><g><path d="M313 149l117.1-17.1c3.4 11.3 10.7 19 19 20.3-47.3 10.7-110.9 24.7-157.1 34.6 11.5-6.9 18.7-19.6 21-37.8zM71.4 158.1c5.9 6.9 13.4 10.8 21.5 10.8 9.4 0 18.4-5.6 24.8-15.2.7-1 1-2.1 1.3-2.8 47.5 5.1 97.5 10.4 113.5 10.4 2.9 0 5.1-.1 6.7-.4 2.6-.4 4.7-.8 6.6-1.2 2.9 11.2 9.1 20.7 17 26.2 3.5 2.4 7.8 4.1 12 4.7-24.7 5.2-41.4 8.7-43 8.7-16 .2-208.3-22.6-214.7-30.6-2.7-3.5 22.1-7.2 54.3-10.6zM472.8 133.2c23.9 1.3 42.5 2.5 41.5 3.3-.9.8-22.3 5.9-53 12.9 5-3.2 9-8.9 11.5-16.2z"/></g><g><path d="M157.6 276.9h224.1l11.2-63.5H168.8zM159.2 226.1h-41.7l21.8 25.4-30.8 25.4h41.8zM389.1 276.9h41.7L409 251.5l30.8-25.4H398z"/><path fill="#FFF" d="M182 248.4c-.5 0-1-.1-1.5-.1h-3.4l-2 13.4c-.4-.1-.8-.1-1.2-.1H170.5c-.3 0-.6 0-.9.1.7-3.1 1.3-6.1 2-9.1.6-3 1.2-6 1.7-9.1.5-2.9 1-5.8 1.4-8.7l1.2-8.7c1.9.1 3.7.2 5.5.2 1.1 0 2.2 0 3.3-.1 1.1-.1 2.3-.1 3.6-.2l-1 5.7c-1-.2-2-.3-2.9-.4-1-.1-2-.1-2.9-.1h-1c-.5 1.8-.9 3.7-1.2 5.6-.4 1.9-.7 3.8-1.1 5.7l-.2 1h4.9l-.9 4.9zm24.9-22.5c-.2 3.3-.5 6.7-1 10.2-.5 3.4-1 7-1.7 10.7-.2 1.3-.5 2.5-.8 3.8-.3 1.2-.7 2.4-1.2 3.5s-1 2.2-1.6 3.1c-.6 1-1.3 1.8-2 2.5s-1.6 1.2-2.5 1.6c-.9.4-1.9.6-3 .6-1 0-1.8-.2-2.5-.6-.7-.4-1.2-.9-1.6-1.5-.4-.6-.7-1.4-.9-2.3-.2-.9-.3-1.8-.3-2.9 0-1 0-2.1.1-3.2s.3-2.2.5-3.4c.6-3.4 1.4-6.9 2.2-10.4.9-3.5 1.9-7.1 2.9-10.9l5.1.1c-.9 3.5-1.8 7.1-2.7 10.7-.9 3.6-1.7 7.3-2.3 11.1-.2 1.1-.3 2.1-.5 3.1-.1 1-.1 1.8-.1 2.6 0 .7.1 1.3.3 1.8.2.4.5.7.8.7.4 0 .9-.3 1.4-1 .5-.7 1-1.6 1.4-2.8.5-1.1.9-2.4 1.3-3.9s.7-2.9 1-4.5c.3-1.4.5-2.9.7-4.4.2-1.5.5-2.9.7-4.4.2-1.5.4-3 .6-4.6.2-1.6.4-3.2.5-4.9l5.2-.4zm13.4 35.7c-.9 0-1.8-.1-2.7-.1H215c-1.3 0-2.5 0-3.8.1-1.3 0-2.6.1-3.9.2.7-3.1 1.3-6.1 2-9.1.6-3 1.2-6 1.7-9.1.5-2.9 1-5.8 1.4-8.7l1.2-8.7H217.5c.6 0 1.2-.1 1.9-.1-.6 2.4-1.2 4.8-1.8 7.5-.5 2.6-1.1 5.2-1.6 7.9s-1 5.3-1.5 8c-.5 2.6-1 5.2-1.4 7.7 1.4 0 2.7-.1 4-.2 1.3-.1 2.7-.3 4.1-.5l-.9 5.1zm17.3 0c-.9 0-1.8-.1-2.7-.1h-2.6c-1.3 0-2.5 0-3.8.1-1.3 0-2.6.1-3.9.2.7-3.1 1.3-6.1 2-9.1.6-3 1.2-6 1.7-9.1.5-2.9 1-5.8 1.4-8.7l1.2-8.7H234.8c.6 0 1.2-.1 1.9-.1-.6 2.4-1.2 4.8-1.8 7.5-.6 2.6-1.1 5.2-1.6 7.9s-1 5.3-1.5 8c-.5 2.6-1 5.2-1.4 7.7 1.4 0 2.7-.1 4-.2 1.3-.1 2.7-.3 4.1-.5l-.9 5.1zm29.1-8.7c-.2 1.3-.6 2.4-1 3.4s-.9 1.8-1.5 2.5-1.1 1.3-1.8 1.7-1.2.8-1.8 1.1c-.6.3-1.2.4-1.7.6-.5.1-1 .2-1.4.2h-.8c-.3 0-.7-.1-1.2-.2s-.9-.2-1.4-.4c-.5-.2-1-.4-1.6-.7l1.4-6.2c.8.8 1.6 1.4 2.3 1.6.7.3 1.3.4 1.9.4 1 0 1.8-.4 2.5-1.1.6-.7 1.1-1.7 1.3-2.9.1-.8.1-1.7-.1-2.6-.2-1-.7-2-1.5-3.2-.5-.8-1.1-1.6-1.7-2.5-.6-.9-1.1-1.8-1.5-2.7-.4-1-.7-2-.9-3.1-.2-1.1-.2-2.3.1-3.6.3-1.6.8-3.1 1.4-4.3.7-1.2 1.4-2.2 2.3-3 .9-.8 1.9-1.4 2.9-1.8 1-.4 2.1-.6 3.2-.6.9 0 1.9.1 2.8.4.9.3 1.8.6 2.7 1.2l-1.6 6.2c-.3-.5-.7-1-1.1-1.3-.4-.3-.8-.6-1.2-.7-.4-.2-.8-.3-1.1-.3-.4-.1-.7-.1-.9-.1-.5 0-.9.1-1.4.4-.4.2-.8.6-1.2 1-.4.4-.7.9-.9 1.4-.3.6-.4 1.1-.6 1.7-.2.9-.1 1.8.2 2.5.3.8.6 1.5 1.1 2.2.5.7 1 1.5 1.6 2.3.6.8 1.1 1.7 1.5 2.6.4 1 .7 2.1.9 3.3.1 1.4.1 2.9-.2 4.6zm16-4.5c-.5 0-1-.1-1.5-.1h-3.5l-1.6 8.8c1.4 0 2.7-.1 4-.2 1.3-.1 2.7-.3 4.1-.5l-.9 5.1c-.9 0-1.8-.1-2.7-.1H278c-1.3 0-2.5 0-3.8.1-1.3 0-2.6.1-3.9.2.7-3.1 1.3-6.1 2-9.1.6-3 1.2-6 1.7-9.1.5-2.9 1-5.8 1.4-8.7l1.2-8.7c1.9.1 3.7.2 5.5.2 1.1 0 2.2 0 3.3-.1 1.1-.1 2.3-.1 3.6-.2l-1 5.7c-1-.2-2-.3-2.9-.4-1-.1-2-.1-2.9-.1h-1c-.5 2.1-1 4.1-1.4 6.1-.4 2-.8 4.1-1.2 6.1h5l-.9 5zm24.1-11.6c-.2 1.1-.5 2.2-.9 3.3-.4 1.1-.9 2.2-1.6 3.2-.6 1-1.4 2-2.3 2.9-.9.9-1.9 1.7-3.1 2.4.5 2.3 1.1 4.6 1.8 6.8s1.6 4.2 2.6 6.2l-6.2.3L295 250c-.3 2-.6 4-.8 6-.2 2-.5 3.9-.7 5.8h-6c.9-3.7 1.8-7.4 2.5-11.2.8-3.7 1.5-7.5 2.2-11.2.4-2.2.8-4.4 1.1-6.5s.7-4.4 1-6.6c.9-.3 1.8-.4 2.7-.5.9-.1 1.7-.1 2.3-.1.4 0 1 0 1.6.1.6.1 1.2.3 1.9.6.6.3 1.3.7 1.8 1.2s1.1 1.2 1.5 2c.4.8.6 1.8.8 3 .3 1.1.2 2.5-.1 4.2zm-11 9.2c.6-.2 1.1-.4 1.6-.7.5-.3.9-.7 1.3-1.1.4-.4.8-.8 1.1-1.3.3-.5.6-.9.8-1.4.5-1.1.9-2.2 1.2-3.5 0 0 0-.2.1-.6.1-.4.1-.8.1-1.4v-1.8c0-.7-.2-1.3-.3-1.9-.2-.6-.5-1.2-.8-1.6-.4-.5-.9-.8-1.5-1-.7 2.6-1.3 5.1-1.8 7.7-.6 2.6-1.1 5.1-1.5 7.7l-.3.9zm33.9-19.3c-2.2 5.9-4.3 11.7-6.2 17.5-1.9 5.8-3.7 11.6-5.3 17.5l-7.4.1c.5-5.9.8-11.8 1-17.6.2-5.8.3-11.7.3-17.5l6.2-.1c-.6 4.9-1.1 9.8-1.5 14.6-.4 4.8-.8 9.6-1.1 14.5 1.5-4.9 2.9-9.8 4.3-14.6 1.4-4.9 2.6-9.7 3.8-14.7l5.9.3zm7.8 34.5c-.7 0-1.3-.1-2-.1h-2c-1.1 0-2.2 0-3.3.1-1.1 0-2.2.1-3.3.2l1-5.3c.4.1.7.1 1.1.1.4 0 .7.1 1.1.1.5-2.5 1.1-5.1 1.6-7.6s1-5 1.5-7.6c.3-1.7.6-3.4.8-5 .2-1.6.5-3.3.7-5h-1.3c-.4 0-.9 0-1.4.1l1-5.1c1.2.1 2.5.1 3.8.2 1.3 0 2.5.1 3.8.1h2.8l-1 4.9h-2.2c-.8 3-1.4 5.9-2 8.8-.6 2.9-1.2 5.8-1.7 8.8-.5 2.6-.9 5.1-1.2 7.7h1.6c.5 0 1.1 0 1.7-.1l-1.1 4.7zm18.7-.3c-.7.3-1.4.5-2 .7-.7.2-1.2.3-1.7.4-.6.1-1.2.1-1.7.1-.6 0-1.2-.1-1.9-.3-.6-.2-1.3-.6-1.9-1.1-.6-.5-1.1-1.2-1.6-2.1s-.9-2-1.1-3.4c-.3-1.4-.4-3-.3-4.9 0-1.9.3-4.1.7-6.6.4-2.5 1-4.7 1.7-6.6.7-1.9 1.4-3.5 2.2-4.8.8-1.3 1.6-2.4 2.5-3.3.9-.9 1.7-1.5 2.5-2s1.6-.8 2.3-1c.7-.2 1.4-.3 1.9-.3s.9.1 1.4.1c.4.1.8.2 1.2.4.4.2.7.4 1 .7l-1.4 4.9c-.4-.2-.8-.4-1.2-.5-.4-.1-.8-.2-1.1-.2-.7 0-1.3.2-1.9.6-.6.4-1.1.9-1.6 1.5s-.9 1.3-1.4 2.1c-.4.8-.8 1.6-1.1 2.4-.7 1.9-1.4 4-1.8 6.4-.4 2.4-.5 4.5-.4 6.4 0 .8.1 1.6.3 2.3.1.8.3 1.4.6 2 .3.6.7 1.1 1.1 1.4.5.4 1.1.5 1.8.5.8 0 1.7-.3 2.8-.8l.1 5zm16.5-12.5c-.5 0-1-.1-1.5-.1h-3.5l-1.6 8.8c1.4 0 2.7-.1 4-.2 1.3-.1 2.7-.3 4.1-.5l-.9 5.1c-.9 0-1.8-.1-2.7-.1H368c-1.3 0-2.5 0-3.8.1-1.3 0-2.6.1-3.9.2.7-3.1 1.3-6.1 2-9.1.6-3 1.2-6 1.7-9.1.5-2.9 1-5.8 1.4-8.7l1.2-8.7c1.9.1 3.7.2 5.5.2 1.1 0 2.2 0 3.3-.1 1.1-.1 2.3-.1 3.6-.2l-1 5.7c-1-.2-2-.3-2.9-.4-1-.1-2-.1-2.9-.1h-1c-.5 2.1-1 4.1-1.4 6.1-.4 2-.8 4.1-1.2 6.1h5l-.9 5z"/></g></svg>