<svg xmlns="http://www.w3.org/2000/svg" viewBox="0 0 476 598"><path fill-rule="evenodd" clip-rule="evenodd" fill="#FFF" d="M36 446.4c17.7-5.4 35.2-11.4 52.5-18.1 21.5-8.3 44.9-20 52.6-42.5 5.7-16.7.9-35.5-7.1-51.2s-19.2-29.5-27.5-45c-15-28.2-19.8-60.8-22.7-92.8-2.5-28-3.7-56.9 3.9-83.9 11.1-39.7 41.9-72.9 79.8-86.1s81.7-5.9 113.8 18.8c48.4 37.4 64.2 110.5 43.5 169.2 12.9-1.6 24.6 10.7 26.6 24.1 2 13.3-3.5 26.7-10.8 37.9-7.3 11.2-16.5 21-23.4 32.4-20.7 34.5-16.3 83.1 10.4 113 3.2-18.3 25.9-26.7 43-21s29.5 20.7 40.9 35c11-13.2 27.5-21.4 44.3-22 5-.2 10.9.8 13.2 5.4 3.3 6.5-3 13.5-7.7 19.1-19.3 22.6-17 56.2-19.8 86.2-1 10.9-3.7 23.1-12.6 28.9-8.4 5.5-19.3 3.4-29.2 4.5-13.7 1.6-25.8 9.5-38.4 15.2s-27.9 9.1-39.7 1.8c-5-3.1-9-7.9-14.5-9.7-13.2-4.5-24.7 9.3-36.6 16.7-22.9 14.4-52.5 5.3-76.4-7.2s-48.2-28.4-74.9-26.8c-13.3-10.9-12-32.3-21.1-47.1-4.2-6.7-10.3-11.8-16.4-16.7-16.8-13.7-33.5-27.3-50.3-41"/><g fill-rule="evenodd" clip-rule="evenodd"><path d="M181.2 131.3c-10.5 1.5-26-3.7-40.3-2.2-8 .8-14.4 4.2-20.5 5.9-3.4 2.8-7.8 8.2-11.7 8.1 10.3-20.9 48.7-20.3 72.5-11.8zM295.5 140.8c-5.7.8-9.7-4.6-15.4-6.6-15.2-5.2-34.9-3-52.8 0 17.2-8.3 59.1-10.3 68.2 6.6z"/><path d="M178.3 140c-8.7 1.9-18.1-3-27.8-2.2-17.5 1.4-28.9 11.3-38.8 19.8 6.7-23.1 42.4-28.1 66.6-17.6zM311.6 134.2c-.1.9.2 1.3.7 1.5-1.3 3.3-5.6 2-7.3 0 .8-3 4.3.5 6.6-1.5z"/><path d="M192.9 154.7c-24.8 1-58.1-12.7-72.5 7.3-2.1 2.9-1.7 8.7-6.6 10.3 2.4-10.8 9.8-16.6 16.9-22.7 20.3-5.5 42-.2 62.2 5.1z"/><path d="M184.9 179.6c-16.4-.1-34.6-5.7-50.6-2.9-6.3 4.5-11.3 10.2-13.2 19-10-4.6 2.4-15.1 1.5-24.2 1.6-1.1 3.1-2.2 5.9-2.2-1.6-2.8.9-3.9 1.5-6.6 11.9-3.5 23.9-2.9 36.6 1.5 1.8.1 3.6.1 3.7-1.5 5.6 4.4 13.9 6.1 15.4 14.7-1 .1-.7 1.4-.8 2.2zM236.2 190.6c-4.7 9.9-12.3 23.2-4.4 33.7-1.2 3-4 4.3-5.9 6.6 3.9 12.4 12.1 20.6 15.4 33.7.2 1.7 2.3 1.6 2.9 2.9 4.9 15.9-13 14-16.9 23.4-13.4 7.1-26.5-3.9-27.8-13.2 4.3 1.3 7.6 3.6 13.9 2.9 2-7.2 8.3-13.3 8.8-20.5.4-6.1-5.3-11-5.9-17.6-.4-4.4 2.1-9 2.2-13.2.1-7.3-2.9-13.8-.7-21.2 5.7-5.7 9.3-13.7 13.9-20.5 3.1-.5 3 2.1 4.5 3zm-14 55c2.8.6 2.8-3.5 0-2.9-1.2 1.4.1.9 0 2.9zm3 24.1c4 .6 7.9 1.4 11 2.9 1.3-2.1 3.6-3.2 2.9-7.3-4.2-2.1-4.6-8.1-9.5-9.5-1.7 4.4-3.7 8.6-4.4 13.9zm-1.5 9.6c1.5-1.5 5.6-.2 5.1-3.7-1.7-1.8-7.7 1.2-5.1 3.7z"/><path d="M276.5 195.7c-7.1.5-13.4-4.1-20.5-2.9-7.7 1.2-12 7.4-17.6 11.7-1.4-2.2 3.1-6.4 5.9-8.8 3.7-3.3 9.2-4.9 12.5-7.3 8.9 0 17.8.1 19.7 7.3zM186.3 191.3h1.5c3.4 1.4 6.1 6.1 8.1 9.5 1.6 2.8 4.5 7.3 5.1 10.3 1.7 7.6-4.2 16.5 1.5 23.4-10.6-2.1-3.3-13-3.7-19.1-.5-9.8-11-15.1-12.5-24.1zM176.8 204.5c-6.9-2.8-13.5-8.3-22-8.1-9.4.3-15.9 6.7-22.7 10.3 4.7-19.1 36.5-17.8 44.7-2.2z"/><path d="M278.6 212.6c-4.5-1.7-4.7-7.5-9.5-8.8-2.5 2.4-2.8 7-5.1 9.5 3.6.6 3.8-2.1 7.3-1.5-5.5 11.1-20.8 1.2-24.2-5.1-4.8.8-3.6 7.6-11 5.9 5.8-10 24.9-19 37.4-10.3 2.5 1.8 6.1 6.3 5.1 10.3zm-18.3 0c1.3-2 4.8-4.5 2.9-7.3-3.2 0-1.8 4.5-5.1 4.4-3.1-.6-3.4-3.9-6.6-4.4-.6 6 4.5 6.2 8.8 7.3zM180.5 212.6c-4.1 5.1-9.6-4.9-14.7-5.9-2.4 5-2 12.6-10.3 11.7-2.7.1 0 2.9-1.5 2.9-5 .4-8.8-.5-9.5-4.4 3.1-.4 3.2 2.1 6.6 1.5-.7-1.6-4-6.7-5.1-10.3-3.4 5.4-10 7.6-15.4 11-4.5-1.1-9.2-2.1-11-5.9 3.3-1.1 7.2 1.6 11 2.2 2.6-.2-.1-2 1.5-2.2 1.6-.6 2.9-1.5 5.1-1.5 6.2-5.9 13.2-11 24.2-9.5 8.2 1.2 13.3 7.8 19.1 10.4zm-19.8-2.2c-.4 2-2.8 2.1-4.4 2.9-2.5-.7-3.2-3.2-5.9-3.7-3.9 6.5 14.1 8.6 10.3.8z"/><path d="M173.9 216.2c-.9 2.5-5.8 1.1-8.1 2.2-.2-3.4 5.8-3.5 8.1-2.2zM275.7 224.3c-1.5 6.1-20 2-25.6 4.4-3.9-1.2-7.3-2.9-11-4.4-.1-.9.2-1.3.7-1.5 10.4 2.1 26 2.2 35.9 1.5zM175.3 225.8c-6.4 5.1-23.4 11-32.2 4.4 2.1-2.8 7.5.4 11 .7 7.5-.8 15.2-9.8 21.2-5.1zM191.5 248.5c1.5 4.1-2.2 8.9-5.9 10.3-.9-3.6 2-9.1 5.9-10.3zM33.2 267.5c-3.9 2.1-12.6 1.8-11.7-5.1 4.5-1.6 10.1 1.4 11.7 5.1zM178.3 266.8c4.4.5 3.6 6.2 7.3 7.3 3-3.8 14.8-2.5 12.5 2.9-2.6.1-11.9-3.4-11 2.2-5.3-1.7-7.9-6.2-8.8-12.4zM169.5 267.5c-6.5 9.4-9.7 22.1-16.9 30.8-1.3 3.6 2 7.7-2.2 8.8-.8-5-2.5-9.2-5.1-12.5 1.7-2.4 1.1-2.4 0-5.1 2.1-.6 1.9 1 3.7.7-.3-2.6-2-2.7-.7-5.1 1.2-2.2 6.8-.1 5.1-5.1 8.7-.8 7.8-11.2 16.1-12.5zM18.5 281.5c4.7 2.7 12 2.6 13.9 8.1-6.5.3-9.1-3.1-14.7-3.7 0-1.9 0-3.6.8-4.4zM117.5 281.5c11.8 15.3 16.2 38 21.2 60.1-4.3-4.8-7.5-14.5-6.6-22-5.5-12.6-7.5-24.6-15.4-35.2.6-.7.8-1.7.8-2.9zM39.8 307.8c-7.8 5.6-19.6-2.5-29.3-2.2-.6-2.5.8-3.1 1.5-4.4 9.2 2.2 18.6 4.3 27.8 6.6zM264.7 303.4c.3 3-.7 4.7-1.5 6.6-2.1 1.1-5.6.7-8.1 1.5-14 16.5-25.4 36.2-50.6 32.2-12.4-1.9-25-9.8-30.8-18.3-2.4-3.6-2.4-8.9-6.6-12.5-2.5-2.2-9.6-2.1-8.8-7.3 21 3.7 57.7-3.5 81.3 0 5.8.9 10.5 3.5 14.7 2.9 4.2-.5 6.8-4.9 10.4-5.1zm-88.6 8.1c1.3 4.1 6.3 4.5 8.8 7.3 2.7.7 3.9-1.3 5.1 0 13.4 7.1 40.3 3.8 52.8-1.5.8-2.6 3.8-3.7 2.2-6.6-20.9-1.1-49.1-3.2-68.9.8zm21.2 22.7c-4.1-.5-8-4.5-11-1.5 10.1 8.8 40.6 12.9 45.4-1.5-9.6 2.4-23.1 4.5-34.4 3z"/><path d="M249.3 330.5c-4.6 12.2-13.8 19.9-21.2 29.3-6.7.1-11.6 4.9-18.3 3.7-1.4-.3-7.2-2.4-10.3-3.7-3.3-1.4-9.3-4.3-9.5-8.1 23.6 11.1 49.6-1.5 57.1-21.2h2.2zM457.4 408.9c.2 4.1-1.9 5.9-4.4 7.3.6 7.5-5.5 18.3.7 24.9.7 2.9-3.9.5-4.4 2.2-8 13.5-8 31.5-11 48.4-1.3 7.3-5 13.9-5.1 21.2-.1 5.2 2.4 10.1-.7 14.7-9.3-2.2-3.1-19.9-9.5-24.9-.1-3-.1-6 1.5-7.3-9.3-8.6 1.5-22.4.7-33-.6-7.8-10-21.5-13.9-28.6-5.4-9.7-9.8-18.8-13.2-28.6 2.6-.6 2.8-3.5 4.4-5.1 6.3 5.9 8 16.4 13.2 23.4 3.7-8 6.3-17.1 11-24.2 6.4-7.2 40.9-20.7 41-2.9 0 5.8-6.3 9-10.3 12.5zm-35.9 15.4c5 6.9 10.7 15.5 12.5 24.9.7 3.8-2 8.5 2.9 10.3 2.3-6.1 2.2-12.4 5.1-18.3 1.5-3 4.4-3.9 5.1-7.3.4-1.8-.8-4.4-.7-6.6.4-7.2 4.9-13.9 3.7-22.7 5.6-1.7 8.7-5.9 11-11-19.9-4.6-39.3 8.6-39.6 30.7zm8.1 40.3c1.1-.6 1.1-2.4 1.5-3.7-1 0-1.6-.3-2.2-.7-.6.6-2 5.1.7 4.4zm2.2 24.9c4.6-3.2 2.9-13.7 1.5-19.1h-2.2c1.8 5.8-.5 14.4.7 19.1zM392.2 400.9c.4 3.4-2.5 3-4.4 2.2.6-1.6 1.8-2.6 4.4-2.2z"/><path d="M434.7 427.3c3.3.4 5.2 2.1 5.9 5.1-3.4-.3-5.8-1.6-5.9-5.1zM382 450h2.2c7.1 13.4 20.5 20.5 27.1 34.4-1.6 6.6.2 7.9.7 11.7-5.9.5-4.2-6.5-10.3-5.9-.4-4.9-2-7.9 0-11.7-4.4-11.7-14.4-17.7-19.7-28.5zM390 477.1c4.7.4 6 7.5 5.9 10.3-4.3-1.2-4.2-6.6-5.9-10.3zM360.7 482.2c6.3 4.4 10.4 11.1 17.6 14.7 0 6.4 5.4 11 3.7 16.9-6.7-1.3-6.9-8.4-9.5-13.2-3.5-6.2-10.7-10.7-11.8-18.4zM355.6 503.5c4.4.4 7 5.9 5.9 9.5-3.5-1.7-4.4-5.9-5.9-9.5zM343.1 520.3h2.2c1 4.3 6.8 12.9.7 15.4-5-.8-3.8-10.8-2.9-15.4zM379 524.7c1.7-.2.8 2.1 2.2 2.2-1.6 10.6-4.7 18.2-5.1 27.8-11.1-3.7 2.3-19.9 1.5-27.8-.4-1.6 1.4-1 1.4-2.2zM212 436.8c.6 3.6-7.1 5.1-7.3 10.3 5.5.9 7.2-10.2 13.2-9.5 6.8.8 9.2 20.6 5.9 29.3 5.2 4.5 22.3-3.5 24.2 3.7-7.6 1.9-17.7.1-24.9-.7-3.5 1.9-4.1 10.1 0 11.7 2.1-.6-.4-2.4 0-3.7 9.1 5.2 12.6 16.1 18.3 24.2 4.1 5.8 10.2 10.5 11 18.3-4.3-2.9-6.4-8.2-9.5-12.5-3-4.1-5.8-8.4-9.5-11.7 7.8 11.2 3.6 32.1 12.5 43.2-.8 3-3.2.2-5.9.7.3 8.9-1.8 10.2-2.2 17.6-8.9 2.1-8.7-6.3-11-11.7-3-7.2-10.5-13.5-12.5-18.3-12.3-3.3-16.8-14.4-23.4-23.4-5.7 5.2 4.1 17.6 8.8 22 5.3 4.9 12.7 7.9 17.6 14.7 4.8 6.8 8.3 13.6 11.7 19.8-8.4-5.1-9.3-14-15.4-21.2-7.6-9.1-20.2-12.5-24.9-24.9-2.3.2-1.2 3.6-1.5 5.9 6.5 4.6 11 12.7 17.6 19.1 5.7 5.5 11.7 6.7 11 13.9-5.7-.9-5.2-8-11-8.8-1.6 2.8 5.1 3.6 3.7 8.8-11.3-2.9-13.3-15.1-22.7-19.8-3.9 2.7-1.2 12-7.3 12.5 2.8-15.6 5.9-30.5 8.1-44.7-8.4 6.2-21.4 14.2-27.1 25.6-4.7-1.4.1-4.9-.7-8.8 13.3-14.8 34-22.2 41.8-42.5 3.2.5-.5 3.4 2.2 4.4 5.1-.9 1.5-5.7 0-8.1-7.6-1.7-18.8 4.7-19-4.4 5.9.7 10.1 3.1 16.9 2.9-4.8-14.7-1.5-28.1 11.3-33.9zm-9.6 19.8c5.4-4.4 11.5-8.1 15.4-13.9-5.9.5-14.7 8.1-15.4 13.9zm14.7-4.4c-3.9 6.4-12.1 8.4-13.2 17.6 5.1-1.5 6-7.1 9.5-10.3 3.4-1 6.1-2.7 6.6-6.6-1-.2-1.4-1-2.9-.7zm-11 22.7c4.1-1.6 11.7-5.8 11.7-13.9-5.7 2.7-10.5 6.5-11.7 13.9zm-1.5 6.6c-.3 2.3.6 3.3 2.9 2.9 1.8-2.6.2-4.2-2.9-2.9zm6.6 0c1.9 7.8 9.3 10.2 15.4 13.9-3.2-6.1-8.2-14.1-15.4-13.9zm-7.3 11c-.6-2.1 1-1.9.7-3.7-1.4-1-2.1-2.8-4.4-2.9-1.7 2.6-.8 7.8 3.7 6.6zm-11.7 5.8c5.7 5.8 11.4 11.6 16.9 17.6 11 .9 13.2 10.8 21.2 14.7 2.5-9.5-13.4-25-23.4-23.4-2.2-4.6-12.3-20.8-14.7-8.9zm19 6.6c11.8-1.5 12.1 12.2 19.8 12.5.1-6.6-7.1-11.9-10.3-17.6-5.3.9-7.2-1.6-11.7-1.5-.5 3.5 1.1 4.9 2.2 6.6zm4.4 19.8c-.3-3.6-3.5-4.3-6.6-5.1.8 3.2 3.3 4.5 6.6 5.1z"/><path d="M334.3 93.9c-.4 2.7-3.6 2.7-3.7 5.9 4.7 32.8-1.1 56.2-6.6 84.3 2.7 2.6 10.3.5 13.2 2.9.2 1.7.8 3.2 2.2 3.7-1 11.2.5 20 .7 30 .4 14.4-6.1 22.1-8.1 36.6-1.7 12.6-8.3 20.9-16.9 28.6-3.1 0-4.7-1.4-7.3 0-3.1 16.3-1 35.4-8.1 50.6-2.3 4.8-6.2 6.7-6.6 11.7-.3 3.4 3 8.5 1.5 12.5.7 1.5 2.8 1.6 5.1 1.5 8.5 12.5 21.1 20.9 30 33 3.8.6 5.3 3.5 9.5 3.7 2-3 .6-4.9 1.5-8.8 10.1-20.2 57.9-3.5 60.1 10.3-9-3.9-26.5-14.4-40.3-16.1-14.2-1.8-19.8 8.9-16.1 23.4 7.9 5.6 23.2 3.7 27.1 13.2 2.4-.3 1.2-4.2 1.5-6.6 3.5 2.9 1.9 7.6 2.9 11 2.2 7.3 15.8 24 24.2 30.8 4.5 3.6 14.6 4.2 16.1 11.7-22.1-7.5-33.8-25.3-45.4-43.2-9.1-5-18.1-10.2-27.1-15.4-12.8 2.5-19.2 15.2-13.9 28.6 1.7 4.3 7.8 5.5 11.7 8.8 5.3 4.4 10.7 12 16.9 17.6 6.8 6.2 15.7 10.4 16.1 16.9-10.4-5.4-22.1-14.6-30-24.2-1.8-2.2-2.3-5.5-4.4-7.3-7.4-6.7-27.1-13.4-32.2 0-1.5 26.9 24.5 30.2 30 47.6-12.4.3-19.7-30.6-34.4-27.8-4.7.9-5.2 6.8-9.5 9.5 1.9 4.8 0 10.5 1.5 15.4 2.3 7.5 11.1 12.3 13.2 19 1.8 1.9 5.7 1.6 6.6 4.4.6 4.5-3.1 4.7-4.4 7.3 1.3 2.6 2.7 5.1 4.4 7.3-3.2 6.9 1.2 14.3.7 19.8-5.1 1.5-8.7-3.7-10.3-8.1-9.1.2-12.2 6.3-21.3 6.6-3 5.8-14.1 3.4-14.7 11.7-7.8 1.6-11.7 3-16.1 7.3-4.4-.5-4.2-5.5-5.9-8.8 11.1-38.2 25.9-77.1 37.4-117.2 6-20.8 13-44.7 10.3-68.1-4.5.6-5 5.3-7.3 8.1-3.1 3.8-7.9 6-11.7 9.5-13.4 12.5-25.2 25.8-43.2 34.4-6 2.9-12.3 4.6-18.3 8.1-4.2-4.4-10.1-7-13.9-11.7-28-12.5-48-33.1-66.7-55 1.8 25.8-.5 53.4 1.5 78.4.7 9.2 4.4 17.9 1.5 26.4 1.1 1.1 1.5 2.9 2.2 4.4-1 18.2 7.8 42.2 9.5 60.1-9.8 2.4-12.3-8.7-18.3-12.5-4.6 1.1 1 6.3-2.2 8.1-4.4-1.1-7.4 2.4-11 2.2-7-.4-8.8-6.9-15.4-8.8-.2-2.6 3.4-1.4 2.9-4.4-3-5.3-5.4-11.2-8.8-16.1 3.4-8.8-5.6-13.9-4.4-20.5-1.8-1.5-3.8 1.6-7.3.7-4.4-4.9-9.5-9-13.9-13.9.1-3.1 4.1-2.2 5.9-3.7-4.7-1.8-10.2 2-13.2 4.4-2.8-.9-4.6-2.7-7.3-3.7 2.5-4-1.1-6.7 1.5-11.7-3.5-2.6-5.3 1.8-8.8 1.5 1.1-4.2.1-4.6-2.2-6.6-.9-3.3 2.6-2.3 2.9-4.4-2.8-1.8-3.4-4.3-2.2-7.3 0-2.9 5.4-.5 5.1-3.7-6-5.7-12.7 4.8-18.3 6.6-2.4-4.9-8.7-6-16.9-5.1-2.6-4.1-2-9.1 0-13.2 11.7-2.7 23.4-5.5 33-10.3 17.1-4.2 40.3-8.5 49.1-23.4 11.6-8.6 20.8-19.7 32.2-28.6-12.9-19.8-18.3-42.8-23.4-69.6-2.5-.9-5.6-1.3-8.1-2.2-3.4-4.4-7.9-7.7-8.1-15.4-5.2-12.2-15.5-20.1-16.1-38.1-.4-9.8 2.2-19.6.7-29.3-.9-6-5.8-11.3-2.9-19.8 3.5-1.9 5.9-.5 8.1-1.5-2.6-14-7.2-31.7-10.3-49.1-2.7-15.6-11.8-32.3 3.7-39.8 1.7-8 8.4-11.4 11-19.1 3.1-9.3.9-17.5 6.6-24.9 5.4-7.1 15.1-13.6 21.2-19.8 2.9-2.9 4.9-8.2 8.1-10.3 1.6-1.1 4.6-.6 5.9-2.2 2.8.1 4.6.1 5.1.7 14.3-5.5 29.1-16.9 48.4-14.7 12.4 1.5 26.9-.8 39.6-1.5 1.7 1.5 3.4 2.9 5.1 4.4 29.2 5.3 60.6 8.2 74.7 28.6.7 25.9 27.6 25.6 29.3 50.6.3 2.2 2.8 2.2 4.3 3.1zM170.9 22.8c4.3 1.6 13.9 1.6 16.9-2.2-3.5-4.7-14.6-2.7-16.9 2.2zm52.8 19.8c-5.8-7.1-15.9-15.3-27.8-11.7-.1 2.1.6 5-1.5 5.1-2.7-.2-3-2.9-6.6-2.2.3 2.8-.3 4.6-2.2 5.1-2.3.1-2.4-1.9-5.1-1.5-1.5.7-1.2 3.2-3.7 2.9-6.8-1-12 4.1-19.8 4.4 1.8 4.5 2.6 10.1 10.3 8.8 1.1-10.5 12.8-7.2 20.5-6.6 2.7-4.3 9.4-8.1 13.9-8.1 11.9.1 12.6 20 24.9 17.6 1.3-3.7-5.9-8.3-2.9-13.8zm-105.5 5.1c5.2 2.1 9.5-2.6 12.5-5.1-4.1-5.3-11.3.8-12.5 5.1zm151.7 5.2c1.2 1.3 2.2 2.7 2.2 5.1 6.6-.8 9.2 6.4 14.7 4.4-.5-8.8-9.7-16.3-16.9-9.5zm-120.2 5.8c-2.5 1.3-5.2.4-7.3-.7-1.3.9 0 4.4-2.2 4.4-2.6-.1-4.2-1.1-6.6-1.5-1.7 4.4-5.5 6.7-11 7.3 1.9 5 9.8-.2 15.4 1.5 4-4.8 13-4.6 18.3-8.1.1-3.4 2.4-4.4 2.2-8.1-2.4-1.8-6.7-1.6-10.3-2.2-1.8 3.3 2.2 3.4 1.5 7.4zm102.6-3.6c4 2.6 5.3 7.9 11 8.8-.8-5.1-5.9-15.3-11-8.8zm16.1 3.6c0-2.6-1.8-3.5-2.2-5.9h-3.7c.3 3.7 2.8 5.1 5.9 5.9zm-87.2 15.4c-2.6-.4-4.4-4.4-6.6-2.9-.4 2.8 1.3 3.6.7 6.6-1.7.5-3.7.7-5.1 1.5-1.4 1 1.5 3.9-1.5 4.4-6.9 1.7-11.9-7.9-17.6-7.3 1.1 3.5 5.8 6.7 3.7 11-7.7.9-9.7-7.9-17.6-8.1-3.6-.1-7.3 3.4-11 3.7-9 .7-14-3.5-19.8-10.3-3.4.7-3.5-1.8-6.6-1.5-1.2 2.7-.7 7.1-1.5 10.3 19.8-1.2 34.2 8.6 38.1 25.6-11.9.1-11.1-18.6-26.4-17.6-.4 5.5 2.9 7.3 5.1 10.3-4.4 2.7-2.3 11.9-8.8 12.5-.5 2.2.8 2.7.7 4.4-.8.6-2 1-3.7.7 4 6.5-3.4 8.9-7.3 11.7-4.5-4.3-12.3-5.3-17.6-8.8-1.1 2.6 1.3 5.3 1.5 8.8 9.3-4.1 14.8 6.7 19.8 11.7-2.4 5.3-2.5 10.6-1.5 17.6-2.3-.4-2.6 1.3-5.1.7 3.6 4 6 9.7 5.1 14.7-.6 2.6-5 1.4-5.1 4.4.5 3.9 5.6 3.2 5.9 7.3.8 3.2-2.5 2.4-2.2 5.1-1.6 10.7 5.1 19.9 6.6 27.1-12-2.6-12.2-23.5-26.4-26.4-2.4 16.3 22.3 20.8 25.6 37.4 1.3 6.3-.3 13 0 19.1.8 17.3 8.6 35.5 11.7 50.6 2.6 12.2 3.9 25.6 8.1 38.1 8.9 27 35.3 51.9 55.7 65.2 13.8 9 34.8 7.4 52.8 7.3 12.5-4.4 17.8-15.1 26.4-25.6 5.7-7.1 10.9-14.8 15.4-21.2 1.6-21.7 5.9-41.9 5.9-61.5-4.6-.2-5.9 2.9-10.3 2.9.4-2.3-1-2.9-1.5-4.4-8.3-2.2-11.4-9.6-15.4-16.1 6.9-1.7 9.4 7.1 14.7 9.5 4.1-5.7 11.9-7.6 17.6-11.7 9.3-19.3 18.6-39.4 19.8-61.5-5.8-5.6-12.3 2.7-18.3.7 3.4-4.9 12.1-4.5 15.4-9.5-5.4-.4-12.3 7-14.7.7 1.2-2.7 6.5-1.3 8.1-3.7-1.6-6.4-.8-16.5-.7-21.2-7.8.3-9.5-5.7-13.2-9.5-11.9-1.6-24.4 2.3-37.4 3.7-2.2-1.2-3.1-3.7-4.4-5.9 2.3-2 2-6.8 5.1-8.1 1.7.7 1.2 3.7 3.7 3.7 7.5-9.5 36.8-12.9 44 .7-1.1 3.5-.5 7.2 2.2 8.8 10.9-20.5-18.4-30.8-38.1-28.6-5.8.6-10.4 5.7-13.9.7 18.8-7.2 39.7-1.3 54.2 7.3 2.5-9.2-10.1-14.4-19-16.1-14.6-2.7-33.8 4.6-46.9.7 21.8-4 51-7.7 66.7 4.4 2.3-3.8-1.8-9.6 2.2-11.7 3-.3 2.3 3.1 4.4 3.7 2.6-3 7 .2 11-1.5-.2-9-11.2-6.5-15.4-12.5-1.5-2.1-2.5-5.1-2.2-8.8-2.1.2-3.7-.2-4.4-1.5 1.1-2.1 4.9-1.4 5.1-4.4-6.2-1.2-8.9 3.7-13.2 2.2.2-1.4-.8-1.6-.7-2.9 4.4-3.1 9-7.7 16.9-5.1 4.3-6.8 12.2 1.7 19.1 1.5 3.5-2.6 8.7-14.9 2.9-17.6-1.9 11.9-16.3 10.2-26.4 8.8 2.7-2.2 5-4.8 6.6-8.1-.5-3.2-3.8-3.5-4.4-6.6-2.9 1-6.4 1.5-8.1 3.7 1.3.4 4.3-.9 4.4.7-3.4 1.6-7.4 9.7-11.7 3.7 1.5-1.4 3.8-2.1 5.9-2.9.5-2.3-2.5-.9-1.5-3.7 3.1-.6 5.3-2 8.1-2.9-1.5-1.8 1.5-7.1 0-7.3-5 2.1-7.5 6.6-12.5 8.8-1.5-.7-.6-3.8-2.9-3.7-2.2 12.7-15.6 14.2-18.3 26.4-1.7 0-2.2-1.3-4.4-.7-1.3.4.1 3.5-1.5 3.7-5.6 1.1-7.5.1-11-2.2-1 .9 0 3.9-2.9 2.9-2.8-5.8-8.6-15.5-16.9-11 1.5 1.5 3.9 4.9 2.2 7.3-3.1.2-2.4-3.5-5.1-3.7-1.8.4.3 4.7-2.2 4.4-3.2.8-2.4-2.5-5.1-2.2-2.9.6-3.9 2.9-6.6 3.7-3.6-.8-2.4-6.4-5.9-7.3.5 1.7 1.5 4.4 0 5.9-14.6-.2-25.5 3.8-35.9-5.9-7.5 0-11.2-.9-15.4 2.2-1.6-1.1-3.3-2.1-5.1-2.9-1.8.7 2 3.8-1.5 3.7-3.5-2.3-8.7-6.3-8.1-10.3 4.5.1 4.2 5.1 8.8 5.1-.8-4.6-3.2-5.6.7-8.8 6.6 1.7 9.8 6.8 16.9 8.1.6-3.5-4-4.3-2.2-6.6 10.6 1.7 24.9-1.2 34.4-2.9 1.2 2.2 1.2 5.6 4.4 5.9.8-3.5-2.3-3.1-1.5-6.6 7.4-4.2 8.1 3.8 16.1 2.9 2.1 2.7 4.3 8.7 7.3 8.1-4.3-8.6-13.3-12.5-13.2-25.6-5.5-1.6-9.7-8-15.4-5.1-4.1-4.2-10.6-6-11.7-13.2h-2.2c-3 6.4 8.1 12.4 3 18.7zm61.5-10.3c-2.3.4-2.6-1.3-5.1-.7-.3 3.4-1.6 5.7-4.4 6.6-4.4-2.4-10.9-2.8-12.5-8.1-2.8.2-3.1 2.8-5.9 2.9-2.9-2.6-11.2-3.2-13.2-4.4 4 8.7 15.2 10.2 12.5 25.6 5.3 7 13.9 6.6 22 10.3-2.8-6.5-10.7-7.9-13.2-14.7 5.7.4 6.9 5.3 12.5 5.9.8-1.9-2.2-3.5 0-4.4 3.1-.6 3.7 3.4 5.9 1.5 2-1.8-3.2-3.6-.7-5.9 2.9-.5 2.9 1.9 5.9 1.5 2.1-1.8 5.2-2.6 4.4-7.3 1.7-.5 3.7-.7 5.1-1.5-1.9-6-4-11.6-9.5-13.9-1.2 2.4-1.1 5.9-3.8 6.6zm-129.6 8.8c1.5 1.3 5.9 1.1 5.1-2.2-2.5 0-3.9 1.1-5.1 2.2zM94 90.2c-.8 3.9-5.5 6.7-7.3 8.8-3.3 3.7-3.1 8.2-5.1 12.5-.8 1.6-3.2 1.7-2.9 3.7.5 3.4 6.6 6.5 11 5.9 0-2.2-2.2-6.5.7-7.3 2.7-.5 3.1 1.3 5.9.7.9-4.1-3.8-2.6-3.7-5.9 1.2-4.2 6.1-4.6 8.8-7.3-2.1-3.3-4.2-6.6-5.1-11-.8-.1-1.6-.1-2.3-.1zm212.5 26.4c-.9 1-3.2.7-5.1.7 1.2 2.7 6.3 1.5 5.1 6.6-1.7.5-5.7-1.3-5.1 1.5 2.8 2.1 6.5 3.2 11.7 2.9 2.3-2.5 2.3-7.4 2.2-12.5-3.4-2.5-5.1-6.6-11-6.6-.9 4.1 2.1 4.3 2.2 7.4zM82.3 137.9c.9-1.1 2.9-1 2.9-2.9-1.6-1.1-1.7-3.7-4.4-3.7-.7 1.1-.1 5.5 1.5 6.6zm8 20.5c-.7-4.2-4.2-5.6-5.1-9.5 2.7-2.8.6-7.3-2.9-8.1 1.5 7 0 17.1 8 17.6zm215.5-13.2c1.6-1.7-.2-4.1-2.9-3.7.3 1.8.6 3.8 2.9 3.7zm0 13.9c1.6 1.6 4 .3 4.4-1.5-1.6-1.5-4-.2-4.4 1.5zm0 18.3c1.9-.1 2.8-1.1 2.9-2.9-2-2.3-5.2.9-2.9 2.9zm12.4 31.5c6.2-2.8 6.4-11.7 12.5-14.7 2.2 8-2.9 19 5.9 24.2-2.5-8.4-.7-19.7-.7-27.1-11.9-9.6-18.6 8.1-17.7 17.6zm-13.9-3.6c1.9-2.8 2.4-6.9 2.2-11.7h-2.2c-.4 2.7-2.3 11 0 11.7zM81.6 241.9c-.5-10.5 4.7-19.2 2.2-29.3-1.4.2-1.6-.8-2.9-.7-.8 7.1-3.5 23.1.7 30zm239.5-19.1c6.3 7.9 9.4 16.1 4.4 24.2-1.2 1.9-4.3 2.4-5.9 4.4-1.3 1.7-1.4 5.3-2.9 7.3-1.8 2.3-4.4 3-5.1 4.4-1.7 3.4-1 10.6-.7 14.7 1.4 1 4.7 2.4 6.6.7-2.2-6.4-3-13.9 1.5-18.3 3.7 1 2.1 7.2 6.6 7.3 2.6-2.1 1.4-7.9 2.9-11-.5-1.2-3.6.2-2.9-2.2 6.7-10.6 8.3-31.6-.7-41-1.6 2.9-2.9 6-3.8 9.5zM85.2 247c2.6 7.1 15.2 10.8 10.3 19.1-2.8-5.3-6.8-9.3-11-13.2 4 10.7 11.6 17.7 12.5 31.5 3.2 1.7 4.1 5.7 9.5 5.1 1.2-11.8-5.8-21.5-5.9-34.4-6.6-5.8-18.7-21.4-5.9-29.3 2.9-.9 1.8 2.1 3.7 2.2-2-5-5.4-8.8-11-10.3-1.3 11.1-5.7 19.8-2.2 29.3zm229.3-4.4c3.9 1 5.9-5.7 5.1-11.7-.9 0-1-.9-2.2-.7-1.2 3.8-3 7.1-2.9 12.4zm-220.5.8c1.5 1.5 2.4 3.5 4.4 4.4 1.8-3.1 3.2-11.4 0-13.2-2 2.4-3.7 5-4.4 8.8zM280.1 343c8.3-7.1 5.2-23.1 8.8-33.7-2.5-2.9-.6-10.2-5.1-11-1.1 14.6-2.9 32.3-3.7 44.7zm-2.9 29.3c5.4-4.2 13.6-8.5 12.5-16.9-6.4 3.5-9.1 10.6-12.5 16.9zM242 409.7c3.6-.1 5-2.3 5.9-5.1-3 .6-5.1 2.2-5.9 5.1zM82.3 476.4c3.4.7 7.1-2.1 5.9-3.7-1.5 1.7-5.4 1-5.9 3.7z"/></g></svg>