<svg xmlns="http://www.w3.org/2000/svg" viewBox="0 0 351.1 100"><path fill="#464547" d="M307.6-104.6l-4.2-7.8h22.3l-3.5 7.8z"/><path fill="#FFF" stroke="#464547" stroke-width="5" stroke-miterlimit="10" d="M285.7-52.3c-1.6 4.1-2.5 12.7 8.1 12.7h41.1s15.7.6 9.2-15l-1.2-2.3L324.8-84v-18.2h-19.5v17.8L288-56.8c-.1-.1-1.3 1.7-2.3 4.5z"/><path fill="none" stroke="#464547" stroke-width="6" stroke-miterlimit="10" d="M285.7-52.3c-1.6 4.1-2.5 12.7 8.1 12.7h41.1s15.7.6 9.2-15l-1.2-2.3L324.8-84v-18.2h-19.5v17.8L288-56.8c-.1-.1-1.3 1.7-2.3 4.5z"/><path fill="#464547" d="M326.6-101.5h-22.9c-1 0-1.9-.9-1.9-1.9 0-1 .9-1.9 1.9-1.9h22.9c1 0 1.9.9 1.9 1.9 0 1-.9 1.9-1.9 1.9z"/><path fill="#6ABD45" d="M334.5-45l-36.1.1s-10.1.7-5-9.8l14.8-24.4L324-75l13 19.5s4.3 6.6.2 9.7c0 .1-1.3.8-2.7.8z"/><circle fill="#FFF" cx="322.8" cy="-56.8" r="3.1"/><circle fill="#FFF" cx="309.4" cy="-66" r="1.6"/><circle fill="#FFF" cx="307.8" cy="-54.7" r="2.2"/><linearGradient id="a" gradientUnits="userSpaceOnUse" x1="8.467" y1="178.836" x2="8.467" y2="238.531"><stop offset="0" stop-color="#5a5b5d"/><stop offset=".105" stop-color="#5c5e5e"/><stop offset=".228" stop-color="#616563"/><stop offset=".362" stop-color="#697168"/><stop offset=".502" stop-color="#707f6b"/><stop offset=".647" stop-color="#76906a"/><stop offset=".797" stop-color="#78a263"/><stop offset=".948" stop-color="#71b54c"/><stop offset="1" stop-color="#6abd45"/></linearGradient><path fill="url(#a)" d="M3.2 246.9h-20.7v-65.7H11c7.3 0 13.1 1.7 17.2 5 4.2 3.4 6.3 8.2 6.3 14.2 0 3.1-.7 6.3-2 9.4-1.4 3.3-4.3 6.1-8.6 8.5-4.3 2.3-9.7 3.5-16.1 3.5H3.2v25.1zm-17.9-2.6H.4v-25h7.4c5.9 0 10.8-1.1 14.7-3.1 3.8-2.1 6.3-4.5 7.4-7.2 1.2-2.8 1.8-5.7 1.8-8.5 0-5.4-1.7-9.4-5.3-12.3-3.6-2.9-8.8-4.4-15.4-4.4h-25.7v60.5zm20.4-34.8H.4v-16.1h6.9c3 0 5.3.6 6.9 1.9 1.6 1.3 2.5 3.2 2.5 5.8 0 2.7-1 4.8-3.1 6.3-2.1 1.3-4.7 2.1-7.9 2.1zm-2.5-2.6h2.5c2.6 0 4.6-.5 6.1-1.6 1.4-1 2.1-2.4 2.1-4.3 0-1.8-.5-3-1.5-3.8-1.1-.8-2.7-1.3-5-1.3H3.2v11z"/><linearGradient id="b" gradientUnits="userSpaceOnUse" x1="61.191" y1="178.79" x2="61.191" y2="238.485"><stop offset="0" stop-color="#5a5b5d"/><stop offset=".105" stop-color="#5c5e5e"/><stop offset=".228" stop-color="#616563"/><stop offset=".362" stop-color="#697168"/><stop offset=".502" stop-color="#707f6b"/><stop offset=".647" stop-color="#76906a"/><stop offset=".797" stop-color="#78a263"/><stop offset=".948" stop-color="#71b54c"/><stop offset="1" stop-color="#6abd45"/></linearGradient><path fill="url(#b)" d="M60.7 247.9c-8.2 0-14.6-3.3-19.1-9.8-4.4-6.4-6.6-14.4-6.6-23.9 0-6.5 1.1-12.5 3.2-17.7 2.2-5.3 5.3-9.4 9.2-12.1 3.9-2.8 8.1-4.2 12.5-4.2 8.4 0 15.2 3.1 20.1 9.1 4.8 6 7.3 14.2 7.3 24.5s-2.5 18.6-7.3 24.8c-4.9 6.1-11.4 9.3-19.3 9.3zm-.8-65.2c-3.8 0-7.6 1.3-11.1 3.7-3.5 2.5-6.3 6.2-8.3 11-2 4.9-3 10.5-3 16.7 0 8.9 2.1 16.4 6.2 22.4 4.1 5.9 9.6 8.7 17.1 8.7 7.2 0 12.9-2.8 17.4-8.5 4.5-5.7 6.8-13.5 6.8-23.2 0-9.6-2.3-17.3-6.7-22.8-4.6-5.3-10.6-8-18.4-8zm1.1 51.7c-3.3 0-6-2-7.8-5.9-1.7-3.6-2.6-8.5-2.6-14.7 0-6.1.9-11 2.6-14.6 1.9-3.9 4.7-5.8 8.3-5.8 2.9 0 5.3 1.9 7.3 5.6 1.8 3.5 2.7 8.4 2.7 14.7 0 6.1-.9 11-2.7 14.7-1.8 4-4.5 6-7.8 6zm.6-38.4c-2.7 0-4.7 1.4-6.1 4.4-1.6 3.2-2.4 7.7-2.4 13.4 0 5.8.8 10.3 2.3 13.6 1.4 3 3.2 4.4 5.6 4.4 2.3 0 4.2-1.5 5.7-4.6 1.6-3.3 2.4-7.9 2.4-13.5 0-5.8-.8-10.4-2.4-13.4-1.5-2.9-3.2-4.3-5.1-4.3z"/><linearGradient id="c" gradientUnits="userSpaceOnUse" x1="191.23" y1="178.79" x2="191.23" y2="238.485"><stop offset="0" stop-color="#5a5b5d"/><stop offset=".105" stop-color="#5c5e5e"/><stop offset=".228" stop-color="#616563"/><stop offset=".362" stop-color="#697168"/><stop offset=".502" stop-color="#707f6b"/><stop offset=".647" stop-color="#76906a"/><stop offset=".797" stop-color="#78a263"/><stop offset=".948" stop-color="#71b54c"/><stop offset="1" stop-color="#6abd45"/></linearGradient><path fill="url(#c)" d="M190.8 247.9c-8.2 0-14.6-3.3-19.1-9.8-4.4-6.4-6.6-14.4-6.6-23.9 0-6.5 1.1-12.5 3.2-17.7 2.2-5.3 5.3-9.4 9.2-12.1 3.9-2.8 8.1-4.2 12.5-4.2 8.4 0 15.2 3.1 20.1 9.1 4.8 6 7.3 14.2 7.3 24.5s-2.5 18.6-7.3 24.8c-5 6.1-11.5 9.3-19.3 9.3zm-.8-65.2c-3.8 0-7.6 1.3-11.1 3.7-3.5 2.5-6.3 6.2-8.3 11-2 4.9-3 10.5-3 16.7 0 8.9 2.1 16.4 6.2 22.4 4.1 5.9 9.6 8.7 17.1 8.7 7.2 0 12.9-2.8 17.4-8.5 4.5-5.7 6.8-13.5 6.8-23.2 0-9.6-2.3-17.3-6.7-22.8-4.7-5.3-10.6-8-18.4-8zm1.1 51.7c-3.3 0-6-2-7.8-5.9-1.7-3.6-2.6-8.5-2.6-14.7 0-6.1.9-11 2.6-14.6 1.9-3.9 4.7-5.8 8.3-5.8 2.9 0 5.3 1.9 7.3 5.6 1.8 3.5 2.7 8.4 2.7 14.7 0 6.1-.9 11-2.7 14.7-1.9 4-4.5 6-7.8 6zm.5-38.4c-2.7 0-4.7 1.4-6.1 4.4-1.6 3.2-2.4 7.7-2.4 13.4 0 5.8.8 10.3 2.3 13.6 1.4 3 3.2 4.4 5.6 4.4 2.3 0 4.2-1.5 5.7-4.6 1.6-3.3 2.4-7.9 2.4-13.5 0-5.8-.8-10.4-2.4-13.4-1.5-2.9-3.1-4.3-5.1-4.3z"/><linearGradient id="d" gradientUnits="userSpaceOnUse" x1="111.544" y1="178.836" x2="111.544" y2="238.531"><stop offset="0" stop-color="#5a5b5d"/><stop offset=".105" stop-color="#5c5e5e"/><stop offset=".228" stop-color="#616563"/><stop offset=".362" stop-color="#697168"/><stop offset=".502" stop-color="#707f6b"/><stop offset=".647" stop-color="#76906a"/><stop offset=".797" stop-color="#78a263"/><stop offset=".948" stop-color="#71b54c"/><stop offset="1" stop-color="#6abd45"/></linearGradient><path fill="url(#d)" d="M121.5 246.9H101v-50.3H86.1v-15.4H137v15.4h-15.4v50.3zm-17.7-2.6h14.9V194h15.4v-10.3H88.9V194h14.9v50.3z"/><linearGradient id="e" gradientUnits="userSpaceOnUse" x1="150.881" y1="178.836" x2="150.881" y2="238.531"><stop offset="0" stop-color="#5a5b5d"/><stop offset=".105" stop-color="#5c5e5e"/><stop offset=".228" stop-color="#616563"/><stop offset=".362" stop-color="#697168"/><stop offset=".502" stop-color="#707f6b"/><stop offset=".647" stop-color="#76906a"/><stop offset=".797" stop-color="#78a263"/><stop offset=".948" stop-color="#71b54c"/><stop offset="1" stop-color="#6abd45"/></linearGradient><path fill="url(#e)" d="M161.2 246.9h-20.7v-65.7h20.7v65.7zm-17.9-2.6h15.1v-60.6h-15.1v60.6z"/><linearGradient id="f" gradientUnits="userSpaceOnUse" x1="247.345" y1="178.836" x2="247.345" y2="238.531"><stop offset="0" stop-color="#5a5b5d"/><stop offset=".105" stop-color="#5c5e5e"/><stop offset=".228" stop-color="#616563"/><stop offset=".362" stop-color="#697168"/><stop offset=".502" stop-color="#707f6b"/><stop offset=".647" stop-color="#76906a"/><stop offset=".797" stop-color="#78a263"/><stop offset=".948" stop-color="#71b54c"/><stop offset="1" stop-color="#6abd45"/></linearGradient><path fill="url(#f)" d="M273.8 246.9h-20.3l-9-20.8c-1.5-3.5-2.9-6.8-4-9.8l.2 4.5v26.1h-19.8v-65.7h20.4l9 20.8c1.5 3.5 2.8 6.7 3.9 9.6l-.2-4.4v-26.1h19.8v65.8zm-18.4-2.6h15.7v-60.6h-14.2v23.5l.5 12H254l-.3-.9c-1.4-4.3-3.3-9.4-5.9-15.3l-8.3-19.2h-15.7v60.6H238v-23.5l-.5-12h3.5l.3.9c1.4 4.3 3.4 9.5 5.9 15.4l8.2 19.1z"/><path fill="none" stroke="#717375" stroke-width="4" stroke-miterlimit="10" d="M308.8-175c-1.8 4.7-2.9 14.5 9.2 14.5h46.8s17.9.7 10.4-17.1l-1.4-2.7-20.6-30.9v-20.7H331v20.2l-19.6 31.4c-.1.1-1.4 2.1-2.6 5.3z"/><path fill="#717375" d="M355.5-231h-26.4c-1.1 0-2-.9-2-2v-.3c0-1.1.9-2 2-2h26.4c1.1 0 2 .9 2 2v.3c0 1.1-.9 2-2 2z"/><path fill="#6ABD45" d="M364.4-166.6l-41.1.1s-11.5.8-5.7-11.1l16.8-27.8 18.1 4.7 14.8 22.2s4.9 7.5.2 11.1c-.1-.1-1.5.8-3.1.8z"/><circle fill="#FFF" cx="351.1" cy="-180.1" r="3.5"/><circle fill="#FFF" cx="335.7" cy="-190.5" r="1.8"/><circle fill="#FFF" cx="334" cy="-177.6" r="2.5"/><linearGradient id="g" gradientUnits="userSpaceOnUse" x1="6.468" y1="-232.745" x2="6.468" y2="-169.188"><stop offset="0" stop-color="#5a5b5d"/><stop offset=".105" stop-color="#5c5e5e"/><stop offset=".228" stop-color="#616563"/><stop offset=".362" stop-color="#697168"/><stop offset=".502" stop-color="#707f6b"/><stop offset=".647" stop-color="#76906a"/><stop offset=".797" stop-color="#78a263"/><stop offset=".948" stop-color="#71b54c"/><stop offset="1" stop-color="#6abd45"/></linearGradient><path fill="url(#g)" d="M1.2-160.3h-20.7v-69.9H9c7.3 0 13.1 1.8 17.2 5.3 4.2 3.6 6.3 8.7 6.3 15.2 0 3.3-.7 6.7-2 10.1-1.4 3.5-4.3 6.5-8.6 9s-9.7 3.7-16.1 3.7H1.2v26.6zm-17.9-2.7h15.1v-26.6h7.4c5.9 0 10.8-1.1 14.7-3.4 3.8-2.2 6.3-4.8 7.4-7.7 1.2-3 1.8-6.1 1.8-9.1 0-5.7-1.7-10-5.3-13.1-3.6-3.1-8.8-4.6-15.4-4.6h-25.7v64.5zm20.4-37.1h-5.3v-17.1h6.9c3 0 5.3.7 6.9 2 1.6 1.4 2.5 3.5 2.5 6.1 0 2.8-1 5.1-3.1 6.7-2.1 1.5-4.7 2.3-7.9 2.3zm-2.5-2.8h2.5c2.6 0 4.6-.6 6.1-1.7 1.4-1.1 2.1-2.6 2.1-4.5s-.5-3.2-1.5-4.1c-1.1-.9-2.7-1.4-5-1.4H1.2v11.7z"/><linearGradient id="h" gradientUnits="userSpaceOnUse" x1="63.738" y1="-232.793" x2="63.738" y2="-169.237"><stop offset="0" stop-color="#5a5b5d"/><stop offset=".105" stop-color="#5c5e5e"/><stop offset=".228" stop-color="#616563"/><stop offset=".362" stop-color="#697168"/><stop offset=".502" stop-color="#707f6b"/><stop offset=".647" stop-color="#76906a"/><stop offset=".797" stop-color="#78a263"/><stop offset=".948" stop-color="#71b54c"/><stop offset="1" stop-color="#6abd45"/></linearGradient><path fill="url(#h)" d="M63.2-159.2c-9.3 0-16.6-3.5-21.7-10.4-5-6.8-7.5-15.3-7.5-25.4 0-7 1.2-13.3 3.7-18.9 2.5-5.6 6-10 10.4-12.9 4.5-3 9.2-4.5 14.2-4.5 9.6 0 17.3 3.3 22.8 9.7 5.5 6.4 8.3 15.1 8.3 26s-2.8 19.8-8.3 26.4c-5.6 6.6-13 10-21.9 10zm-.9-69.4c-4.4 0-8.6 1.3-12.6 4-4 2.6-7.2 6.6-9.4 11.7-2.3 5.2-3.4 11.2-3.4 17.8 0 9.5 2.4 17.5 7 23.8 4.6 6.3 10.9 9.3 19.4 9.3 8.1 0 14.6-3 19.7-9 5.1-6.1 7.7-14.4 7.7-24.7 0-10.3-2.6-18.4-7.6-24.3-5.2-5.8-12-8.6-20.8-8.6zm1.2 55c-3.8 0-6.8-2.1-8.9-6.2-1.9-3.8-2.9-9.1-2.9-15.7 0-6.5 1-11.7 3-15.5 2.1-4.1 5.3-6.2 9.4-6.2 3.3 0 6 2 8.2 5.9 2 3.7 3.1 8.9 3.1 15.6 0 6.4-1 11.7-3 15.6-2.1 4.4-5.1 6.5-8.9 6.5zm.7-40.9c-3 0-5.3 1.5-6.9 4.7-1.8 3.4-2.7 8.2-2.7 14.3 0 6.2.9 11 2.6 14.5 1.6 3.2 3.7 4.7 6.4 4.7s4.8-1.6 6.4-4.9c1.8-3.6 2.7-8.4 2.7-14.4 0-6.2-.9-11-2.7-14.3-1.7-3.1-3.6-4.6-5.8-4.6z"/><linearGradient id="i" gradientUnits="userSpaceOnUse" x1="117.544" y1="-232.745" x2="117.544" y2="-169.188"><stop offset="0" stop-color="#5a5b5d"/><stop offset=".105" stop-color="#5c5e5e"/><stop offset=".228" stop-color="#616563"/><stop offset=".362" stop-color="#697168"/><stop offset=".502" stop-color="#707f6b"/><stop offset=".647" stop-color="#76906a"/><stop offset=".797" stop-color="#78a263"/><stop offset=".948" stop-color="#71b54c"/><stop offset="1" stop-color="#6abd45"/></linearGradient><path fill="url(#i)" d="M127.5-160.3H107v-53.6H92.1v-16.4H143v16.4h-15.4v53.6zm-17.7-2.7h14.9v-53.6h15.4v-10.9H94.9v10.9h14.9v53.6z"/><linearGradient id="j" gradientUnits="userSpaceOnUse" x1="158.881" y1="-232.745" x2="158.881" y2="-169.188"><stop offset="0" stop-color="#5a5b5d"/><stop offset=".105" stop-color="#5c5e5e"/><stop offset=".228" stop-color="#616563"/><stop offset=".362" stop-color="#697168"/><stop offset=".502" stop-color="#707f6b"/><stop offset=".647" stop-color="#76906a"/><stop offset=".797" stop-color="#78a263"/><stop offset=".948" stop-color="#71b54c"/><stop offset="1" stop-color="#6abd45"/></linearGradient><path fill="url(#j)" d="M169.2-160.3h-20.7v-69.9h20.7v69.9zm-17.9-2.7h15.1v-64.5h-15.1v64.5z"/><linearGradient id="k" gradientUnits="userSpaceOnUse" x1="204.255" y1="-232.793" x2="204.255" y2="-169.237"><stop offset="0" stop-color="#5a5b5d"/><stop offset=".105" stop-color="#5c5e5e"/><stop offset=".228" stop-color="#616563"/><stop offset=".362" stop-color="#697168"/><stop offset=".502" stop-color="#707f6b"/><stop offset=".647" stop-color="#76906a"/><stop offset=".797" stop-color="#78a263"/><stop offset=".948" stop-color="#71b54c"/><stop offset="1" stop-color="#6abd45"/></linearGradient><path fill="url(#k)" d="M203.7-159.2c-9.3 0-16.6-3.5-21.7-10.4-5-6.8-7.5-15.3-7.5-25.4 0-7 1.2-13.3 3.7-18.9 2.5-5.6 6-10 10.4-12.9 4.5-3 9.2-4.5 14.2-4.5 9.6 0 17.3 3.3 22.8 9.7 5.5 6.4 8.3 15.1 8.3 26s-2.8 19.8-8.3 26.4c-5.6 6.6-13 10-21.9 10zm-.9-69.4c-4.4 0-8.6 1.3-12.6 4-4 2.6-7.2 6.6-9.4 11.7-2.3 5.2-3.4 11.2-3.4 17.8 0 9.5 2.4 17.5 7 23.8 4.6 6.3 10.9 9.3 19.4 9.3 8.1 0 14.6-3 19.7-9 5.1-6.1 7.7-14.4 7.7-24.7 0-10.3-2.6-18.4-7.6-24.3-5.2-5.8-11.9-8.6-20.8-8.6zm1.3 55c-3.8 0-6.8-2.1-8.9-6.2-1.9-3.8-2.9-9.1-2.9-15.7 0-6.5 1-11.7 3-15.5 2.1-4.1 5.3-6.2 9.4-6.2 3.3 0 6 2 8.2 5.9 2 3.7 3.1 8.9 3.1 15.6 0 6.4-1 11.7-3 15.6-2.2 4.4-5.2 6.5-8.9 6.5zm.6-40.9c-3 0-5.3 1.5-6.9 4.7-1.8 3.4-2.7 8.2-2.7 14.3 0 6.2.9 11 2.6 14.5 1.6 3.2 3.7 4.7 6.4 4.7s4.8-1.6 6.4-4.9c1.8-3.6 2.7-8.4 2.7-14.4 0-6.2-.9-11-2.7-14.3-1.7-3.1-3.6-4.6-5.8-4.6z"/><linearGradient id="l" gradientUnits="userSpaceOnUse" x1="265.346" y1="-232.745" x2="265.346" y2="-169.188"><stop offset="0" stop-color="#5a5b5d"/><stop offset=".105" stop-color="#5c5e5e"/><stop offset=".228" stop-color="#616563"/><stop offset=".362" stop-color="#697168"/><stop offset=".502" stop-color="#707f6b"/><stop offset=".647" stop-color="#76906a"/><stop offset=".797" stop-color="#78a263"/><stop offset=".948" stop-color="#71b54c"/><stop offset="1" stop-color="#6abd45"/></linearGradient><path fill="url(#l)" d="M291.8-160.3h-20.3l-9-22.2c-1.5-3.8-2.9-7.3-4-10.4l.2 4.8v27.8h-19.8v-69.9h20.4l9 22.2c1.5 3.7 2.8 7.1 3.9 10.3l-.2-4.7v-27.8h19.8v69.9zm-18.4-2.7h15.7v-64.5h-14.2v25l.5 12.7H272l-.3-1c-1.4-4.6-3.3-10-5.9-16.3l-8.3-20.4h-15.7v64.5H256v-25l-.5-12.7h3.5l.3 1c1.4 4.6 3.4 10.1 5.9 16.4l8.2 20.3z"/><linearGradient id="m" gradientUnits="userSpaceOnUse" x1="-305.483" y1="-89.189" x2="-305.483" y2="-42.518"><stop offset="0" stop-color="#5a5b5d"/><stop offset=".105" stop-color="#5c5e5e"/><stop offset=".228" stop-color="#616563"/><stop offset=".362" stop-color="#697168"/><stop offset=".502" stop-color="#707f6b"/><stop offset=".647" stop-color="#76906a"/><stop offset=".797" stop-color="#78a263"/><stop offset=".948" stop-color="#71b54c"/><stop offset="1" stop-color="#6abd45"/></linearGradient><path fill="url(#m)" d="M-310.4-16.4h-21.4v-77.2h18.5l1.3 4.1c1.3-1.4 2.8-2.6 4.4-3.4 2.3-1.2 4.9-1.9 7.7-1.9 6.4 0 11.6 2.8 15.4 8.3 3.7 5.3 5.6 11.7 5.6 18.9 0 5.3-1 10.1-2.8 14.4-1.9 4.3-4.5 7.8-7.8 10.4-3.4 2.6-7.2 4-11.5 4-2.1 0-4.1-.4-6-1.2-1.1-.4-2.1-1-3.1-1.6v25.2zm-18.5-3h15.4v-28.4l2.5 2.1c1.6 1.3 3.2 2.3 4.8 2.9 1.6.6 3.3 1 4.9 1 3.6 0 6.8-1.1 9.7-3.3 2.9-2.3 5.2-5.4 6.9-9.2 1.7-3.9 2.6-8.3 2.6-13.2 0-6.6-1.7-12.4-5-17.2-3.3-4.7-7.5-7-12.9-7-2.3 0-4.4.5-6.2 1.5-1.9 1-3.6 2.6-5.2 4.7l-1.7 2.4-2.4-7.4h-13.3v71.1zm22.1-33.8c-1.3 0-2.5-.3-3.5-.9-1-.6-2-1.4-2.8-2.5l-.3-.4v-12.9c0-3.4.5-5.9 1.7-7.6 1.2-1.9 3.2-3 5.6-3 1.7 0 4.2.7 6 3.8 1.3 2.3 2 5.5 2 9.6 0 4-.7 7.3-2.1 9.7-1.6 2.8-3.8 4.2-6.6 4.2zm-3.6-4.8c.5.6 1 1 1.6 1.3.6.4 1.3.5 2.1.5 1.7 0 2.9-.8 3.9-2.5 1.1-2 1.7-4.7 1.7-8.3 0-3.6-.5-6.3-1.6-8.1-1.2-2.1-2.5-2.3-3.4-2.3-1.4 0-2.4.5-3 1.6-.8 1.3-1.2 3.3-1.2 6V-58z"/><linearGradient id="n" gradientUnits="userSpaceOnUse" x1="-248.84" y1="-89.189" x2="-248.84" y2="-42.518"><stop offset="0" stop-color="#5a5b5d"/><stop offset=".105" stop-color="#5c5e5e"/><stop offset=".228" stop-color="#616563"/><stop offset=".362" stop-color="#697168"/><stop offset=".502" stop-color="#707f6b"/><stop offset=".647" stop-color="#76906a"/><stop offset=".797" stop-color="#78a263"/><stop offset=".948" stop-color="#71b54c"/><stop offset="1" stop-color="#6abd45"/></linearGradient><path fill="url(#n)" d="M-249.1-38.8c-8.5 0-15.3-2.6-20.1-7.9-4.8-5.2-7.2-11.8-7.2-19.8 0-8.3 2.5-15.1 7.5-20.4 5-5.2 11.7-7.9 19.8-7.9 8.1 0 14.8 2.5 20 7.3 5.2 4.9 7.9 11.7 7.9 20.4 0 8.2-2.5 15-7.5 20.3-5 5.3-11.9 8-20.4 8zm0-52.9c-7.3 0-13.2 2.3-17.7 7-4.5 4.6-6.7 10.8-6.7 18.3 0 7.2 2.2 13.2 6.4 17.8 4.2 4.6 10.3 6.9 17.9 6.9 7.7 0 13.8-2.4 18.2-7 4.4-4.7 6.7-10.8 6.7-18.2 0-7.8-2.3-13.9-6.9-18.2-4.6-4.4-10.6-6.6-17.9-6.6zm.1 39.7c-2.9 0-5.1-1.4-6.5-4.2-1.3-2.5-1.9-6-1.9-10.7 0-4.8.6-8.3 1.9-10.8 1.4-2.7 3.7-4.2 6.6-4.2 2.9 0 5.1 1.4 6.5 4.2 1.3 2.5 1.9 6 1.9 10.9 0 4.7-.6 8.2-1.9 10.6-1.4 2.8-3.7 4.2-6.6 4.2zm.1-26.8c-1.7 0-3 .8-3.9 2.6-1.1 2-1.6 5.2-1.6 9.4s.5 7.3 1.6 9.3c.9 1.7 2.1 2.5 3.9 2.5 1.8 0 3-.8 3.9-2.5 1-2 1.6-5.1 1.6-9.3 0-4.3-.5-7.5-1.6-9.5-.9-1.7-2.2-2.5-3.9-2.5z"/><linearGradient id="o" gradientUnits="userSpaceOnUse" x1="-201.911" y1="-89.189" x2="-201.911" y2="-42.518"><stop offset="0" stop-color="#5a5b5d"/><stop offset=".105" stop-color="#5c5e5e"/><stop offset=".228" stop-color="#616563"/><stop offset=".362" stop-color="#697168"/><stop offset=".502" stop-color="#707f6b"/><stop offset=".647" stop-color="#76906a"/><stop offset=".797" stop-color="#78a263"/><stop offset=".948" stop-color="#71b54c"/><stop offset="1" stop-color="#6abd45"/></linearGradient><path fill="url(#o)" d="M-195.3-38.8c-6.2 0-10.8-1.4-13.8-4.1-3-2.8-4.6-7.1-4.6-12.7v-22.6h-6.9v-15.4h8.1l-.5-15.2h20.4v15.2h9.3v15.4h-8.5V-59c0 2.7 1.1 3.3 2.7 3.3 1.1 0 2.2-.4 3.4-1.2l2.3-1.5v17.6l-1 .3c-3.5 1.1-7.2 1.7-10.9 1.7zm-22.2-42.4h6.9v25.6c0 4.8 1.2 8.3 3.6 10.5 2.4 2.2 6.4 3.3 11.8 3.3 3 0 6.1-.4 9-1.3v-10.1c-.9.3-1.8.5-2.7.5-3.6 0-5.7-2.3-5.7-6.3v-22.2h8.5v-9.4h-9.3v-15.2H-210l.5 15.2h-7.8v9.4z"/><linearGradient id="p" gradientUnits="userSpaceOnUse" x1="-166.782" y1="-90.866" x2="-166.782" y2="-42.605"><stop offset="0" stop-color="#5a5b5d"/><stop offset=".105" stop-color="#5c5e5e"/><stop offset=".228" stop-color="#616563"/><stop offset=".362" stop-color="#697168"/><stop offset=".502" stop-color="#707f6b"/><stop offset=".647" stop-color="#76906a"/><stop offset=".797" stop-color="#78a263"/><stop offset=".948" stop-color="#71b54c"/><stop offset="1" stop-color="#6abd45"/></linearGradient><path fill="url(#p)" d="M-156.1-40h-21.7v-53.6h21.7V-40zm-18.6-3h15.7v-47.6h-15.7V-43zm7.9-54.3c-3.2 0-5.9-1.2-8.1-3.5-2.2-2.3-3.4-5.2-3.4-8.4 0-3.3 1.2-6.1 3.5-8.4 2.3-2.2 5-3.3 8-3.3 2.9 0 5.5 1.1 7.9 3.2 2.4 2.2 3.7 5.1 3.7 8.6 0 3.3-1.2 6.2-3.5 8.5-2.3 2.2-5 3.3-8.1 3.3zm0-20.2c-2.3 0-4.3.8-6.1 2.5-1.7 1.6-2.5 3.5-2.5 5.8s.8 4.2 2.4 5.9c1.7 1.7 3.7 2.6 6.1 2.6 2.4 0 4.4-.8 6.1-2.5 1.7-1.6 2.5-3.6 2.5-5.9 0-2.5-.8-4.4-2.6-6-1.7-1.6-3.7-2.4-5.9-2.4z"/><linearGradient id="q" gradientUnits="userSpaceOnUse" x1="-124.877" y1="-89.189" x2="-124.877" y2="-42.518"><stop offset="0" stop-color="#5a5b5d"/><stop offset=".105" stop-color="#5c5e5e"/><stop offset=".228" stop-color="#616563"/><stop offset=".362" stop-color="#697168"/><stop offset=".502" stop-color="#707f6b"/><stop offset=".647" stop-color="#76906a"/><stop offset=".797" stop-color="#78a263"/><stop offset=".948" stop-color="#71b54c"/><stop offset="1" stop-color="#6abd45"/></linearGradient><path fill="url(#q)" d="M-125.2-38.8c-8.5 0-15.3-2.6-20.1-7.9-4.8-5.2-7.2-11.8-7.2-19.8 0-8.3 2.5-15.1 7.5-20.4 5-5.2 11.7-7.9 19.8-7.9 8.1 0 14.8 2.5 20 7.3 5.2 4.9 7.9 11.7 7.9 20.4 0 8.2-2.5 15-7.5 20.3-5 5.3-11.8 8-20.4 8zm.1-52.9c-7.3 0-13.2 2.3-17.7 7-4.5 4.6-6.7 10.8-6.7 18.3 0 7.2 2.2 13.2 6.4 17.8 4.2 4.6 10.3 6.9 17.9 6.9 7.7 0 13.8-2.4 18.2-7 4.4-4.7 6.7-10.8 6.7-18.2 0-7.8-2.3-13.9-6.9-18.2-4.6-4.4-10.6-6.6-17.9-6.6zm.1 39.7c-2.9 0-5.1-1.4-6.5-4.2-1.3-2.5-1.9-6-1.9-10.7 0-4.8.6-8.3 1.9-10.8 1.4-2.7 3.7-4.2 6.6-4.2 2.9 0 5.1 1.4 6.5 4.2 1.3 2.5 1.9 6 1.9 10.9 0 4.7-.6 8.2-1.9 10.6-1.4 2.8-3.7 4.2-6.6 4.2zm.1-26.8c-1.7 0-3 .8-3.9 2.6-1.1 2-1.6 5.2-1.6 9.4s.5 7.3 1.6 9.3c.9 1.7 2.1 2.5 3.9 2.5 1.8 0 3-.8 3.9-2.5 1-2 1.6-5.1 1.6-9.3 0-4.3-.5-7.5-1.6-9.5-1-1.7-2.2-2.5-3.9-2.5z"/><linearGradient id="r" gradientUnits="userSpaceOnUse" x1="-69.471" y1="-89.189" x2="-69.471" y2="-42.518"><stop offset="0" stop-color="#5a5b5d"/><stop offset=".105" stop-color="#5c5e5e"/><stop offset=".228" stop-color="#616563"/><stop offset=".362" stop-color="#697168"/><stop offset=".502" stop-color="#707f6b"/><stop offset=".647" stop-color="#76906a"/><stop offset=".797" stop-color="#78a263"/><stop offset=".948" stop-color="#71b54c"/><stop offset="1" stop-color="#6abd45"/></linearGradient><path fill="url(#r)" d="M-45-40h-21.7v-34.5c0-2.8-1.2-2.8-2-2.8-1.1 0-2 .5-2.7 1.6-.8 1.3-1.2 3.2-1.2 5.7v30H-94v-53.6h18.6l1.3 3.8c1.3-1.4 2.8-2.4 4.4-3.2 2.3-1.2 4.9-1.8 7.7-1.8 4.8 0 8.9 1.6 12.1 4.8 3.2 3.2 4.9 7.2 4.9 12v38zm-18.6-3H-48v-35c0-4-1.3-7.2-4-9.8-2.7-2.7-6-3.9-10-3.9-2.3 0-4.5.5-6.4 1.4-1.9 1-3.6 2.4-5.1 4.4l-1.7 2.2-2.4-6.9H-91V-43h15.4v-26.9c0-3.1.6-5.5 1.7-7.3 1.2-2 3-3 5.2-3 1.5 0 5 .6 5 5.8V-43z"/><path fill="#464547" d="M17.6-21.5H5.7v-69.9h11.9v5.6c4.7-4.7 10.1-7.1 16-7.1 7.1 0 13 2.6 17.6 7.9 4.7 5.2 7 11.8 7 19.7 0 7.8-2.3 14.2-7 19.4-4.6 5.1-10.4 7.7-17.4 7.7-6.1 0-11.5-2.4-16.2-7.3v24zM46-65.1c0-5-1.3-9-4-12.1-2.7-3.1-6.2-4.7-10.3-4.7-4.4 0-7.9 1.5-10.7 4.6-2.7 3-4.1 7-4.1 12 0 4.9 1.4 8.9 4.1 12 2.7 3.1 6.2 4.6 10.6 4.6 4.1 0 7.6-1.6 10.2-4.7 2.8-3.2 4.2-7.1 4.2-11.7zM62-65.8c0-7.5 2.7-13.8 8-19.1 5.3-5.2 11.9-7.9 19.5-7.9 7.7 0 14.3 2.6 19.6 7.9 5.3 5.3 8 11.8 8 19.4 0 7.8-2.7 14.2-8 19.5-5.4 5.2-12 7.8-19.8 7.8-7.8 0-14.2-2.7-19.5-8-5.2-5.1-7.8-11.7-7.8-19.6zm12.2.2c0 5.2 1.4 9.3 4.1 12.3 2.8 3 6.6 4.6 11.2 4.6 4.7 0 8.4-1.5 11.2-4.5 2.8-3 4.2-7 4.2-12.1 0-5-1.4-9-4.2-12.1-2.8-3-6.6-4.6-11.2-4.6s-8.3 1.5-11.1 4.6c-2.8 3-4.2 7-4.2 11.8zM136.3-80.2v40.6h-11.9v-40.6h-8.1v-11.2h8.1v-19h11.9v19h9.3v11.2h-9.3zM162.2-91.3v51.7h-11.9v-51.7h11.9zM166.5-65.8c0-7.5 2.7-13.8 8-19.1 5.3-5.2 11.9-7.9 19.5-7.9 7.7 0 14.3 2.6 19.6 7.9 5.3 5.3 8 11.8 8 19.4 0 7.8-2.7 14.2-8 19.5-5.4 5.2-12 7.8-19.8 7.8-7.8 0-14.2-2.7-19.5-8-5.2-5.1-7.8-11.7-7.8-19.6zm12.2.2c0 5.2 1.4 9.3 4.1 12.3 2.8 3 6.6 4.6 11.2 4.6 4.7 0 8.4-1.5 11.2-4.5 2.8-3 4.2-7 4.2-12.1 0-5-1.4-9-4.2-12.1-2.8-3-6.6-4.6-11.2-4.6s-8.3 1.5-11.1 4.6c-2.8 3-4.2 7-4.2 11.8zM225.9-91.3h12v4.8c4.2-4.1 8.9-6.2 14.1-6.2 6 0 10.7 1.9 14.1 5.7 2.9 3.2 4.4 8.5 4.4 15.8v31.7h-12v-28.8c0-5.1-.7-8.6-2.1-10.6-1.4-2-3.9-3-7.5-3-4 0-6.8 1.3-8.4 3.9-1.6 2.6-2.4 7.1-2.4 13.5v24.9h-12v-51.7z"/><path fill="#6ABD45" d="M148.5-105.8c0-2.1.8-3.9 2.3-5.4 1.5-1.5 3.3-2.3 5.5-2.3s4 .8 5.5 2.3c1.5 1.5 2.3 3.3 2.3 5.5s-.8 4-2.3 5.5c-1.5 1.5-3.3 2.3-5.5 2.3s-4-.8-5.5-2.3c-1.5-1.6-2.3-3.4-2.3-5.6z"/><path fill="#464547" d="M0-116.9h351.1v100H0z"/><path fill="#FFF" d="M307.6 12.3l-4.2-7.8h22.3l-3.5 7.8z"/><path fill="none" stroke="#FFF" stroke-width="4" stroke-miterlimit="10" d="M285.7 64.6c-1.6 4.1-2.5 12.7 8.1 12.7h41.1s15.7.6 9.2-15l-1.2-2.3-18.1-27.1V14.6h-19.5v17.8L287.9 60s-1.2 1.8-2.2 4.6z"/><path fill="#FFF" d="M326.6 15.4h-22.9c-1 0-1.9-.9-1.9-1.9 0-1 .9-1.9 1.9-1.9h22.9c1 0 1.9.9 1.9 1.9 0 1-.9 1.9-1.9 1.9z"/><path fill="#6ABD45" d="M333.8 71.4h-34.9s-9.7.7-4.9-9.5l14.3-23.5 15.3 4 12.6 18.8s4.1 6.3.2 9.4c0 0-1.2.8-2.6.8z"/><circle fill="#FFF" cx="322.5" cy="59.9" r="3"/><circle fill="#FFF" cx="309.6" cy="51.1" r="1.5"/><circle fill="#FFF" cx="308.1" cy="62" r="2.1"/><path fill="#FFF" d="M17.6 95.5H5.7V25.6h11.9v5.6c4.7-4.7 10.1-7.1 16-7.1 7.1 0 13 2.6 17.6 7.9 4.7 5.2 7 11.8 7 19.7 0 7.8-2.3 14.2-7 19.4-4.6 5.1-10.4 7.7-17.4 7.7-6.1 0-11.5-2.4-16.2-7.3v24zM46 51.8c0-5-1.3-9-4-12.1-2.7-3.1-6.2-4.7-10.3-4.7-4.4 0-7.9 1.5-10.7 4.6-2.7 3-4.1 7-4.1 12 0 4.9 1.4 8.9 4.1 12 2.7 3.1 6.2 4.6 10.6 4.6 4.1 0 7.6-1.6 10.2-4.7 2.8-3.2 4.2-7.1 4.2-11.7zM62 51.1c0-7.5 2.7-13.8 8-19.1 5.3-5.2 11.9-7.9 19.5-7.9 7.7 0 14.3 2.6 19.6 7.9 5.3 5.3 8 11.8 8 19.4 0 7.8-2.7 14.2-8 19.5-5.4 5.2-12 7.8-19.8 7.8-7.8 0-14.2-2.7-19.5-8C64.6 65.6 62 59 62 51.1zm12.2.2c0 5.2 1.4 9.3 4.1 12.3 2.8 3 6.6 4.6 11.2 4.6 4.7 0 8.4-1.5 11.2-4.5 2.8-3 4.2-7 4.2-12.1 0-5-1.4-9-4.2-12.1-2.8-3-6.6-4.6-11.2-4.6s-8.3 1.5-11.1 4.6c-2.8 3.1-4.2 7-4.2 11.8zM136.3 36.7v40.6h-11.9V36.7h-8.1V25.6h8.1v-19h11.9v19h9.3v11.2h-9.3zM162.2 25.6v51.7h-11.9V25.6h11.9zM166.5 51.1c0-7.5 2.7-13.8 8-19.1 5.3-5.2 11.9-7.9 19.5-7.9 7.7 0 14.3 2.6 19.6 7.9 5.3 5.3 8 11.8 8 19.4 0 7.8-2.7 14.2-8 19.5-5.4 5.2-12 7.8-19.8 7.8-7.8 0-14.2-2.7-19.5-8-5.2-5.1-7.8-11.7-7.8-19.6zm12.2.2c0 5.2 1.4 9.3 4.1 12.3 2.8 3 6.6 4.6 11.2 4.6 4.7 0 8.4-1.5 11.2-4.5 2.8-3 4.2-7 4.2-12.1 0-5-1.4-9-4.2-12.1-2.8-3-6.6-4.6-11.2-4.6s-8.3 1.5-11.1 4.6c-2.8 3.1-4.2 7-4.2 11.8zM225.9 25.6h12v4.8c4.2-4.1 8.9-6.2 14.1-6.2 6 0 10.7 1.9 14.1 5.7 2.9 3.2 4.4 8.5 4.4 15.8v31.7h-12V48.5c0-5.1-.7-8.6-2.1-10.6-1.4-2-3.9-3-7.5-3-4 0-6.8 1.3-8.4 3.9-1.6 2.6-2.4 7.1-2.4 13.5v24.9h-12V25.6z"/><path fill="#6ABD45" d="M148.5 11.1c0-2.1.8-3.9 2.3-5.4 1.5-1.5 3.3-2.3 5.5-2.3s4 .8 5.5 2.3c1.5 1.5 2.3 3.3 2.3 5.5s-.8 4-2.3 5.5c-1.5 1.5-3.3 2.3-5.5 2.3s-4-.8-5.5-2.3c-1.5-1.6-2.3-3.4-2.3-5.6z"/></svg>