<svg xmlns="http://www.w3.org/2000/svg" viewBox="0 0 146.7 148.2"><circle fill-rule="evenodd" clip-rule="evenodd" fill="#C01E23" cx="73.6" cy="74.7" r="68.6"/><g fill="#FFF"><path d="M62.8 71.6v3c0 .9-.4 1.7-1.1 2.2l-5.1 3.8 5.1 3.7c.7.5 1.1 1.4 1.1 2.2v3c0 1.5-1.3 2.8-2.8 2.8h-.1c-.6 0-1.2-.2-1.7-.6l-11-8.2c-.7-.5-1.1-1.4-1.1-2.2v-1.6c0-.9.4-1.7 1.1-2.2l11.1-8.3c.8-.6 2-.7 2.9-.3 1 .6 1.6 1.6 1.6 2.7zm16.7-2.8h-2.9c-.3 0-.5.2-.6.4l-9.5 22.1c0 .1-.1.4-.1.4 0 .4.3.7.7.7H70c.3 0 .5-.2.6-.4l9.5-22c0-.1.1-.2.1-.3v-.2c0-.4-.3-.7-.7-.7zm20.5 8.8l-10.9-8.3c-.5-.4-1.3-.6-1.9-.6-1.5 0-2.8 1.3-2.8 2.8v3c0 .9.4 1.7 1.1 2.2l5.1 3.8-5 3.7c-.7.5-1.1 1.4-1.1 2.2v3c0 1.1.6 2 1.5 2.5.4.2.8.3 1.3.3.6 0 1.2-.2 1.7-.5l11.1-8.2c.7-.5 1.1-1.4 1.1-2.2v-1.6c-.1-.7-.5-1.6-1.2-2.1z"/><path d="M108.3 43.2H38.9c-3.6 0-6.5 2.9-6.5 6.5v50c0 3.6 2.9 6.5 6.5 6.5h69.5c3.6 0 6.5-2.9 6.5-6.5v-50c0-3.6-3-6.5-6.6-6.5zm-68.8 6.3c0-1.2 1-2.2 2.2-2.2h3.5c1.2 0 2.2 1 2.2 2.2V53c0 1.2-1 2.2-2.2 2.2h-3.5c-1.2 0-2.2-1-2.2-2.2v-3.5zm71 50.2c0 1.2-1 2.2-2.2 2.2H38.9c-1.2 0-2.2-1-2.2-2.2V59.2h73.8v40.5z"/></g></svg>