<svg xmlns="http://www.w3.org/2000/svg" viewBox="0 0 146.7 148.2"><circle fill-rule="evenodd" clip-rule="evenodd" fill="#C01E23" cx="73.5" cy="74.7" r="68.6"/><g fill="#FFF"><path d="M102.8 56.2c0-15.8-13.7-28-29.3-28.1-16.2 0-29.2 13.1-29.3 29.2v.1c0 7.7 3.9 13.8 5.8 17.4 4.4 7.9 5 9.4 5.9 12.7.7 2.3.6 5.2.6 8.2 0 1.8 1.5 3.2 3.3 3.2H87c1.8 0 3.3-1.4 3.3-3.2.1-3 0-5.8.7-8.3.8-3.2 2.3-6.7 5.9-12.6 4.4-7 5.9-13.3 5.9-18.6zm-6.6 0c-.1 4.4-1 8.9-4.9 15.2-3.8 6.1-5.7 10.4-6.7 14.4-.6 2.3-.7 4.5-.8 6.5H63.2c0-2-.2-4.2-.8-6.6-1-3.9-2.2-6.4-6.5-14.1-2.1-3.7-5-8.8-5-14.2 0-12.6 10.1-22.7 22.7-22.7 6.1 0 11.8 2.4 15.9 6.3 4.1 4 6.7 9.3 6.7 15.2zM60.3 108.2h26.3c1.8 0 3.3-1.5 3.3-3.3 0-1.8-1.5-3.3-3.3-3.3H60.3c-1.8 0-3.3 1.5-3.3 3.3 0 1.8 1.5 3.3 3.3 3.3zM60.3 117.3h4.6l.9 2.3c.2.4.6.7 1.1.7H80c.4 0 .9-.3 1.1-.7l.9-2.3h4.6c1.8 0 3.3-1.5 3.3-3.3 0-1.8-1.5-3.3-3.3-3.3H60.3c-1.8 0-3.3 1.5-3.3 3.3 0 1.8 1.5 3.3 3.3 3.3z"/></g></svg>