<svg id="Layer_1" xmlns="http://www.w3.org/2000/svg" viewBox="0 0 146.7 148.2"><style>.st0{fill:#c01e23}.st1{fill:#fff}</style><circle class="st0" cx="73.5" cy="74.7" r="68.6"/><path class="st1" d="M93.2 45.3c-6-2.8-12.7-4.4-19.8-4.4-24.9 0-45.1 19.5-45.1 43.4v9.3c0 1.3 1 2.3 2.3 2.3h2.3c1.3 0 2.3-1 2.3-2.3v-9.3c0-20.2 17.1-36.5 38.2-36.5 5.9 0 11.4 1.3 16.4 3.5l3.4-6zM98.6 48.3l-3.5 6c9.9 6.6 16.4 17.6 16.4 30v9.3c0 1.3 1 2.3 2.3 2.3h2.3c1.3 0 2.3-1 2.3-2.3v-9.3c.1-14.9-7.8-28.2-19.8-36z"/><path class="st1" d="M106.9 88.1l-3.4-1.4c-1.1-.5-1.1-1.2 0-1.7l3.4-1.4h.1c-.1-4.5-1.2-8.8-3.1-12.7-.1 0-.3.1-.4.1l-3.7.5c-1.2.2-1.6-.5-.8-1.5l2.3-2.9.3-.3c-2.5-3.6-5.6-6.7-9.4-9.1l-.1.1-2.9 2.3c-1 .8-1.6.4-1.5-.8l.5-3.7v-.1c-3.9-1.8-8.1-2.9-12.7-3.2l-1.3 3.4c-.5 1.2-1.2 1.2-1.7 0l-1.3-3.4c-4.5.3-8.8 1.4-12.7 3.2v.1l.5 3.7c.2 1.2-.5 1.6-1.5.8L54.7 58c-.1 0-.1-.1-.1-.1-3.7 2.4-6.9 5.5-9.4 9.1l.3.3 2.3 2.9c.8 1 .4 1.6-.8 1.5l-3.8-.7c-.1 0-.3-.1-.4-.1-1.9 3.9-3 8.2-3.1 12.7h.1l3.4 1.4c1.2.5 1.2 1.2 0 1.7l-3.4 1.4h-.1v4.2c0 2 1.7 3.6 3.7 3.6h20.2c-1.1-2.1-1.4-4.7-.8-7.2.9-3.6 3.5-6.3 6.8-7.5L81 59.1 80.8 84c2.4 2.5 3.5 6.1 2.6 9.7-.2.8-.5 1.5-.8 2.2h20.7c2.1 0 3.7-1.6 3.7-3.6l-.1-4.2z"/><circle class="st1" cx="73.4" cy="91.1" r="4.8"/></svg>