<svg id="Layer_1" xmlns="http://www.w3.org/2000/svg" viewBox="0 0 146.7 148.2"><style>.st0{fill:#c01e23}.st1{fill:#fff}</style><circle class="st0" cx="73.4" cy="74.7" r="68.6"/><path class="st1" d="M105 82.9l-19-7.1-12.4 24.8-12.5-24.9-19 7.1c-3.5 1.3-5.8 4.7-5.8 8.4v15.5h74.5V91.2c0-3.7-2.3-7-5.8-8.3zM59.9 62.8c2.9 7 5.7 12.9 13.6 12.9 8 0 10.8-6 13.6-12.9 3.1-1.7 5-4.1 5-6.7 0-1.7-.8-3.2-2.2-4.6.1-.7.1-1.4.1-2.1 0-10.1-6.8-17.2-16.6-17.2-9.7 0-16.6 7.1-16.6 17.2 0 .7 0 1.4.1 2.1-1.4 1.4-2.2 2.9-2.2 4.6.2 2.6 2.1 4.9 5.2 6.7z"/></svg>