<svg xmlns="http://www.w3.org/2000/svg" viewBox="0 0 146.7 148.2"><circle fill-rule="evenodd" clip-rule="evenodd" fill="#C01E23" cx="73.4" cy="74.7" r="68.6"/><g fill="#FFF"><path d="M101.2 76.1c0-2.6-2.1-4.7-4.7-4.7s-4.7 2.1-4.7 4.7V72c0-2.6-2.1-4.7-4.7-4.7s-4.7 2.1-4.7 4.7v-3.9c0-2.6-2.1-4.7-4.7-4.7S73 65.5 73 68.1V51.7c0-2.6-2.1-4.7-4.7-4.7s-4.7 2.1-4.7 4.7v35.5c-2.1-2.7-4.5-6.1-7.6-9.3-3.4-3.5-7.6-4.4-10.6-2-1.3 1.1-1.2 3.6-.1 4.8 2 2.5 7.8 13.2 8.9 15.9.8 1.9 5.5 11.3 9.4 12.5 1.4.4 1.5 2.1 1.5 2.1 0 2.4 1.9 4.3 4.3 4.3h26.2c2.4 0 3.2-1.4 4.3-4.3.9-2.9 1.3-35.1 1.3-35.1zM69 38.7h-1.7c-1.2 0-2-1-1.9-2.1l-.5-7.8c0-1.8 1.4-3.2 3.2-3.2 1.8 0 3.2 1.4 3.2 3.2l-.5 7.8c.2 1.1-.6 2.1-1.8 2.1zm-10.9 3.8l-1.2 1.2c-.8.8-2.1.8-2.8-.2l-5.9-5.2c-1.3-1.3-1.3-3.3 0-4.6 1.3-1.3 3.3-1.3 4.6 0l5.2 5.9c.8.8.9 2.1.1 2.9zm-5 10.4v1.7c0 1.2-1 2-2.1 1.9l-7.8.5c-1.8 0-3.2-1.4-3.2-3.2 0-1.8 1.4-3.2 3.2-3.2l7.8.5c1.1-.2 2.1.6 2.1 1.8zM85.4 51l7.8-.5c1.8 0 3.2 1.4 3.2 3.2 0 1.8-1.4 3.2-3.2 3.2l-7.8-.5c-1.2.2-2.1-.7-2.1-1.9v-1.7c-.1-1.1.9-1.9 2.1-1.8zm-7-11.3l5.2-5.9c1.3-1.3 3.3-1.3 4.6 0 1.3 1.3 1.3 3.3 0 4.6l-5.9 5.2c-.7.9-2 1-2.8.2l-1.2-1.2c-1-.9-.9-2.2.1-2.9z"/></g></svg>