<svg id="Layer_1" xmlns="http://www.w3.org/2000/svg" viewBox="0 0 146.7 148.2"><style>.st0{fill:#c01e23}.st1{fill:#fff}</style><circle class="st0" cx="73.5" cy="74.7" r="68.6"/><path class="st1" d="M99.5 37v75.4c0 1.1-1 2.1-1.9 2.3-6 1.6-14.6 2.6-24.1 2.6s-18.1-1-24.1-2.6c-.9-.2-1.9-1.2-1.9-2.3V87.2 37c0-1.1 1-2.1 1.9-2.3 6-1.6 14.6-2.6 24.1-2.6s18.1 1 24.1 2.6c.9.2 1.9 1.1 1.9 2.3zm-3.7 4.6c0-.9-.7-1.6-1.6-1.6H52.9c-.9 0-1.6.7-1.6 1.6v64.7c0 .9.7 1.6 1.6 1.6h41.3c.9 0 1.6-.7 1.6-1.6V41.6zM73.5 109c-1.7 0-3 1.3-3 3s1.3 3 3 3 3-1.3 3-3c0-1.6-1.3-3-3-3zM82 36.5c0-.5-.4-.8-.8-.8H65.9c-.5 0-.8.4-.8.8 0 .5.4.8.8.8h15.3c.4.1.8-.3.8-.8z"/></svg>