<svg xmlns="http://www.w3.org/2000/svg" viewBox="0 0 416.1 314.2"><path d="M-83.4 254.5h-82.4c-3 0-5.4 2.4-5.4 5.4 0 3 2.4 5.4 5.4 5.4h82.4c3 0 5.4-2.4 5.4-5.4 0-3-2.4-5.4-5.4-5.4zM-83.4 274h-82.4c-3 0-5.4 2.4-5.4 5.4 0 3 2.4 5.4 5.4 5.4h82.4c3 0 5.4-2.4 5.4-5.4 0-3-2.4-5.4-5.4-5.4z"/><path fill="#C01E23" d="M-83.4 293.4h-82.4c-3 0-5.4 2.4-5.4 5.4 0 3 2.4 5.4 5.4 5.4h16c.1 5.5 4.6 10 10.1 10h30.2c5.5 0 10-4.4 10.1-10h16c3 0 5.4-2.4 5.4-5.4 0-2.9-2.4-5.4-5.4-5.4z"/><path d="M-124.6-14.9C-184.4-14.9-233 33.7-233 93.5c0 27.2 16.9 55.6 22.2 63.6-.1-.2 7.7 12.2 7.7 12.2 13.6 21.4 26.5 41.6 29.5 66.3.7 5.3 5.1 9.2 10.4 9.2h78.8c5.3 0 9.8-4 10.4-9.2 3.3-26.6 16.7-48.1 30.9-70.9l4.8-7.8c5.1-7.9 22-36.3 22-63.4.1-59.8-48.5-108.4-108.3-108.4z"/><g><path d="M235.5 159.7c3.4-1.9 4.9-5.8 4.2-9.4-2.8-9.8-6.8-19.5-12.2-28.8-5.4-9.3-11.7-17.6-18.9-25-2.7-2.5-6.9-3-10.2-1.1-1.1.6-2 1.4-2.7 2.4l-5.7 6.6c-10.1-8.9-22-15.8-35-20.2l2.8-8.2c.5-1.1.7-2.2.7-3.5 0-3.9-2.5-7.2-6-8.3-9.9-2.5-20.3-3.8-31.1-3.8-10.7 0-21.1 1.3-31.1 3.8-3.5 1.2-6 4.4-6 8.3 0 1.2.3 2.4.7 3.5l2.8 8.2c-13 4.4-24.9 11.4-35 20.3l-5.7-6.6c-.7-.9-1.6-1.8-2.7-2.4-3.4-1.9-7.5-1.4-10.2 1.1-7.1 7.4-13.5 15.7-18.9 25-5.4 9.3-9.4 18.9-12.2 28.8-.8 3.6.8 7.4 4.2 9.4 1.1.6 2.2 1 3.4 1.1l8.5 1.7c-1.3 6.5-2 13.3-2 20.2 0 6.9.7 13.7 2 20.2l-8.5 1.7c-1.2.1-2.3.5-3.4 1.1-3.4 1.9-4.9 5.8-4.2 9.4 2.8 9.9 6.8 19.5 12.2 28.8 5.4 9.3 11.7 17.6 18.9 25 2.8 2.5 6.9 3 10.2 1.1 1.1-.6 2-1.4 2.7-2.4l5.7-6.6c10.1 8.9 22 15.8 35 20.2l-2.8 8.2c-.5 1.1-.7 2.3-.7 3.5 0 3.9 2.5 7.2 6 8.3 9.9 2.5 20.3 3.8 31.1 3.8 10.7 0 21.1-1.3 31-3.8 3.5-1.1 6-4.4 6-8.3 0-1.2-.3-2.4-.7-3.5l-2.8-8.2c13-4.4 24.9-11.4 35-20.2l5.8 6.6c.7 1 1.6 1.8 2.7 2.4 3.3 1.9 7.4 1.4 10.2-1.1 7.1-7.3 13.5-15.7 18.9-25 5.3-9.3 9.4-18.9 12.2-28.8.8-3.6-.8-7.4-4.2-9.4-1.1-.6-2.2-1-3.4-1.1l-8.5-1.7c1.3-6.5 2-13.3 2-20.2 0-6.9-.7-13.7-2-20.2l8.5-1.7c1.1-.2 2.3-.6 3.4-1.2zm-114 80.6c-31.8 0-57.6-25.9-57.6-57.6s25.9-57.6 57.6-57.6 57.6 25.9 57.6 57.6-25.9 57.6-57.6 57.6zM352.9 86.9l-7.4-1.5c.7-3.5 1.1-7.1 1.1-10.8 0-3.7-.4-7.3-1.1-10.8l7.4-1.5c.7-.1 1.3-.3 1.9-.6 1.9-1.1 2.8-3.2 2.3-5.2-1.6-5.5-3.8-10.9-6.8-16.1-3-5.2-6.5-9.8-10.5-14-1.5-1.4-3.8-1.7-5.7-.6-.6.4-1.1.8-1.5 1.3l-5 5.7c-5.4-4.7-11.7-8.4-18.7-10.8l2.4-7.2c.3-.6.4-1.3.4-1.9 0-2.2-1.4-4-3.4-4.6-5.5-1.4-11.4-2.2-17.3-2.2-6 0-11.8.7-17.3 2.2-1.9.6-3.4 2.5-3.4 4.6 0 .7.1 1.3.4 1.9l2.4 7.2c-6.9 2.4-13.3 6.1-18.7 10.8l-5-5.7c-.4-.5-.9-1-1.5-1.3-1.9-1.1-4.2-.8-5.7.6-4 4.1-7.5 8.8-10.5 14-3 5.2-5.2 10.6-6.8 16.1-.4 2 .4 4.1 2.3 5.2.6.4 1.3.6 1.9.6l7.4 1.5c-.7 3.5-1.1 7.1-1.1 10.8 0 3.7.4 7.3 1.1 10.8l-7.4 1.5c-.6.1-1.3.3-1.9.6-1.9 1.1-2.8 3.2-2.3 5.2 1.6 5.5 3.8 10.9 6.8 16.1 3 5.2 6.5 9.8 10.5 13.9 1.5 1.4 3.8 1.7 5.7.6.6-.4 1.1-.8 1.5-1.3l5-5.7c5.4 4.7 11.7 8.4 18.7 10.8l-2.4 7.1c-.3.6-.4 1.3-.4 2 0 2.2 1.4 4 3.3 4.6 5.5 1.4 11.4 2.2 17.3 2.2 6 0 11.8-.7 17.3-2.2 2-.7 3.4-2.5 3.4-4.6 0-.7-.1-1.4-.4-2l-2.4-7.2c6.9-2.4 13.2-6.1 18.6-10.8l5 5.7c.4.5.9 1 1.5 1.3 1.9 1.1 4.2.8 5.7-.6 4-4.1 7.5-8.8 10.5-14 3-5.2 5.2-10.6 6.8-16.1.4-2-.5-4.2-2.3-5.2-.4-.1-1-.3-1.7-.4zm-61.8 21.6c-18.6 0-33.8-15.1-33.8-33.8 0-18.7 15.1-33.8 33.8-33.8 18.7 0 33.8 15.1 33.8 33.8.1 18.6-15.1 33.8-33.8 33.8z"/><path d="M121.5 150.1c-18 0-32.6 14.6-32.6 32.6s14.6 32.6 32.6 32.6 32.6-14.6 32.6-32.6-14.7-32.6-32.6-32.6zM291.2 59.4c-8.4 0-15.3 6.8-15.3 15.3 0 8.4 6.9 15.3 15.3 15.3s15.3-6.9 15.3-15.3c-.1-8.4-6.9-15.3-15.3-15.3zM406.6 243.3l-8.8-1.8c.8-4.2 1.3-8.5 1.3-12.9s-.5-8.7-1.3-12.9l8.8-1.7c.8-.1 1.6-.3 2.3-.8 2.2-1.3 3.3-3.9 2.8-6.3-1.9-6.6-4.6-13.1-8.2-19.3-3.6-6.2-7.8-11.8-12.6-16.7-1.9-1.6-4.6-2-6.9-.7-.7.4-1.3 1-1.8 1.6l-6 6.8c-6.5-5.7-14-10.1-22.3-12.9l2.9-8.6c.3-.7.5-1.5.5-2.3 0-2.6-1.7-4.8-4-5.6-6.6-1.7-13.6-2.6-20.8-2.6-7.2 0-14.1.9-20.8 2.6-2.3.8-4 2.9-4 5.6 0 .8.2 1.6.5 2.3l2.9 8.6c-8.3 2.8-15.9 7.2-22.4 12.9l-6-6.8c-.5-.6-1.1-1.2-1.8-1.6-2.2-1.3-5-.9-6.8.7-4.8 4.9-9 10.5-12.6 16.7-3.6 6.2-6.3 12.7-8.1 19.3-.5 2.4.5 5 2.8 6.3.7.4 1.5.7 2.3.8l8.8 1.7c-.8 4.2-1.3 8.5-1.3 12.9s.5 8.7 1.3 12.9l-8.8 1.8c-.8.1-1.5.3-2.3.7-2.2 1.3-3.3 3.9-2.8 6.3 1.9 6.6 4.6 13.1 8.1 19.3 3.6 6.2 7.8 11.8 12.6 16.7 1.8 1.6 4.6 2 6.8.7.7-.4 1.3-1 1.8-1.6l6-6.8c6.5 5.7 14 10.1 22.4 12.9l-2.9 8.6c-.3.7-.5 1.5-.5 2.3 0 2.6 1.7 4.8 4 5.6 6.6 1.7 13.6 2.6 20.8 2.6 7.2 0 14.1-.9 20.8-2.6 2.4-.8 4-2.9 4-5.6 0-.8-.2-1.6-.5-2.3l-2.9-8.6c8.3-2.8 15.9-7.3 22.3-12.9l6 6.8c.5.6 1.1 1.2 1.8 1.6 2.3 1.3 5 .9 6.8-.7 4.8-4.9 9-10.5 12.6-16.7 3.6-6.2 6.3-12.7 8.1-19.3.5-2.4-.6-5-2.8-6.3-.5-.4-1.3-.6-2.1-.7zm-74 25.8c-22.3 0-40.5-18.1-40.5-40.5 0-22.3 18.1-40.5 40.5-40.5s40.5 18.1 40.5 40.5-18.1 40.5-40.5 40.5z"/><path fill="#C01E23" d="M332.6 210.3c-10.1 0-18.3 8.2-18.3 18.3 0 10.1 8.2 18.3 18.3 18.3 10.1 0 18.3-8.2 18.3-18.3 0-10.1-8.2-18.3-18.3-18.3z"/></g><g><path fill="#C01E23" d="M208 527.7c-4.6-19.1-14.5-36.1-28-49.4-13.6 13.3-23.5 30.3-28 49.4-.1 0 27.8 8.7 56 0z"/><path d="M165.7 636.6c-16.4 11.2-36.2 17.7-57.6 17.7-56.7-.1-102.6-46-102.7-102.7.1-40.5 23.5-75.4 57.5-92.2 9.4 36 34.9 65.5 68.4 80.2 0 .1-8.6 52.3 34.4 97zM179.9 625c36.3-35.4 30.8-79.1 30.8-79.1-33.1 8.8-61.5 0-61.5 0s-4.2 45.9 30.7 79.1zM165.7 466.6c-14.7 14.9-25.6 33.6-31 54.4-27.1-13.3-47.4-38.2-54.6-68.2 0 .1 43.6-14.8 85.6 13.8zM194.2 636.7c16.4 11.1 36.2 17.7 57.5 17.7 56.7-.1 102.6-46 102.7-102.7-.1-40.5-23.5-75.4-57.5-92.2-9.4 36-34.9 65.5-68.5 80.2.1 0 7.5 54.8-34.2 97zM179.9 454.3s43.1-35 102.4-19.7c3.1-63.2-48-108.3-102.4-108.4-54.8.1-105 45-102.4 108.6-.1-.1 52.7-16.4 102.4 19.5zM279.8 452.9c-7.2 30-27.5 54.9-54.6 68.2-5.4-20.9-16.3-39.6-31-54.4-.1-.1 37.8-28.4 85.6-13.8z"/></g></svg>