<svg id="Layer_1" xmlns="http://www.w3.org/2000/svg" viewBox="0 0 501 301"><style>.st0{fill:#fff}</style><path class="st0" d="M313.7 20.2h69.2v175.4h-69.2z"/><path class="st0" d="M212.1 227.9V34h69.2v189.2h106.2c6.9 0 11.5 0 13.8-2.3 4.6 0 6.9-2.3 9.2-4.6 2.3-2.3 4.6-4.6 4.6-9.2 0-2.3 2.3-9.2 2.3-16.2V20.2h69.2v175.4c0 13.8-2.3 27.7-4.6 36.9s-11.5 25.4-11.5 25.4c-9.2 11.5-18.5 18.5-30 20.8-11.5 2.3-27.7 4.6-48.5 4.6H212v-55.4z"/><path class="st0" d="M19.1 20.9h260.8v57.7H19.1zM103.7 107.9h69.2V281h-69.2z"/></svg>