<svg id="Layer_1" xmlns="http://www.w3.org/2000/svg" viewBox="0 0 476 462"><style>.st0{fill:#c01e23}.st1{fill:#fff}</style><path class="st0" d="M195.7 139.2c10.3-13.9 12.5-33.5 5.5-49.4-4.4-9.9-12.3-19.7-9.7-30.3 2.3-9.7 12.4-14.9 21.3-18.9 18.3-8.2 37.2-16.5 57.2-17 13.9-.3 27.6 3.2 40.9 7.3 18.7 5.8 37.1 12.8 54.9 21.1 9.2 4.3 19.6 10.7 20.2 21 .3 5.6-2.4 10.9-3 16.4-1.6 14.8 11.5 26.5 17.5 40.2 5.2 11.7 4.9 25.2 8.6 37.5 6.7 22.6-22.1 14.5-7.1 32.4 11.1 13.3-14.9 21.6 20.3 68.9 1.1 1.5 16.5 19.4 18.1 20.4 21 12.4 15.3 33.8 6.2 31.8-7.5-1.6-14.8-3.9-22.4-4.7-7.6-.7-17 4-16.5 11.8 5.4-1.4 9.5 5.4 9.5 11 0 5.7-1.9 11.6.2 16.8 2.7 6.7 11.7 11.6 9.7 18.6-.8 2.9-3.4 4.8-5.9 6.3-10.3 6.2-23.3 9.3-29.9 19.5-2.1 3.2-3.5 7-6.6 9.1-2.5 1.8-5.7 2.1-8.8 2.2-14.9.7-30-1.6-44-6.8-6.9 5.9 4.7 18.8-.8 26.2-1.8 2.3-4.8 3.2-7.6 3.9-18.4 4.5-37.2 6.8-56.1 6.8-2.4-7.7-2.4-16.2-.1-23.9-1 5.8-3 12.1-8.1 14.9s-13.2-1.6-11.7-7.3c-12.2 9.9-23.6-125.6-45 10.6-.9 5.8-9 8.2-14.7 9.3-7.2 1.5-13.9-3.9-19.3-9-7.5-7.1-14.9-14.5-20.9-23-6.9-9.9-11.7-21.1-19.1-30.6-11.2-14.4-27.3-23.7-43.1-32.6-7.3-4.1-18-7.6-22.7-.5-3.2 4.9-1.2 12.4-5.5 16.3-5.1 4.7-13-.7-17.3-6.1-3.9-4.8-7.5-10.3-8.4-16.4-.8-6.2 2-13.3 7.8-15.4 6.6-2.4 13.5 2.2 20.3 4.1 18.1 5.1 35.4-9.5 48.8-22.9 15-15 12.1-19.8 7.8-40.8-1.6-7.8 13.6-31.6 19.5-36.8 4.8-4.3 12.6-1.8 18.5-4.4 4.2-1.8 6.9-5.9 10-9.3 6.4-7 15.5-11.3 24.8-11.9 2.8-.2 5.9-.1 8.2-1.7 2.3-1.6 3.4-4.5 4.4-7.1 3.3-9.3 6.6-18.9 6.9-28.8.3-9.9-3-20.5-10.8-26.5"/><path class="st1" d="M186.6 135.2c1.1-9.4 2.7-18.8 4.9-28 2.4-10.3 7.6-22.2 18.1-23.5 8.7-1 17.7 6.3 25.8 3 4.6-1.9-16.6-46.9-13-50.2 6.7-6.2 44.2 0 53.3 1.4 9 1.4 34.8 5.1 21.8 42.1-1.5 4.4 8.4 4.4 13.1 4.7 3.1.2 6.1-.5 9.1-.9 21.5-3.4 44.2 2.1 61.7 15-5 6-18.3 0-20.9 7.3-1.1 3 .8 6.2 2.3 8.9 6.2 10.9 8.7 23.9 7.2 36.3-.2 1.7-.5 3.5-1.6 4.9-2.6 3.5-8.1 2.6-12.2 4.3-7.3 3-7.6 14.7-1.4 19.7s15.6 3.9 22.2-.5c5.8 7.3-1.3 17.3-5 25.8-3.8 8.8-3.6 19.2.5 27.8 2.2 4.7 5.5 8.8 7.7 13.4 2.2 4.7 3.2 10.4.7 14.9s-9.4 6.6-13 2.9c1.8 6.8 9.2 10.1 15.4 13.3 6.2 3.2 13 8.8 11.7 15.7-1.6 8.7-15.2 12.9-13.8 21.7.6 4.1 4.4 6.8 7 10 7.1 8.6 6 21.9 0 31.4-5.9 9.5-15.7 15.9-25.4 21.4-10.1 5.7-21.7 11-33 8.1-3.5-.9-6.9-2.6-10.5-2.4s-7.5 3.3-6.6 6.8c.7 2.9 3.9 4.2 6.3 5.8 2.4 1.6 4.4 5.4 2.1 7.3-21-1-42.1-2-63.1-3.1-1.7-.1-3.5-.1-4.8.9-3 2.4-.6 8-3.4 10.6-1.5 1.3-3.7 1.2-5.7.9-7.3-.8-14.6-1.7-22-2.5-2.6-12.2-5.3-24.3-7.9-36.5-1.3-6.1-2.6-12.5-.5-18.3 1.7-4.6 5.2-10.2 1.8-13.8-1.1-1.1-2.7-1.6-4.2-2.1-10.1-3.1-20.3-6.2-30.4-9.3-5.3 17.4-4.7 36.5 1.7 53.5 1.8 4.9 4.2 9.7 4.1 14.9-.3 11.6-13.3 19.6-24.8 18.7-11.6-.9-21.6-8-30.6-15.2-27.4-21.8-52-46.8-76.8-71.5-1.2-1.2-2.4-2.4-4-3.1-2.7-1.2-5.8-.4-8.8-.6-8.4-.3-15.5-8.8-14.4-17 6.3-9.6 23.6.6 32.3-6.9 2.1-1.8 3.3-4.5 5-6.6 7-8.8 20.1-8.3 31.2-9.8 2.2-.3 4.5-.7 6-2.3 2.1-2.2 1.8-5.6 1.6-8.6-.6-10.1.9-20.3 4.6-29.7 7.9-20.2 24.7-35.5 42.1-48.5 4-3 8.3-6.1 10.4-10.7.6-1.4 1.1-3 2.1-4.2 2.9-3.3 8.3-1.7 12 .8 3.6 2.5 7.6 5.6 11.9 4.6 5.2-1.3 6.9-7.7 7.4-13.1 1.8-22.2-1.2-44.9-8.8-65.9"/><path d="M307.1 49.9c-1.3-2.2-4.9-2.2-6.3-4.3 1.8-1.7-.1-5.4 2-6.8 2.6.9 4.2 4.3 3.4 6.8 1.7.5 3.3-1.4 4.3-2.6 0-1.6-1.7-2.7-2.8-3.7-2.7-2.4-6.6-4.3-11.4-3.4-4.2.8-10.8 5.9-7.7 10 1.5 2 5.7 3.6 9.7 4.3 2.9.4 6.2 1.3 8.8-.3zM270.1 61.5c.5 2 2.8 1.4 4.3 2 3.1 1.3 6.2 5.2 5.7 8.5-.3 2.3-3.4 3.2-1.1 5.7 10.3-3.8-.7-19.8-8.9-16.2zM257.5 63.8c.4 2.1 2.7 1.1 4 1.4 3.4.9 6.1 3.3 8.3 5.1.6 1.9.8 4.3 2.6 5.1 2.4-1.2 1.3-4.7.3-6.3-2.6-3.5-10.1-7.4-15.2-5.3zM302.5 65.5c2.1-.8 4-1.7 6.6-2 4.5 5.6 1.5 17.7-6.6 17.7-.8-.2-.7-1.4-1.4-1.7-3.7 1.4-11.4 1-14.2-1.1 1.8-1.3 2.6-5 5.1-4.6.8 1.4-1.8 2.7-1.1 4 5 1 4-6.4 7.1-8.3 1.3 3.1-1.5 6.6-3.1 9.1 8.4 2.5 5.1-8.9 7.6-13.1zm1.7 10.3c-1.2-.1-1.5.6-2 1.1.2 1.2 1.5 1.3 2.3.6.1-.7.1-1.4-.3-1.7zM321.9 74.3h-.9c-2.4 4.1-7.7 6.1-13.1 6.3 5 5.7 14.3-.6 14-6.3zM343.3 85.5c-4.4 3.7-13.7 5.6-17.4.9 1.6-.9 2.9-.3 4.3-.3 7.3 0 8.5-6.1 14-7.4.2 3.1-2.6 3.1-2.8 5.7 3.8-.9 3.7-5.6 6.8-7.1 0 2.7-2.1 5.8-4.9 8.2zm-2.3-.6c-1.1.1-2 .5-2.3 1.4.8-.4 2.2-.2 2.3-1.4zM315.6 92.3c1.2 1.2 1.8.3 3.7.3 8.8 3.8 25.9 13.7 33 2.6-5.8 3.8-11.4 1.9-19.1-.9-4.4-1.6-8.7-4.3-11.7-4.8-2.7-.6-5.3.3-5.9 2.8zM309.4 149c-1.5-4.5-7.1-4.9-8.8-9.1-3.8-3.1-10.7-3.2-14.2-6.6-2.7-.2-5.2-.7-6.8-.6-3.1 1.2-7 0-11.4 1.7-.6.2-1.3 1.3-2.3 1.7-1.6.7-4.1.7-6 1.7-2.7 1.4-6.1 4.8-6.3 6.3-.2 1.8 1.6 3.7 3.7 3.7 1.4 0 4.5-2.1 6.6-3.1 2.5-1.2 4.6-1.7 6.8-2.6 4.4-1.6 9.9-4.6 16.5-3.7 5.9.8 9.9 3.2 14 6 2.4 1.7 4.7 4.5 8.2 4.6zM331.6 134.7c.6.9 1.5 1.5 3.1 1.4-.1-1.3-2.1-2.5-3.1-1.4zM328.2 139.9c-.4 2.6 3.3 2.5 5.1 2-.8-1.5-2.8-2.9-5.1-2zM326.5 143c1 3.7 8.7 4.9 12.5 4.6-3-2.6-7.7-4.8-12.5-4.6zM245.6 172.9c2.6-.9 1.2-3.8 2.3-5.7 2.4-4.3 8.3-5.5 11.7-8.8-3.9-2.8-7.8 3.3-11.4 4.6-1.1 2.2-2.7 3.7-4 5.7.4 1.3 0 3.7 1.4 4.2zM282.3 165.5c-2.4 3.2 2.7 6 4.3 2.8.3-2.6-2.2-4.3-4.3-2.8zM216.2 171.8c1.6.3 3.4 0 4.3-1.1.7-6.7-7.8-3.6-4.3 1.1zM265.2 172.6c-.1 2.2 4.1 1.6 4.8.6-.6-1.4-3.7-1.9-4.8-.6zM201.1 175.5c.3 3.1 6.2 2.1 7.4 1.1-.8-1.7-6-2.7-7.4-1.1zM368.3 197.1c5.3-.3 3.3-7.5 3.1-11.1-.2-4.3-2.1-8-4.3-10.3-.3 0-.5.1-.6.3-3.6 2.2-1.1 4.9 0 8.8 1.4 4.9.4 8.5 1.8 12.3zM266.1 179.2c3.5 3.5 12.3 4.3 15.1 0-1.6-1.1-4.6-.2-7.7-.3-3-.1-6.3-1.7-7.4.3zM206 180.3c1.9 3.1 11.7 3.1 13.1-.9-2.8-.2-9.5.2-13.1.9zM353.2 185.7c3 4.4 12.4 10 5.4 16.8-4.5-2.6-8.1-.4-9.7 3.4-.4-2.6 2.7-5.6 2.6-8-5.3-.1-8.5 10.4-3.4 11.1 3.2.4 3.2-3.6 5.1-5.1 3.1-.4 3.4 1.9 5.4 2 4.5.1 6.8-6.1 6.3-10.8-.4-3.3-3.6-8.1-5.7-9.7-1.3-.9-4.9-2.7-6 .3zM242.4 199.4c.2 4.1 5.6 4.3 6 7.7.3 2.9-2.6 3.8-2.8 7.1 3.3.7 4.5-3.1 5.7-5.4-1.2-4.8-4.2-9.1-8.9-9.4zM231.9 209.9c1.9 1.3 3.3-.7 5.4-.3 2.1.4 3.9 4 5.7 1.1-.8-3.8-10.6-6.4-11.1-.8zM351.8 219.3c2.5 2.6 4.8-1.2 6.6-2.9 2.1-1.9 4.2-4.1 6-5.4v-.9c-6.1.2-9.1 5.7-12.6 9.2zM260.9 212.2c.2 2.5 2.8 5.4 5.1 7.4 2.1 1.8 5.7 3.8 7.7 5.7 2.3 2.1 3.1 5 7.4 3.7-.4-5.7-7-7.3-11.1-10.3-3.3-2.3-5.2-6.9-9.1-6.5zM209.7 223.1c.4 2.1-1.2 3.5-.3 5.1.3 0 .5.1.6.3 2.2-.5 2-3.3 2.6-5.4-.7-.6-2.2-.3-2.9 0zM229.6 230.2c6.8-3.6 14.8-1.5 22.2.3 3.2.8 6.6.7 9.4 1.4 5.1 1.3 12.7 2.6 14.2 4 .7.6.9 1.5 1.1 2.6-1.6 2.6-3.4 3.9-6 5.7-3 2-5.2 4.1-9.1 4.8-3.8.8-9.3 1.7-12.2 2-3.7.4-7.2-.2-8.5 2.6 5.2 2.1 7.7-3.7 13.1-1.4.9.4.9 1.8 1.7 2.3 2.5-.5 4.3-1.8 7.1-2-2.3 5.6-9.7 6.1-14.5 9.1-9.6 1.3-19.1 2.6-24.2-2.6-1.5-1.5-3.2-5.2-4-8-.7-2.7-2.3-8.3.3-9.7 2.5 2.6 1.8 10.9 6.8 9.1-.9-1.9-3-2.5-2.6-5.7-2.4-5.3-10.3-5.1-10-13.1 4.1-3.8 9.8-1.5 15.2-1.4zm-6.3 5.4c-.4 2.3-.1 4.7 1.1 6.6 6.7 3.9 16.2.2 23.4.3 1.6 0 3.3.9 4.8.9 3.2-.1 5.3-1.3 7.4-2.8 2.4 3.3 10.3 1.3 12-1.4-6.7-3.7-17.3-4.1-26.8-5.1-7.9-1.1-15.5.2-21.9 1.5zm6 11.7c-.1 1.1 0 2.1.3 2.8 6.8 1.1 13.9.1 20.8-1.1 1.9-.3 3.8-.9 5.1-1.7-5.8-1.2-11.2.4-16.2.3-3.4-.2-6.7-1.4-10-.3zM117.9 232.5c-.1.8.6.9.6 1.7 3.4.2 6.9 3.1 9.7 2-1.7-2.7-6.9-4.5-10.3-3.7zM107.7 285.2c1.9 6.4 11.5 11.3 16.5 5.7-1.7-3.2-5.8-.9-8.8-1.4-3.4-.7-4.3-5.2-7.7-4.3z"/><path d="M176.3 64.9c-.1-2.5.4-4.9 0-8 2.1-4.7 5.5-8 8.5-11.7 5.2-3.3 10-7.1 12.8-12.8 2.1-.4 3.2-1.7 4.3-3.1 4.1-.6 7.1-3.8 11.1-4.3 1.1-.1 2.5.2 3.7 0 2.4-.4 2.7-1.9 4-2.8.8-.5 2.1-.5 3.1-1.1 1.7-1.1 3-2.8 4.6-3.4 5.1-2 11.6-3.8 17.9-2.8 1 .1 2.1 1.1 3.7 1.4 3.8.7 7.4.4 10.5.9 1.5.2 3 1 4.6 1.1 3.2.4 6.6-.4 10.5.3 3.1.5 7.3 1.2 10.8 2 7 1.5 14.8 4.8 20.5 7.1 4.1 1.6 7.4 3.4 10 6.6.7.9 1.2 3.2 2.6 4 2.3 1.3 5.1.1 8.3.6 3.6.6 7.8 2.9 11.4 4.6 3.7 1.7 7.9 3.5 10.5 5.4 5.1 3.6 7.8 9.9 11.1 14.5 1.2.2 1.3 1.5 2.6 1.7 3.9 5.2 8.5 9.8 13.1 14.2 6.8 10.1 10.4 22.5 10.8 35.6.1 1.7-.1 4 0 5.7.3 6.3 5.1 13.9 7.1 19.4.6 1.7.6 3.8 1.1 5.7 1.1 3.6 3.8 7.2 3.4 12.2 2.2 5.8 3.9 12 4.6 19.4 1 1.9 1.1 4.6 1.4 7.1 3.9 2.8 5.3 8 8.5 11.4 0 6.5 4.1 12.6 2.3 19.4 2.9 2 .5 5.4 2.6 8.3-.9.9-2.3 1.2-2.6 2.6 10.5 7.2 17.6 24.9 9.7 38.2v2.6c-1.8 3.5-3.4 7.2-6.8 9.1-1 2.8-3.8 3.8-5.4 6 5.5 7.7 6.9 18.7 2.6 28.2-1 2.2-4.8 7.1-6 8.3-.5.5-1.7.7-2.6 1.4-.6.6-.9 1.6-1.4 2-.8.5-1.8.4-2.8.9-4.9 2.4-7.1 4.6-12.3 2.6-1.5.7-1.2 1.9-1.4 3.4-1.2 2-3.3 3.1-4.3 5.4 2.3 3.6 3.1 8.7 7.7 10 .1 2-.9 2.9-1.1 4.6-1.5-1-3.4.2-4 2.3.2.8 1.5.6 1.4 1.7-1.2.4-2.1 1.1-3.4 1.4-4 7.2-11.7 10.7-19.1 14.5-4.7 5-10.3 10.4-13.1 16.2-3.8 2-4.6 7-8.8 8.5-3.9.2-9.5 1.2-12.2-1.7-3.1.1-3.9-2.1-7.1-2-3.7-1.5-6.9-5-10.8-5.4 2.3 6.7 7.4 10.8 8.5 17.9 1.2.7 2.2 2.1 1.4 4-4.9 2.3-9.8 4.7-16.2 5.4-1.9 2-5.2 1.5-8.5 1.4-2.3 1.7-5.2 1.1-7.7 1.4-4.7.6-9.7 2.9-14.2 2.8-2.2 0-4.6-.2-6.8.3-4.9 1-10.5 2.2-16.2 2.8-2.1-3.5-1-11.3-1.7-17.9-.5-5-1.8-13.9-2-18.8-.1-2.4-.7-5.2 1.4-6.8 1.4 1.3 1.5 4.1 1.7 6.6.2 2.7.6 5.8.9 8.3.1.7-.2 2.3 0 2.8 1.2 3 5.1-.6 6.8-1.7 6-3.9 12.9-7.4 17.1-11.1 5.7-2.2 9-6.7 14.2-9.4.9-1.3 2.4-2.2 3.1-3.7 1-.2 1.3-1 2.6-.9 1.7-2.3 5-4 7.1-5.7 1.8-1.4 3.2-3.6 5.1-5.1.8-.6 2-.8 2.8-1.4 3.4-2.7 6.2-6.5 9.7-9.1 3.1-2.4 5.3-4.7 8-7.4 2-2 3.8-4.2 5.7-6.6 3.9-4.9 9.3-11.4 9.4-17.9-7.5-5.5-4.3-23.8 7.7-21.7.9-2.2 1-5.2 2.3-7.1 1.2-.1 1.8-.9 2.8-1.1.2-2.9 4-2.3 4.3-5.1-.5 0-.2-.9-.9-.9-4.2 1.4-11.3.9-9.7 6.6-5 2.9-13.8.6-17.7-2.6-1.8-5.5-3-12.4-1.4-17.9 1.1-3.7 4.3-9.2 7.7-10 1.3 3.3-3.8 6.1-2.3 10.5 2.4-.3 1.6-3.7 4.6-3.4 1.4 1.5-2 3.5.6 4.8 3-.1 4.6-1.5 6.8-2.3 2.8 2.7-.2 8.5 2.6 10.8 3.3-.8 7.2-1 8.5-3.7-.5-3.1-3.5-3.5-5.7-4.8-.1-1.5-.8-2.4-.6-4.3 1.8-1.2 3.6-.9 5.1-2 1.8-1.3 2-4.2 4.6-4.6.2 1.8.7 3.3 2.6 3.4-.4 4.3 5.7 7.3 9.1 3.7-.4-2.9-.4-5.5 3.1-5.1 2.4 2.3 3.3 6.1 5.7 8.3.1 2.5 1.3 4.4 1.7 6.8.3 1.5-.3 3.9 1.1 5.1 2.1-.2 3-1.7 4.8-2.3 1-2.4 3-3.3 3.7-5.4 2.9-8.9-10.2-19.6-18.8-16.5-2 .7-3.4 2.3-5.1 3.7-1.8.1-3.3.5-5.1.6-3.9-7.1-13.7-3.7-22.2-5.4.7-3.3 5.1-1.7 7.7-2s5.4-1.4 8-1.7c-1.3-2.6-5.3-3.3-8-3.7-1 2.7-4.4 3-6.8 4.3-2.4-2.2-1.4-5.8-1.4-8.5-.1-3.7.2-7.2 1.1-10.8-2-1.1-5.8-1.9-5.1-4.8 3.2-.7 4.2 2.3 7.1 1.4 3.8-1.2 7.9-6.9 12.2-7.7 5.4-8.3 12.9-16.7 13.7-29.1.2-2.7.3-5.5.6-8.3.1-.8.1-2.2 0-3.1-.2-3.1-.4-7.7-2.8-9.1-3.8 3-7 5.8-12.3 8-4.7 2-8.7 6.1-13.1 3.1-.5-1.6 1.2-2 .6-2.8-.7-.5-2.4-.1-3.1-.6-1.8-1.2-.6-3.9-3.1-4.6-.1-.8.8-1.7-.3-2-1.2-.3-4.7.8-4.3-2 2.2-1.2 4.3-2.6 4.6-5.7-1.2-1.1-2.7-1.8-3.4-3.4-.2-1.2.6-1.3.6-2.3-2.5-2.1-7.6-1.6-8-5.7 6.2 1 12.2 3.8 19.1 3.1 10.6-1 18.9-8.4 22.2-16.5-2.3.2-3 2.1-4.3 3.4-7.5-1-8.1 6-14.5 5.1-1 .1-.6 1.7-2 1.4-3.9-.8-5.6-3.7-8.8-5.1-.4-3.3-3-4.4-5.7-5.4-.1-.9.5-1.2.3-2.3-1.4-1.1-3.9-1.1-4.6-2.8.8-1 2.6.7 2.8-.6-1.6-1.4-4.8-1.3-6.3-2.8.8-.4 1.6-.7 2.8-.6-.6-1.7-2.9-1.9-4-3.1-.7-1.7.1-3.2.9-4.8-2.5-2.9-8.6-2-9.1-6.8 1-1.1 3.1.5 3.7-1.1-.8-1.6-3.7-1.2-3.7-3.7 1.6-1.2 3.2.7 4.6 1.4 5.1 2.7 13.2 2.7 18.5 4.6.3.8.6 1.7 1.4 2 3 .7 6.4-1 9.7 0 1.9-1.4 4-4.1 7.4-3.1 1 4.4-4.6 4.4-5.4 8 .1 1.5 1.8 1.2 2 2.6-.3 2.8-3.8 2.5-4.3 5.1.5 1.3 2.6 1 4 1.4.4 1.9 2.8 1.9 5.1 2 6.8-6.7 11.3-19.4 8-30.8-.6-.9-2.2-.9-2.6-2 0-1.2.5-1.8.3-3.1-1.2-1.5-3.4-.2-4.6-1.7-.4-1.9 1.1-3.2.3-4.6-1.1-.4-2.5 1.8-4.3.9-1.3-.9-.3-2.6-.9-4-4.2-2.1-5.8.6-9.1 2.3-2 1-4.7 2.3-6.3 2.3-.5 0-1-.6-1.7-.9-.8-.3-2.6.3-2.8-1.1.9-.9 2.5-1.1 4-1.4 0-1.1 1.2-.9 1.7-1.4.4-1.5 1.8-2.2 2.6-3.7.7-1.4.6-3.9 2.6-4.3 1.7 1.8-.8 4.3-.3 5.7 1.1.5 2.6-.7 3.4-1.4 1.3.6 2.4.7 3.1-.6.4-1.2-.1-1.6-.6-2.6 4.8-8 1.2-21.5-7.1-25.6-.7.5-.7 1.6-2 1.4-4.1-3.2-8.8 1.1-12.8-.9-.8 1.6-3.7 1.3-4.6 2.8.1 3.3 1.8 6.2 1.7 9.7-.1 4.1-3.1 6.9-3.7 10-3.8 3-6 7.7-12.8 7.7.1-1.7 1.9-1.7 3.1-2.3 3.5-4 8.5-6.5 9.4-13.1.2-.8 1.3-.6 1.4-1.4-.2-.9-.9-1.2-1.1-2 1.1-5.2-5.1-16.5-9.1-16.2-1.5.1-1.5 1.9-3.1 1.7-.3-2.2 1.6-2.2 1.1-4.6-1.4-.8-1.8.5-3.4.3-1.4-7.3-5.1-14-13.7-14.5-1.6-.1-3.7.5-5.4.3-.9-.1-1.6-.6-2.3-.6-4.7.3-10.6 6-10.8 10.5-.1 3.1 2.1 5.3 1.4 8.5-2.6-.6-4.7-4.1-7.7-1.7-1.2-.1-1.6-2.4-2.6-1.7.3 2.3 1.9 2.8 1.1 5.1-6.6-3.1-6.9-12.8-4-19.9 1-1.3 3.2-1.3 3.4-3.4-4.1-.8-10.7-2.3-14.8 0-1-.3-2-.6-3.4-.6-.5.4-.3 1.4-.9 1.7-6.5 2.4-11.8 8.5-12.8 15.4 1.9-.6 4.3-.2 5.7.6.3.8 0 3.3 1.7 3.4.3-1.2-1-2.7.3-3.1 1.9 1 3.6 2.1 6 2.6 2.3 3.5 7.7 3.9 9.4 8-2.1.9-4.5-1.6-6.6-.9-.6 0-.1 1-.3 1.4-3.2-1.2-2.8 2.3-6 1.1-1.4 3.4-5.6 3.2-9.7 4 5.6 6.5 24 1.6 23.6 13.1-4 .1-4.5-4.8-8.3-4 1 1.7 3.9 1.4 3.7 4.3-2.8-.1-4.6-4.1-7.4-2.3 1.9 2.1 5.8 2.2 6 6-1.9.9-3.4-1.5-5.4-1.7-.9-.1-1.6.5-2.6.6-1.4.1-2.8-1.1-3.7 0 2 1.7 5.4 3.5 5.4 6.3-4.3-1.1-6.7-5.5-11.4-5.1 1.8 1.6 5.4 2.7 4.8 5.7-3.1-.9-5.2-3.2-8-4.6-3.6-1.7-7.8-2.4-11.7-2.6-1.7-.1-3.7-.8-5.4-.9-1.7 0-3.1.7-4.8.6-4-.4-7.7-3.2-10.8-1.4 5.7 2.9 12.5 3.2 18.8 3.4 2.7.1 6.5-.2 7.7 2.6-3.6.1-10-.9-13.4.6.8 2.5 5.1 1.4 4.6 5.1-4.1-1-10.2-4.1-16.2-3.1-.8.7.4 2-.3 2.6-.3 1-1 1.7-1.4 2.6-.2 5-5.3 8.9-4.8 14.5a52.7 52.7 0 0 0-4.8 19.1c-1.2.8-.6 2.1-.9 3.7-.5 3.6-2.8 6.4-.9 8.8 2.8-1 5.5-2.7 8.8-2.3 1.2.2 2.9 1.3 4.6 2 1.7.7 4 .9 5.1 1.7 2.2 1.4 5.4 5.6 5.4 8.8-2.7 1.3-5-1.3-7.1-2.3-1.9-.8-4.3-1.9-6.6-2.8-1.7-.7-4.4-1.9-5.7-2-9.2-.8-7.5 11.8-4.6 17.9 1.2.3 2.4 1.4 3.7.9.1-1.2-.9-.9-.3-2h2.6c4.7-6.7 15.7-3.8 21.6 0-.6-1.2-1.3-2.7 0-3.7 1.8.1 2.9 2.2 3.7 3.7 2.7 4.7 3.8 10.5 4 17.4-2.3 5.9-4 12.4-7.1 17.4-.9.3-1.7.6-2.6.9-2.7 3.5-3.5 7-1.7 10.8.7 1.5 2.6 4.7 3.4 6 1.6 2.3 4.9 3.2 5.4 5.4-4.9 0-9.5-1.2-12-4.8.4-6.2-1.2-9.8 0-14.8 2.2-2.8 3.9-6 6.3-8.5 1-5.7 6.3-10.8 4.6-16.5-2.1 1-1.5 4.6-4.8 4.3.5-2.3 2.6-3.1 2-6.6-1.9-1.4-3.7-4.2-6.6-3.7-3.1.6-3.3 4.8-1.4 7.4 1.4.7 3.2 1 3.4 2.8-6.2 4.4-9.7-8-4.6-11.1-2.2-2.9-8.2-1.7-10.8.3.4 1.4-1.4 2.8-1.7 4.6-.3 1.6.7 3.3-.6 4.3-2.6-2.7-7-2.1-10.8-3.7-.4.4-.3 1.5-.3 2.3 1.3.8 3.4.8 4.8 1.4.5 1.6.4 2.3 1.1 4-1.3 6.7-3.8 13.1-4.8 19.4-.3 1.6-.3 3.4-.6 5.1-.9 5.1-.3 6.9.6 11.1 1.1 5.1 1.8 8.8 3.7 12.8 4 3.6 6.2 9 8.8 14-.1 1-1.3 1-1.1 2.3 2.2 6.4 6.6 10.6 7.4 18.5 2.3 3.7 2.6 9.5 7.1 11.1.7 6.8.3 13.2 3.1 17.7 4.9 7.5 19.8 7.9 30.2 7.4 2.3-.1 3.6-1 4.8-1.1 1.3-.2 3.4.3 5.1 0 2.9-.5 7.1-2.5 11.1-4 3.8-1.4 8.1-2.5 11.4-4 6.1-2.7 13.9-5.7 19.4-8.8.8-.5 1.4-1.5 2.3-2 2.4-1.3 5-2.1 7.4-3.1 7.2-3.1 12.2-9.1 17.4-13.1 1.9-3.4 4.2-6.4 6.3-9.7.6-1.7.7-4.1 3.1-4 .4 3-2.1 5.5-2.3 8.8-8.3 10.1-16.7 20.1-28.8 26.5-.7 1.9-3.4 2-4.3 3.7-6.3 3.5-13.9 5.6-20.8 8.5-6.2.8-11.3 2.6-17.1 3.7-.8.3.4 2.5-.9 2.3-1.2.7-2-.9-3.4-1.1-2.9-.4-6.9.7-8.8 1.4 2.2 5.2 2.3 10.8 3.4 16.2.3 1.7 1.4 3.1 1.7 4.8.9 4.6 1.8 9.1 3.1 13.7.9 3.2 2.6 6.3 3.4 9.4 2.1 8.2 2.4 16.6 4 25.4-1.5 4.6 1 12.4-4 14-1.5-2.4-.1-6.6-.3-10.3-.2-2.8.1-6.2-1.7-7.4-1.4 4.2-5.6 6.9-9.7 7.4-.9-4 0-9.2 0-13.7-.1-7.2-.2-14.7.9-20.5.5-3 2.9-6.5-.6-7.7-4.1-1.4-6.2 4.7-8.3 6-1.4.9-3.9 1.1-5.4 1.1-8.1.2-16.9-2.5-24.8-3.1-1.3.9-1.5 1.6-2 2.8 3 5.6 10.3 6.8 11.7 14-.4.1-.6.4-.6.9-4 1.4-10.9-.2-12 3.4-.7 2.4 1.5 4.8 2.6 6.8 1.3 2.4 2.6 4.5 3.1 7.1 4.2 8.6 8 17.5 11.1 27.1 0 .8 1.2.5 1.1 1.4-.1 5.8 4.9 8.3 4.8 15.1-1.1.8-1.9.2-3.4 0-3.1-4.2-4.2-9.8-6-15.1-1.3-3.8-3.1-6.8-4.3-10.3-2.6-7.7-6.3-15.9-10-21.9-.1-4.3-3.5-5.4-3.7-9.7 2.7-2.9 6.2-5.2 9.7-7.4-2.6-2-4.1-5-5.7-8-1 .2-1.5.8-2.6.9-3-1.6-6.2-.6-9.1-1.4-3.2-.9-6-3.4-10-3.1-1.8-2.5-5.2-2.4-8-3.7-1.2-.6-2.4-1.9-3.7-2.6-2.9-1.5-4.5-2.6-6.6-4.3-5-4.1-10.5-9.6-10.5-17.4 8.3-1.5 16.8-1.2 24.2-3.1-8.1-.4-19.5-1.4-26.8-5.1-.5-1.6-2.1-1.5-3.4-2.6-1.8-1.4-3.3-4.7-5.4-4.3-1.6.3-1.6 3.2-2.6 4.6-.3.4-1.2.9-1.7 1.4-1.4 1.6-2.3 2.9-4.6 3.1-1.1-.8-.3-2.6 0-3.7 3.3-1.9 5.7-6.1 7.1-8.8-2.5-3.8-4.4-8.3-10.3-8.8-2.7 11 .3 22.9 3.7 31.6 2.7 6.9 6.7 12.7 10.5 17.9.7.9 1 2.2 1.7 3.1 1.9 2.5 4.2 4.9 6 7.1 1.1 1.4 1.5 3 2.6 4.6 2 2.9 5.3 6.2 6.6 8.8 1.5 3.1 4.3 6 6.3 9.1 3.2 5 5.1 10.1 7.4 15.4.1 4.2 1.8 6.7.9 10 .2.9 1 1.2 1.4 2-.6 1.2-1.2 2.4-1.7 3.7 1.2.9.4 2.1.9 3.4-2.1 1.3-2.1 5.9-2.8 7.7-5.2 2.3-9.5 6.9-16 8.3-4 .9-8.2-.6-13.1-.9-1.5-1.6-4.1-1.9-6.8-2.3-4.6-3-8.7-6.5-13.4-9.4-.8-1-1.1-2.5-2.9-2.6-.4-.7-.4-1.7-.9-2.3-.8 0-1.2-.5-2-.6-.6-2.5-2-4.2-4.6-4.8-1.3-3.1-3.9-4.9-6.8-6.3v-1.7c-2.3-1.2-3.3-3.7-4.8-5.4-1-1.1-2.6-1.6-3.7-2.8-1.8-1.9-3.6-3.6-5.1-5.4-.7-.8-1-2.1-1.7-2.8-.8-.8-2.1-1-2.8-1.7-1.9-1.7-4.3-4.4-6.3-6.6-2.9-3.2-5.4-5.8-7.4-8.8-3.2-1.4-4.2-4.9-8-5.7-.1-.7-.4-1.1-.3-2-4-3.3-8.3-6.3-11.7-10.3-5.8-2.1-9.4-10.4-15.4-11.4-2.5-.4-2.3 1.1-4.3 2.3-.4.3-1.4.1-1.7.3-.7.5-1 1.7-1.7 2.3-.9.8-2.2.9-2.8 1.4-.2.2.2.9 0 1.1-1.1 1.2-3.3 1.7-3.7 3.4-3.4.1-4 3-6.6 4h-4c-5.2-3.8 2.5-7.3 5.1-9.4 1.9.1 3.3-.3 3.4-2-3.4-4.1-7.8-7.2-9.7-12.8 1.4-5.2 8.5-4.5 13.4-2.8.4 1.3-1.2 1-.9 1.7 1.2.9 1.8-.9 3.1-.9 9.4 4.2 17.4 10 24.8 16.2.9.4 1.6.8 2.6 1.1 2.4 2.8 4.9 5.5 8.5 7.1.5.2 0 1.4.6 1.4 8.1 6.9 15.1 14.9 22.8 22.2 2.1-.2 2.8 1.2 4.6 1.4.1 1.1-.6 1.3-.9 2 3.7 2.3 4.3 7.7 9.4 8.5 1.5 2.6 4.7 3.5 5.1 7.1 3.6 2.3 7.4 4.4 8.8 8.8 1.3.5 2.3 1.3 4 1.4 1.1 2.4 3.1 3.9 4.6 6 2.1 1.5 4.6 2.1 6.6 3.7.9.8 1.2 2.1 2 2.8 2.4 2.2 5.6 4 9.1 4.6 3.4 3.1 8.8 4.3 15.1 4.6 3.8-2.7 9.2-3.8 10.8-8.5.3-3.2 1.9-4.3 2-6.6.1-2.8-.2-5.4 0-9.1-.9-2.2-2.1-4.8-1.4-7.7-2.1-2.2-2.2-6.4-5.1-7.7-1.2-4.6-2.8-8.7-6.6-10.8-2.3-6.9-8.1-10.1-10.8-16.5-.9-.5-1.2-1.4-2.3-1.7-1.5-4.2-5-6.4-6.3-10.8-5.5-4.4-7-12.8-10.3-19.4-3.6 2.7-7.5 3.2-11.4 4.8-.1 0-1 .5-1.1.6-8.8 6-14.8 14.1-21.1 21.9-.3.5-.8.7-.6 1.7-2.4 1.4-4.8 6.2-6.8 8.5-1.6 1.9-2.3 2.8-4.6 1.1 2.5-8.2 7.5-13.8 11.1-20.8-2.3-2.7-4.2-5.8-4.3-10.8-4.9-6.8-10-13.5-18.8-16.5-.9-.4-.9-1.8-2-2-4.6 3.2-7.4 8.2-13.4 10-2.5 3-5.8 5.2-9.4 7.1-.9-.8-1.7-1.8-2-3.1 4.6-4.2 9.1-8.6 15.1-11.4 2.6-5.4 9.1-6.9 12.2-11.7 17.3-2.2 19.5-20.9 22.8-36.2-.4-.5-.8-1-.6-2 2.9-3.6 2-8.3 4.8-11.4-.5-.3-.6-.9-.6-1.7 1.8-.6.4-2.8 1.4-4 .2-.7 2.1.2 2-.9-.8-1.1-.2-1.7-.3-3.4.5-.7 1.8.7 2-.6-.2-.9-.6-1.5-.9-2.3 1.3-1.4.1-3.3.6-5.1.6-2.6 3.8-4.2 5.7-6.6.9-1 1-2.4 1.7-2.8 2.5-1.7 6.2-.9 9.7-.9 1.6-.4 1.4-2.6 2.6-3.4 1-1.1 1.8 0 2.9.3 1.6-1.5 5.3-2.1 7.7-2 5.7-4.2 13.1-13.7 21.1-16 3.8-1 6.2.8 9.7 1.4 1.1-2.8 6-4.5 6.3-7.4.2-2.1-1.6-4.9-1.4-7.7.1-1.2.9-1.9.3-3.4 3.7-4.1 10.4-5.3 12.2-11.4-.2-1.3-1.5-1.6-1.4-3.1 1.8-.6 1.4-2.3 2-3.7 1.5-.5 1.3 2.1 2.3 1.1-1.3-5.7.6-11.3-.6-16.2-1.1-1.1-1.1-2.1-1.7-3.7-1.8-4.8-6.9-10.3-8.3-14.2-.6-1.6-1.4-4.2-1.4-5.7 0-2.7 2.4-5.2 1.7-8.3.4-.7 1.7-.6 2-1.4 1-2.2 3.1-5.7 2.3-8 3-4.4 5.2-9.6 6.3-16-3.9-5.6-10.9-9.2-11.3-19zm35.4-15.6c3.2-4.5 5.7-9.7 10-13.1.2.2.5.3.9.3-.1 3.2-4 4.1-3.7 6.8.3 1.1 1.7 1.1 3.1 1.1 1.1.9 2.2 1.8 4 2 .4 1.5-1.2 2.6-.3 3.7 1.4.7 1.2-2.3 2.3-2.8 3-.7 7.5-.2 10.5-1.4.7-8 7.8-11.2 11.1-15.7-2 1.3-4.6-.6-6.8-.3-1 .1-1.6 1.2-2.6 1.4-3.3.9-7.8-1.7-10 1.1-1.4.1-2.6 0-3.7-.3-1 .3-1.4 2.2-2.8 1.1.3-1.8 2.1-2 3.1-3.1-.1-1.4.3-3.4-.6-4-8.7 2-13.6 9.6-17.1 17.7.6 2.2 0 5.9 2.6 5.5zm56.9-11.4c1.3 2.3-.2 6.9 2.3 9.1.3-1.4-.6-4 .9-6.3.7-1.1 2.6-2.5 4-2.8.6-.1 1.3.2 2 0 3.6-1.3 7.3-4.5 10-6-4.2-.2-8.7-2.7-12.2-1.4-3 1.1-3.9 4.6-5.7 7.1-.2.4-.8.2-1.3.3zM192 60.7c1.3 8 7.8 12 15.4 14.5-.2-2-2.9-1.6-3.1-3.7-5.2-2-7.9-6.6-10.8-10.8-.4 0-.8 0-.9-.3-.4-.1-.5.1-.6.3zm40.2 1.1c1.8 3.2 6.4 6.4 10.5 5.4-.7-1.9-3.5-1.7-4.8-2.8-1.3-1.5-3.3-2.3-5.7-2.6zm-39.9 24.5c-.7 3.8-2.6 7.8-2.6 11.4 2.8-1.7 2.2-6.7 4.8-8.5 1.2.2 1.6.9 2.6 0 .1-2.6-2.7-3.5-4.8-2.9zm182.9 31.6h-.6c-3.4 8.5-7.9 15.9-15.1 20.5-3.6 0-5.2.6-6.8 2.8-.1.9.8.8.9 1.4 2.1.2 2.1-1.7 4.6-1.1 1.3-1 2.5-2.3 4.8-2.3 1.3-2.2 3.8-2.7 5.7-4.6 1.1-1.1 1.4-2.6 2.3-4 .8-1.1 2.2-1.8 2.8-3.1 1.2-2.6 1.3-6.2 1.4-9.6zm13.1 25.4h-.9c-.5 1.4-.8 3.2-1.7 4.3 1 8.5.3 17.8 3.1 23.4-1 .4-.9 2-1.7 2.6.3 5-.2 10.2-1.1 15.4.5 3.2-.2 8.6-1.7 12.2L378 206c-.8-.2-2.3.4-2.6-.3-3.1 2.6-5.3 6.1-7.7 9.4.2.5.1 1.2.6 1.4-1.1 3.2-4.9 3.9-5.1 8 1.1 1.3 2.9 1.9 4 3.1.5.8-.7 1.9-.3 3.4.8 1.8 3.5 1.9 4.3 3.7-.6 1.9 0 4.1 1.4 4.8 1-.2 1-1.5 2.3-1.4 2.2 2.5 4 5.5 8 6.3 0 1.2-.6 1.8 0 2.8 2.6.4 4.7 1.4 7.1 2 4.8 1.7 7.2 7.5 10.8 9.4 1.4-.4 1.2-2.5 2-3.4 3.1-1.1 6.7-1.1 10-1.4 0-3.8-.5-9.5-3.4-11.4.2-4.2-3.1-4.9-3.7-8.3-3.8-1.1-7.2 1.9-10-1.4-4.4.8-9.2 4.6-12.8.6-.3-3.2.9-4.4 1.1-6 .1-1-.2-2.9.6-3.7 3.7-4 16 .2 14-6.8-.7-2.2-3.4-2.5-5.7-3.7-.8-3.5 1.5-4 2.3-6-1.2 0-2.6.2-3.1-.6 1.3-8.5.3-18.3 1.4-27.9-2.9-10.7-2.7-24.1-5.2-35.3zm-185.5 14.5c3.6 1.4 7 .9 10.5 2.3 4 1.6 8.1 4 11.1 5.4.7-2-1.3-3.6-1.7-5.4-3.7-.3-6.1-1.9-8.8-3.1-3 .5-9.1-2.7-11.1.8zm-14.8 2.6c-.3 1.8 1.2 1.6 2 2.3 1.3-.6-.6-3.5-2-2.3zm215.7 33.9c-2.1 1.2-4.2 2.5-4.8 5.1.5.7 1.2 1.2 1.4 2.3-.5 2.1-4.4 2.5-4 4.6 2.5 2.6 4.8-.7 7.1-.9 1.8-.1 2.5 1.3 4.6 1.1 0-1.9-.9-5.7-.9-7.7-1.5-1.1-2.6-2.7-3.4-4.5zM145 205.7c2.8 1.1 10.9 1.6 13.4-1.4 1.9 2.1 3.7 1.1 7.1 1.4 10.3 1.1 11.3 17.9 17.1 24.8.3-3.6 3-4.6 6-3.4-1.7-7.6-3.3-15.3-8.3-19.7-3.3-2.2-5.8-5.1-9.4-8-1.9-1.5-4.1-3.6-5.7-4.3-4.4-1.9-6.4.5-9.7 2.8-3.3 2.5-8.2 4.5-10.5 7.8zm-17.1 7.4c1.7 1.4 3.7.8 5.7 1.1 3.5.5 7 1.6 10.8 2 3.3.4 7.2 1.2 11.1 2 3.7.7 8.1.8 10.3 2 6.2 3.4 4.5 14 5.7 21.7 3.6.4 6.7-1.1 10-1.4.5-1.7-.6-4.1-.3-6.6-3.8-8.3-6.7-17.4-12-24.2-10.4-.8-24 1.2-33.9 1.4-2.6.1-6.9-2.2-7.4 2zm-51.3 84c13.2 3.2 19.7 13.1 25.6 23.6 4.3-3.4 6.6-9.8 10.3-14 1.5-1.7 3.8-4.3 6.6-4-1.1 3.3-4.3 4.4-5.4 7.7-.4.5-1.2.7-1.7 1.1-1.7 5.9-8.5 8.4-8 15.7 3.5-1.4 4.9-4.9 7.4-7.4 3.1-1.7 4.4-4.9 7.4-7.1 3.9-2.8 9.8-2.7 13.1-6.6-1.9-7-1.7-16.8-.3-24.2-1.1-1.1-2.9-1.7-4-2.8-2.3-6.1-1.9-17.5.9-23.4.2-1-.4-1.1-.3-2 1.6-3.8 3.9-6.9 5.7-10.5-3.2-.8-7.6-.4-10-2 1-5.1 9.1.2 13.4-1.4-.2-3.2-2.4-4.4-2.6-7.7 3.1-.2 2.9 4 4.6 6 1.8 2.2 4.9 1.9 7.7 3.1 1.6-1 2.1-3.2 4.6-3.4.4 2.1-2.2 3.4-2.6 6-.5 3.3 1.3 6.3 2.8 8.5 4-.8 5.4-4.1 8.8-5.4-.6-5-.6-10.6-1.4-15.4-10.9-5.5-23.6-9.3-35-14.2-2.6-.1-4.2-1.7-6.6-.6-2.1 3.1-4.3 6.2-4.3 11.4-4.1 5.6-5.1 15.3-8.3 21.6 0 4.3-2.8 7.7-3.4 12-.5 3-.8 4.8-1.7 7.4-1.6 4.7-3 10.6-5.4 14.2-4.3 6.8-12.5 7.5-17.9 13.8zm61.3-78.6c7.2 6 22.1 5.3 24.5 15.1-.1 3.7.4 7.9.6 11.7 2.8-.2 4.5-1.4 6.6-2.3-.6-3.5-.2-7.1-.6-10.5-.3-2.5-.7-6.4-1.7-8-1.8-2.7-6.4-2-9.4-2.3-1.7-.2-3.8-1.3-6-1.7-4.3-.8-9.6-1.3-14-2zm46.4 17.4c-1.6.5-.4 2.2-1.1 4 1.4 1.3 3.8 1.2 5.7.9 0-.8.1-1.6-.3-2-2.8.4-3.4-1.5-4.3-2.9zm4.3 11.1c-2.8.4-7-.7-10.3-.3.5 3.2 1.9 5.5 3.7 7.4 6.8-1.6 11 2.4 11.1 9.1-2 1.8-6.1 1.3-8.3 2.3.9 5 1.1 10.6 2 14.8 3.1-1.2 7.2-1.4 10.3 0 .9 7.6-2 14-3.4 20.5 1.7 0 1.9-2.1 2.6-3.4 1.9-3.7 3.5-7.4 4-13.1.5-6.3-.6-13.4-1.4-18.8-.5-1.9-1.6-3.6-1.1-5.7-2-4.8-3.5-11.2-7.4-14.8h-.6c-1.3-.1-.8 1.3-1.2 2zm-20.5 3.1c-.4 1.8.1 4 .9 5.4-.1 1.5-1.2 2.1-1.4 3.4-4.8 1.3-8.4 3.7-12.5 5.7-1.7-1-2.2-3.1-2.8-5.1-5.4-2.1-5.9 4.7-9.4 6.3-.8-2.5 2-5.6 4-8 1-1.2 4.5-3.2 1.4-5.1-2.8 1.2-3.3 4.7-4.8 7.1-1.3.9-2.3 2.2-3.4 3.4-6.2-.7-4.4-7.2-3.4-11.4-2.8-.4-3.9 4.3-4.6 7.7-.9 4.5-1.2 10.9-.6 14.8 3.8 1 9.4.9 12.8-.6.4-4.8 6.1-6.2 8.8-2.6 7.5 0 14.4 1.6 23.1.6-.2-1.7-.5-3.5.9-4.3 1.5 0 1 2 2.6 2 .5-.7-.1-2.2-.6-2.8.3-1.3 1.6-1.4 2-2.6-2.4-6.3-3.1-18.1-13-13.9zm239.5 21.4c-4.7 1.3-7.7 4.2-10 8 2 .1 2.5-1.8 4.6-.9 2.3-1.9 4.7-3.7 5.4-7.1zm-36.4.8c-.7 1.2-2.1 1.7-3.4 2.3-.1 3.8.7 6.2-2.8 7.7.1 1.3 2.2 4 .9 6 2.6 1.8 9.3 2.9 12.5-.3 2.1-2.1 4.4-8.9-.9-6.8-.6 2.1-3 2.5-4 4.3-1.7-.2-3.4-.9-3.7-3.4-.1-.7.4-1.6.3-2.3-.2-1.4-1.5-2.4-1.1-3.7.5-1.8 2.7-2.2 4.3-2.9 1.3.4.9 2.5 3.1 2-.5-3.1-3.3-2.5-5.2-2.9zm16.5 8.6c-2.2 9.8-11.1 16.4-21.1 14.2.2 4.8 3.7 8.1 10.3 7.1 1.3-1.1 1.7-3.1 2-5.1 2.7-.7 2.4-4.4 5.7-4.6.7-1 1-2.2.9-4 4-1.7 8.4-3 9.7-7.4-2.8-.9-4.3 1.4-7.5-.2zm-204 8.5h-.9c-.8 2.3-1.3 6-2.8 8.5-1 1.7-3.2 2.4-2.8 4.8 1.7.9 2.1-1.2 2.8-2.3 1.9-2.8 3.2-5.9 4-10 .1-.3-.3-.4-.3-1zm170.4 18c.7-1.2.5-2.2-.3-3.1.7-1.1.9-2.7 2-3.4-1.4-1.5-.5-4-1.4-5.4-.3 0-.5.1-.6.3-3 2-1.4 4.9-.9 8 .3 1.4-.7 3.4 1.2 3.6zm-161.2-1.5c2.5 1.2 7.9.5 11.7-.3 1.1-.2 2.5-.4 2.8-1.4-3-1.7-5.1-4.4-7.4-6.8-1.8 1.9-2.6 4.8-4.6 6.6-1.3 0-2.8 1.3-2.5 1.9zm-165.8 8.3c-1.3 2.8 1.2 2.8 3.1 5.1 1 1.3 1.9 3.4 4 3.4 2.5 0 4.4-2.6 6-4.6-2.8-2.5-8.5-5.8-13.1-3.9zm229.3 85.2c-.5 5 1 10.3.6 16.2 4.7 1.4 10.1-.2 15.1-1.1 11.7-2.1 22.9-5.1 33.9-6.6.8-.1 1.8.2 2.6 0 .7-.2 1.7-1.2 2.6-1.4 1-.3 2.4.2 3.4 0 2.6-.6 6.1-2.2 6-4-.1-2.5-2.1-4.8-4-8.3-1.7-3.3-2.5-6.5-3.7-8.8-.6-1.2-2.2-2-2-3.4.4-2.5 4.3-2.2 6.8-1.7 6.8 1.2 14.3 4.6 20.8 6.8 8 2.7 9.3-2.2 12.8-7.4 1-1.5 2.7-3.1 4-4.8 2.6-3.4 5-7.3 8-9.7 4.1-3.2 10-5 14.2-8.3 3-2.3 4.3-3.7 6.6-6.8.8-1.1 2.2-2.3 2.3-3.7.2-3-4-8.5-5.4-11.1-.7-1.4-2-3.5-2.8-5.4-.7-1.5-1.7-4.6-3.1-4.8-2-.4-4.2 1.9-6.6 2-2.6.1-5.6-.8-7.4-1.4-4.1-1.3-6.2-4.6-9.7-7.4-.3-.2-.5-.5-.9-.6h-.6c-2.8 9.5-9.4 15.3-14.5 22.5-7.5 6.3-13.6 14-22.2 19.1-6.6 6-13.8 11.4-20.8 17.1-2.2 1.9-5.3 3.1-6.8 5.7-3.5 1.8-6.9 3.5-9.4 6.3-7.3 3-11.9 8.7-19.8 11zM96.3 318.8c.3 2.6 1 4.8 2.6 6.3 3.9-.9.5-8.5-2.6-6.3zm2.6 14.8c-1 .1-1.1 1-1.4 1.7.9.7 2-.9 1.4-1.7z"/><path d="M274.3 152.1c7.3-.8 13.6 3.7 19.1 4.8.5.4.2 1.7 1.1 1.7 3.3-.7 4.3-.6 7.1 0 .1 1 .7 1.4.6 2.6.6-.3 1.4-.9 2-.3.6.9-1.3 1.2-1.1 2.6 0 1.1 1.8.4 1.7 1.7-1.2 2.7-4.6 5.2-8.5 6-2.2-.5-2.6-2.9-4.6-3.7-2.2 1.7 1 2.6.6 5.1-3.8 1.6-9.8 1.7-13.4.6-2.4-3-1.9-7.9 0-10.8-7.9-3.7-13.4 3.3-16 8v1.7c-.9.9-2.1 1.2-3.7.9-.5-3.3 3.2-5.7 5.4-8.3 3.6-4.1 7.1-6.5 14-6.6 2.6 0 5.8 1.6 7.4-.9-4.1-1.2-7.6-3-13.4-2.6-1.9.6-3.4 2.4-5.4 2-.8-2.3 4.9-4.2 7.1-4.5zm20.5 8.6c.3 1.1 1.8.3 2.3 0-.2-1.1-1.8-.4-2.3 0zm-14.2 2.5c-2.6 3.4-.2 8.4 3.1 8.8 3.5.5 6.7-3.3 5.4-6.6-1-2.5-5.1-3.4-8.5-2.2z"/></svg>