<svg xmlns="http://www.w3.org/2000/svg" viewBox="0 0 153.1 51.7"><path fill="#FFF" stroke="#FFF" stroke-width="1.159" stroke-miterlimit="10" d="M85.6 2h20.9c5.8 0 10.3 1.3 13.3 3.8 2.5 2.1 3.9 5 3.9 8.6v.1c0 6.1-4 9.9-9.8 11.6l9.3 23.6h-11.8l-7.9-22.2H95.6v22.1h-10V2zm20.3 19.1c4.9 0 7.7-2.1 7.7-5.3v-1c0-3.5-3-5.4-7.9-5.4h-10V21h10.2z"/><path fill="#FFF" stroke="#FFF" stroke-width="1.156" stroke-miterlimit="10" d="M71.1 2h9.1v47.6h-9.1zM128 2h9.1v47.6H128z"/><path fill="#FFF" stroke="#FFF" stroke-width="1.547" stroke-miterlimit="10" d="M66.2 10.1V43L55.5 26.1z"/><path fill="#FFF" d="M149.5 6.5c-.1.6-.3 1-.7 1.3-.4.3-.9.5-1.4.5-.7 0-1.2-.2-1.6-.7-.4-.5-.6-1.1-.6-1.8 0-.8.2-1.4.6-1.9.4-.5.9-.7 1.6-.7.6 0 1.1.2 1.4.5.4.3.6.7.7 1.3h-1c0-.3-.1-.5-.3-.6-.2-.2-.4-.2-.7-.2-.4 0-.7.2-.9.4-.2.3-.3.7-.3 1.2s.1.9.3 1.2c.2.3.5.4.9.4.3 0 .5-.1.7-.3.2-.2.3-.4.3-.7h1z"/><ellipse fill="none" stroke="#FFF" stroke-width=".357" cx="147.4" cy="5.8" rx="3.6" ry="3.8"/><path fill="#FFF" stroke="#FFF" stroke-width="1.306" stroke-miterlimit="10" d="M39.2 21.9L52.2 2h14L50 26l16 23.7H52.2l-13-19.5v-8.3z"/><path fill="#FFF" d="M15.1 50.5H1.5l20.2-24.2L1.1 1.6h13.4l19.4 24.6-18.8 24.3z"/><path fill="#FFF" d="M33.1 50.5H19.4l18.9-24.2-19-24.6H33l17.7 24.6-17.6 24.2z"/></svg>